<svg width="16" height="16" viewBox="0 0 16 16" fill="none" xmlns="http://www.w3.org/2000/svg">
    <path d="M4.99786 8.02172C4.9971 8.15271 5.02233 8.28255 5.07209 8.40381C5.12186 8.52507 5.19518 8.63536 5.28786 8.72836L9.28786 12.7094C9.3811 12.8022 9.49179 12.8758 9.61361 12.926C9.73543 12.9762 9.866 13.0021 9.99786 13.0021C10.1297 13.0021 10.2603 12.9762 10.3821 12.926C10.5039 12.8758 10.6146 12.8022 10.7079 12.7094C10.8011 12.6166 10.8751 12.5064 10.9255 12.3852C10.976 12.2639 11.002 12.134 11.002 12.0028C11.002 11.8715 10.976 11.7416 10.9255 11.6203C10.8751 11.4991 10.8011 11.3889 10.7079 11.2961L7.39786 8.02172L10.5779 4.73737C10.6802 4.64581 10.7624 4.53424 10.8193 4.40962C10.8763 4.285 10.9069 4.15002 10.909 4.01312C10.9112 3.87622 10.885 3.74034 10.832 3.61399C10.779 3.48763 10.7004 3.37352 10.6011 3.27879C10.5018 3.18405 10.3839 3.11073 10.2548 3.06341C10.1257 3.0161 9.98816 2.9958 9.85082 3.00379C9.71348 3.01178 9.57928 3.04788 9.4566 3.10985C9.33393 3.17181 9.22542 3.2583 9.13786 3.36391L5.27786 7.34495C5.10155 7.52695 5.00144 7.76892 4.99786 8.02172Z"
          fill="black"/>
</svg>
