<svg width="16" height="16" viewBox="0 0 16 16" fill="none" xmlns="http://www.w3.org/2000/svg">
    <path d="M11.002 8.02172C11.0028 8.15271 10.9776 8.28255 10.9278 8.40381C10.878 8.52507 10.8047 8.63536 10.712 8.72836L6.71202 12.7094C6.61878 12.8022 6.50809 12.8758 6.38627 12.926C6.26444 12.9762 6.13388 13.0021 6.00202 13.0021C5.87016 13.0021 5.73959 12.9762 5.61777 12.926C5.49594 12.8758 5.38525 12.8022 5.29202 12.7094C5.19878 12.6166 5.12482 12.5064 5.07436 12.3852C5.0239 12.2639 4.99792 12.134 4.99792 12.0028C4.99792 11.8715 5.0239 11.7416 5.07436 11.6203C5.12482 11.4991 5.19878 11.3889 5.29202 11.2961L8.60202 8.02172L5.42202 4.73737C5.31973 4.64581 5.23752 4.53424 5.18053 4.40962C5.12355 4.285 5.09301 4.15002 5.09083 4.01312C5.08865 3.87622 5.11487 3.74034 5.16787 3.61399C5.22086 3.48763 5.29947 3.37352 5.3988 3.27879C5.49812 3.18405 5.61602 3.11073 5.74511 3.06341C5.87421 3.0161 6.01172 2.9958 6.14906 3.00379C6.28639 3.01178 6.4206 3.04788 6.54327 3.10985C6.66595 3.17181 6.77446 3.2583 6.86202 3.36391L10.722 7.34495C10.8983 7.52695 10.9984 7.76892 11.002 8.02172Z"
          fill="black"/>
</svg>
