<svg width="50" height="28" viewBox="0 0 50 28" fill="none" xmlns="http://www.w3.org/2000/svg">
    <path d="M0.972054 10.1166H0V28H0.972054V10.1166Z" fill="#6B6B6B"/>
    <path d="M49.5747 10.1166H48.6027V28H49.5747V10.1166Z" fill="#6B6B6B"/>
    <path d="M4.55653 0H3.58447V12.6051H4.55653V0Z" fill="#6B6B6B"/>
    <path d="M45.988 0H45.016V12.6051H45.988V0Z" fill="#6B6B6B"/>
    <path d="M45.3682 2.49576C45.3195 2.48118 40.3475 1.12273 24.7849 1.12273C9.16884 1.12273 4.25024 2.48361 4.20164 2.49576L3.93433 1.56259C4.13603 1.50427 9.03275 0.150681 24.7849 0.150681C40.537 0.150681 45.4338 1.50427 45.6355 1.56259L45.3682 2.49576Z" fill="#6B6B6B"/>
    <path d="M43.5066 20.2429C43.5066 19.8395 43.8322 19.5139 44.2356 19.5139C44.639 19.5139 44.9646 19.8395 44.9646 20.2429C44.9646 20.6463 44.639 20.972 44.2356 20.972C43.8346 20.972 43.5066 20.6463 43.5066 20.2429ZM41.0764 20.2429C41.0764 19.8395 41.4021 19.5139 41.8055 19.5139C42.2089 19.5139 42.5345 19.8395 42.5345 20.2429C42.5345 20.6463 42.2089 20.972 41.8055 20.972C41.4045 20.972 41.0764 20.6463 41.0764 20.2429ZM38.6463 20.2429C38.6463 19.8395 38.9719 19.5139 39.3753 19.5139C39.7787 19.5139 40.1044 19.8395 40.1044 20.2429C40.1044 20.6463 39.7787 20.972 39.3753 20.972C38.9744 20.972 38.6463 20.6463 38.6463 20.2429ZM36.2162 20.2429C36.2162 19.8395 36.5418 19.5139 36.9452 19.5139C37.3486 19.5139 37.6742 19.8395 37.6742 20.2429C37.6742 20.6463 37.3486 20.972 36.9452 20.972C36.5442 20.972 36.2162 20.6463 36.2162 20.2429ZM33.786 20.2429C33.786 19.8395 34.1117 19.5139 34.5151 19.5139C34.9185 19.5139 35.2441 19.8395 35.2441 20.2429C35.2441 20.6463 34.9185 20.972 34.5151 20.972C34.1141 20.972 33.786 20.6463 33.786 20.2429ZM31.3559 20.2429C31.3559 19.8395 31.6815 19.5139 32.0849 19.5139C32.4883 19.5139 32.814 19.8395 32.814 20.2429C32.814 20.6463 32.4883 20.972 32.0849 20.972C31.6839 20.972 31.3559 20.6463 31.3559 20.2429ZM28.9258 20.2429C28.9258 19.8395 29.2514 19.5139 29.6548 19.5139C30.0582 19.5139 30.3838 19.8395 30.3838 20.2429C30.3838 20.6463 30.0582 20.972 29.6548 20.972C29.2538 20.972 28.9258 20.6463 28.9258 20.2429ZM26.4956 20.2429C26.4956 19.8395 26.8213 19.5139 27.2247 19.5139C27.6281 19.5139 27.9537 19.8395 27.9537 20.2429C27.9537 20.6463 27.6281 20.972 27.2247 20.972C26.8237 20.972 26.4956 20.6463 26.4956 20.2429ZM24.0655 20.2429C24.0655 19.8395 24.3911 19.5139 24.7945 19.5139C25.1979 19.5139 25.5236 19.8395 25.5236 20.2429C25.5236 20.6463 25.1979 20.972 24.7945 20.972C24.3935 20.972 24.0655 20.6463 24.0655 20.2429ZM21.6353 20.2429C21.6353 19.8395 21.961 19.5139 22.3644 19.5139C22.7678 19.5139 23.0934 19.8395 23.0934 20.2429C23.0934 20.6463 22.7678 20.972 22.3644 20.972C21.9634 20.972 21.6353 20.6463 21.6353 20.2429ZM19.2052 20.2429C19.2052 19.8395 19.5308 19.5139 19.9342 19.5139C20.3376 19.5139 20.6633 19.8395 20.6633 20.2429C20.6633 20.6463 20.3376 20.972 19.9342 20.972C19.5333 20.972 19.2052 20.6463 19.2052 20.2429ZM16.7751 20.2429C16.7751 19.8395 17.1007 19.5139 17.5041 19.5139C17.9075 19.5139 18.2332 19.8395 18.2332 20.2429C18.2332 20.6463 17.9075 20.972 17.5041 20.972C17.1031 20.972 16.7751 20.6463 16.7751 20.2429ZM14.3449 20.2429C14.3449 19.8395 14.6706 19.5139 15.074 19.5139C15.4774 19.5139 15.803 19.8395 15.803 20.2429C15.803 20.6463 15.4774 20.972 15.074 20.972C14.673 20.972 14.3449 20.6463 14.3449 20.2429ZM11.9148 20.2429C11.9148 19.8395 12.2404 19.5139 12.6438 19.5139C13.0472 19.5139 13.3729 19.8395 13.3729 20.2429C13.3729 20.6463 13.0472 20.972 12.6438 20.972C12.2429 20.972 11.9148 20.6463 11.9148 20.2429ZM9.48466 20.2429C9.48466 19.8395 9.8103 19.5139 10.2137 19.5139C10.6171 19.5139 10.9427 19.8395 10.9427 20.2429C10.9427 20.6463 10.6171 20.972 10.2137 20.972C9.81273 20.972 9.48466 20.6463 9.48466 20.2429ZM7.05453 20.2429C7.05453 19.8395 7.38016 19.5139 7.78357 19.5139C8.18697 19.5139 8.51261 19.8395 8.51261 20.2429C8.51261 20.6463 8.18697 20.972 7.78357 20.972C7.38259 20.972 7.05453 20.6463 7.05453 20.2429ZM4.62439 20.2429C4.62439 19.8395 4.95003 19.5139 5.35343 19.5139C5.75683 19.5139 6.08247 19.8395 6.08247 20.2429C6.08247 20.6463 5.75683 20.972 5.35343 20.972C4.95246 20.972 4.62439 20.6463 4.62439 20.2429Z" fill="#6B6B6B"/>
    <path d="M49.5748 24.1775H0V13.0013L0.330495 12.8895C0.391248 12.8701 1.84204 12.384 5.5966 11.898C9.03039 11.4533 15.1495 10.9235 24.7874 10.9235C34.4253 10.9235 40.5444 11.4533 43.9782 11.898C47.7327 12.384 49.186 12.8701 49.2443 12.8895L49.5748 13.0013V24.1775ZM0.972054 23.2054H48.6027V13.7133C47.9903 13.5505 46.4885 13.1981 43.7789 12.8506C40.3791 12.4156 34.3232 11.8956 24.7874 11.8956C15.2515 11.8956 9.19563 12.4156 5.79587 12.8506C3.08627 13.1981 1.58445 13.5481 0.972054 13.7133V23.2054Z" fill="#6B6B6B"/>
    <path d="M39.033 12.3743L38.6393 12.3451C35.2371 12.0924 31.3562 11.9442 27.101 11.9077L26.6296 11.9028L26.6199 11.4314C26.6199 11.4217 26.6199 11.4095 26.6199 11.3998V7.95144C26.6199 6.77283 27.5773 5.81535 28.756 5.81535H37.0938C38.27 5.81535 39.2299 6.77283 39.2299 7.95144V11.3998C39.2299 11.6015 39.2007 11.8032 39.1448 11.9976L39.033 12.3743ZM27.5919 10.9381C31.4899 10.9818 35.0743 11.1179 38.2554 11.3415V7.95144C38.2554 7.30989 37.7329 6.78741 37.0913 6.78741H28.7535C28.112 6.78741 27.5895 7.30989 27.5895 7.95144V10.9381H27.5919Z" fill="#6B6B6B"/>
    <path d="M10.4255 12.384L10.3137 12.0073C10.2554 11.8105 10.2262 11.6064 10.2262 11.3998V7.95144C10.2262 6.77283 11.1837 5.81535 12.3623 5.81535H20.7001C21.8763 5.81535 22.8362 6.77283 22.8362 7.95144V11.3998C22.8362 11.4095 22.8362 11.4192 22.8362 11.429L22.8313 11.9053L22.3502 11.9077C18.095 11.949 14.2141 12.0997 10.8143 12.3548L10.4255 12.384ZM12.3599 6.78741C11.7183 6.78741 11.1958 7.30989 11.1958 7.95144V11.3512C14.3769 11.1228 17.9589 10.9867 21.8593 10.9405V7.95144C21.8593 7.30989 21.3368 6.78741 20.6952 6.78741H12.3599Z" fill="#6B6B6B"/>
</svg>
