<svg width="24" height="26" viewBox="0 0 24 26" fill="none" xmlns="http://www.w3.org/2000/svg">
    <path d="M1.01138 9.3932H0V26H1.01138V9.3932Z" fill="#6B6B6B"/>
    <path d="M23.2188 9.3932H22.2074V26H23.2188V9.3932Z" fill="#6B6B6B"/>
    <path d="M2.64712 0H1.63574V11.7042H2.64712V0Z" fill="#6B6B6B"/>
    <path d="M21.5803 0H20.569V11.7042H21.5803V0Z" fill="#6B6B6B"/>
    <path d="M2.39424 2.32123L1.88855 1.44639C1.98463 1.39076 4.30827 0.0835571 11.6104 0.0835571C18.9126 0.0835571 21.2362 1.39076 21.3323 1.44639L20.8241 2.32123C20.8215 2.32123 20.2653 2.01276 18.8544 1.70935C17.5548 1.42869 15.2413 1.09746 11.6104 1.09746C7.97957 1.09746 5.66857 1.43122 4.36643 1.70935C2.95555 2.01276 2.3993 2.3187 2.39424 2.32123Z" fill="#6B6B6B"/>
    <path d="M23.2187 22.5033H0V12.1291L0.217446 11.9774C0.328698 11.899 3.04677 10.0861 11.6106 10.0861C20.1744 10.0861 22.89 11.899 23.0038 11.9774L23.2212 12.1291V22.5033H23.2187ZM1.01138 21.4919H22.2073V12.6904C21.4336 12.301 18.4829 11.1 11.6081 11.1C4.7383 11.1 1.79014 12.2985 1.00885 12.6904V21.4919H1.01138Z" fill="#6B6B6B"/>
    <path d="M5.90173 11.4286V6.11887C5.90173 5.38562 6.49845 4.78891 7.2317 4.78891H15.9852C16.7184 4.78891 17.3151 5.38562 17.3151 6.11887V11.4286L16.7513 11.3654C15.2064 11.1909 13.477 11.0999 11.6059 11.0999C9.73486 11.0999 8.0054 11.1884 6.46052 11.3654L5.90173 11.4286ZM11.6084 10.0885C13.2924 10.0885 14.8701 10.1593 16.3038 10.3009V6.11634C16.3038 5.93935 16.1596 5.79776 15.9852 5.79776H7.2317C7.05471 5.79776 6.91311 5.94188 6.91311 6.11634V10.2984C8.34674 10.1593 9.92449 10.0885 11.6084 10.0885Z" fill="#6B6B6B"/>
    <path d="M19.6461 19.2971C19.6461 18.8774 19.9849 18.5385 20.4047 18.5385C20.8244 18.5385 21.1632 18.8774 21.1632 19.2971C21.1632 19.7168 20.8244 20.0556 20.4047 20.0556C19.9849 20.0556 19.6461 19.7168 19.6461 19.2971ZM17.1177 19.2971C17.1177 18.8774 17.4565 18.5385 17.8762 18.5385C18.2959 18.5385 18.6347 18.8774 18.6347 19.2971C18.6347 19.7168 18.2959 20.0556 17.8762 20.0556C17.4565 20.0556 17.1177 19.7168 17.1177 19.2971ZM14.5892 19.2971C14.5892 18.8774 14.928 18.5385 15.3478 18.5385C15.7675 18.5385 16.1063 18.8774 16.1063 19.2971C16.1063 19.7168 15.7675 20.0556 15.3478 20.0556C14.928 20.0556 14.5892 19.7168 14.5892 19.2971ZM12.0608 19.2971C12.0608 18.8774 12.3996 18.5385 12.8193 18.5385C13.239 18.5385 13.5779 18.8774 13.5779 19.2971C13.5779 19.7168 13.239 20.0556 12.8193 20.0556C12.3996 20.0556 12.0608 19.7168 12.0608 19.2971ZM9.53235 19.2971C9.53235 18.8774 9.87116 18.5385 10.2909 18.5385C10.7106 18.5385 11.0494 18.8774 11.0494 19.2971C11.0494 19.7168 10.7106 20.0556 10.2909 20.0556C9.87116 20.0556 9.53235 19.7168 9.53235 19.2971ZM7.00391 19.2971C7.00391 18.8774 7.34272 18.5385 7.76244 18.5385C8.18216 18.5385 8.52097 18.8774 8.52097 19.2971C8.52097 19.7168 8.18216 20.0556 7.76244 20.0556C7.34272 20.0556 7.00391 19.7168 7.00391 19.2971ZM4.47546 19.2971C4.47546 18.8774 4.81427 18.5385 5.234 18.5385C5.65372 18.5385 5.99253 18.8774 5.99253 19.2971C5.99253 19.7168 5.65372 20.0556 5.234 20.0556C4.81427 20.0556 4.47546 19.7168 4.47546 19.2971ZM1.94702 19.2971C1.94702 18.8774 2.28583 18.5385 2.70555 18.5385C3.12528 18.5385 3.46409 18.8774 3.46409 19.2971C3.46409 19.7168 3.12528 20.0556 2.70555 20.0556C2.28583 20.0556 1.94702 19.7168 1.94702 19.2971Z" fill="#6B6B6B"/>
</svg>
