<svg width="32" height="24" viewBox="0 0 32 24" fill="none" xmlns="http://www.w3.org/2000/svg">
    <path d="M31.5939 0.0181885H0.367816C0.164708 0.0181885 0 0.184554 0 0.389706V22.2342C0 22.4393 0.164708 22.6057 0.367816 22.6057H19.0494L19.2098 23.632C19.2313 23.77 19.3278 23.8841 19.4594 23.9274C19.4967 23.9397 19.5351 23.9456 19.5731 23.9456C19.6692 23.9456 19.7631 23.9076 19.8332 23.8368L21.052 22.6058H24.8914L26.1102 23.8368C26.1803 23.9076 26.2743 23.9456 26.3704 23.9456C26.4084 23.9456 26.4468 23.9397 26.4841 23.9274C26.6157 23.8841 26.7121 23.77 26.7337 23.632L26.8941 22.6057H31.594C31.7971 22.6057 31.9618 22.4393 31.9618 22.2342V0.389706C31.9618 0.18448 31.797 0.0181885 31.5939 0.0181885ZM28.919 20.999L28.5234 20.5995H29.4553L30.7059 21.8626H27.2517L28.7163 21.6287C28.8529 21.6069 28.9659 21.5095 29.0086 21.3766C29.0514 21.2437 29.0168 21.0978 28.919 20.999ZM23.3634 20.0172C23.2213 20.1141 23.0743 20.2142 22.9718 20.2142C22.8694 20.2142 22.7224 20.1141 22.5803 20.0172C22.4393 19.9211 22.2795 19.8121 22.0975 19.7524C21.9091 19.6906 21.7117 19.6828 21.5377 19.6759C21.37 19.6693 21.1967 19.6624 21.1218 19.6074C21.045 19.5509 20.9849 19.3854 20.9267 19.2253C20.8669 19.0607 20.7992 18.8742 20.6836 18.7137C20.5693 18.5552 20.4157 18.4338 20.2802 18.3268C20.1462 18.2211 20.0078 18.1117 19.9776 18.0178C19.9503 17.9329 19.9968 17.7664 20.0417 17.6054C20.0896 17.4337 20.144 17.2393 20.144 17.0351C20.144 16.8309 20.0897 16.6364 20.0417 16.4649C19.9968 16.3039 19.9503 16.1373 19.9776 16.0523C20.0078 15.9584 20.1462 15.8491 20.2801 15.7434C20.4156 15.6364 20.5692 15.5151 20.6836 15.3565C20.7991 15.196 20.8669 15.0095 20.9267 14.845C20.9849 14.6849 21.045 14.5193 21.1218 14.4628C21.1967 14.4078 21.37 14.4009 21.5377 14.3943C21.7118 14.3874 21.9091 14.3796 22.0975 14.3177C22.2795 14.2581 22.4393 14.1491 22.5803 14.053C22.7224 13.9561 22.8694 13.8559 22.9718 13.8559C23.0743 13.8559 23.2212 13.9561 23.3633 14.053C23.5043 14.1491 23.6641 14.258 23.8461 14.3177C24.0345 14.3795 24.2319 14.3873 24.4059 14.3942C24.5736 14.4008 24.747 14.4077 24.8218 14.4627C24.8986 14.5192 24.9588 14.6847 25.0169 14.8448C25.0767 15.0093 25.1444 15.1959 25.2601 15.3563C25.3743 15.5149 25.5279 15.6362 25.6634 15.7432C25.7974 15.849 25.9358 15.9584 25.966 16.0522C25.9933 16.1371 25.9468 16.3036 25.9018 16.4647C25.8539 16.6364 25.7996 16.8308 25.7996 17.035C25.7996 17.2392 25.8539 17.4337 25.9018 17.6053C25.9468 17.7663 25.9933 17.9329 25.9661 18.0177C25.9358 18.1116 25.7974 18.221 25.6635 18.3267C25.5279 18.4337 25.3743 18.555 25.2601 18.7137C25.1445 18.8741 25.0767 19.0606 25.0169 19.2252C24.9588 19.3852 24.8986 19.5508 24.8218 19.6073C24.747 19.6623 24.5736 19.6692 24.4059 19.6758C24.2318 19.6827 24.0345 19.6905 23.846 19.7524C23.6642 19.8122 23.5044 19.9211 23.3634 20.0172ZM26.61 17.4038C26.5716 17.2664 26.5354 17.1366 26.5354 17.0352C26.5354 16.9338 26.5716 16.804 26.61 16.6666C26.6812 16.4114 26.7619 16.1222 26.6658 15.823C26.5662 15.5131 26.3169 15.3162 26.1166 15.158C26.0097 15.0735 25.9086 14.9937 25.855 14.9193C25.7998 14.8427 25.755 14.7195 25.7076 14.5891C25.6161 14.3371 25.5124 14.0515 25.2548 13.8621C24.9992 13.6743 24.6994 13.6624 24.4348 13.6518C24.2961 13.6463 24.165 13.6411 24.0733 13.611C23.9899 13.5837 23.8854 13.5125 23.7749 13.4372C23.563 13.2927 23.2993 13.113 22.9718 13.113C22.6444 13.113 22.3807 13.2927 22.1688 13.4372C22.0582 13.5125 21.9538 13.5837 21.8703 13.6111C21.7786 13.6411 21.6476 13.6464 21.5088 13.6519C21.2443 13.6624 20.9444 13.6743 20.6888 13.8621C20.4312 14.0515 20.3275 14.3371 20.236 14.5891C20.1886 14.7195 20.1439 14.8428 20.0887 14.9193C20.035 14.9937 19.9339 15.0736 19.827 15.158C19.6267 15.3161 19.3774 15.513 19.2778 15.8229C19.1816 16.1221 19.2624 16.4114 19.3336 16.6666C19.3719 16.804 19.4082 16.9338 19.4082 17.0352C19.4082 17.1366 19.3719 17.2663 19.3336 17.4038C19.2624 17.659 19.1816 17.9482 19.2778 18.2474C19.3155 18.3647 19.3747 18.4656 19.4445 18.5546L18.1555 19.8565H2.72184V2.76741H29.2399V19.8565H27.7878L26.4989 18.5547C26.5688 18.4657 26.628 18.3647 26.6658 18.2473C26.7619 17.9482 26.6812 17.6589 26.61 17.4038ZM16.9348 21.3766C16.9775 21.5095 17.0904 21.6069 17.2271 21.6287L18.6917 21.8626H1.2558L2.50637 20.5995H17.42L17.0244 20.999C16.9267 21.0978 16.892 21.2437 16.9348 21.3766ZM29.4554 2.02438H2.50637L1.2558 0.761222H30.7059L29.4554 2.02438ZM1.98621 2.54978V20.0741L0.735632 21.3373V1.28662L1.98621 2.54978ZM29.9755 20.0741V2.54978L31.2261 1.28662V21.3373L29.9755 20.0741ZM19.8238 22.7954L19.6245 21.5196C19.5997 21.3605 19.4762 21.2357 19.3187 21.2106L18.0552 21.0087L19.9943 19.0502C20.0324 19.0847 20.0653 19.1185 20.0888 19.151C20.144 19.2276 20.1888 19.3508 20.2361 19.4813C20.3277 19.7333 20.4314 20.0189 20.689 20.2083C20.9446 20.3961 21.2443 20.408 21.5089 20.4185C21.6476 20.424 21.7787 20.4292 21.8703 20.4592C21.9218 20.4761 21.9816 20.5105 22.0455 20.5513L19.8238 22.7954ZM21.7877 21.8626L22.7197 20.9212C22.7994 20.9434 22.8831 20.9573 22.9718 20.9573C23.0605 20.9573 23.1442 20.9434 23.2238 20.9213L24.1557 21.8626H21.7877ZM26.3189 21.5196L26.1197 22.7954L23.898 20.5514C23.962 20.5105 24.0219 20.4761 24.0733 20.4593C24.1651 20.4292 24.2962 20.424 24.4349 20.4185C24.6994 20.408 24.9993 20.3961 25.2548 20.2083C25.5124 20.0189 25.6162 19.7333 25.7077 19.4813C25.7551 19.3509 25.7998 19.2276 25.855 19.1511C25.8785 19.1186 25.9113 19.0849 25.9494 19.0504L27.8883 21.0088L26.6249 21.2106C26.4673 21.2357 26.3438 21.3605 26.3189 21.5196Z" fill="#6B6B6B"/>
    <path d="M25.2348 17.0348C25.2348 15.7745 24.2196 14.749 22.9718 14.749C21.724 14.749 20.7087 15.7744 20.7087 17.0348C20.7087 18.2952 21.7239 19.3206 22.9718 19.3206C24.2195 19.3206 25.2348 18.2952 25.2348 17.0348ZM22.9717 18.5776C22.1295 18.5776 21.4443 17.8855 21.4443 17.0348C21.4443 16.1841 22.1295 15.4921 22.9717 15.4921C23.8139 15.4921 24.4991 16.1841 24.4991 17.0348C24.4991 17.8855 23.8139 18.5776 22.9717 18.5776Z" fill="#6B6B6B"/>
    <path d="M15.3187 5.52105C15.5219 5.52105 15.6866 5.35468 15.6866 5.14953V3.86163C15.6866 3.65648 15.5219 3.49011 15.3187 3.49011C15.1156 3.49011 14.9509 3.65648 14.9509 3.86163V5.14953C14.9509 5.35468 15.1156 5.52105 15.3187 5.52105Z" fill="#6B6B6B"/>
    <path d="M16.643 5.52105C16.8461 5.52105 17.0108 5.35468 17.0108 5.14953V3.86163C17.0108 3.65648 16.8461 3.49011 16.643 3.49011C16.4399 3.49011 16.2751 3.65648 16.2751 3.86163V5.14953C16.2751 5.35468 16.4399 5.52105 16.643 5.52105Z" fill="#6B6B6B"/>
    <path d="M18.0651 4.87658H20.4615C20.6646 4.87658 20.8293 4.71021 20.8293 4.50506C20.8293 4.29991 20.6646 4.13354 20.4615 4.13354H18.0651C17.862 4.13354 17.6973 4.29991 17.6973 4.50506C17.6973 4.71021 17.862 4.87658 18.0651 4.87658Z" fill="#6B6B6B"/>
    <path d="M11.5001 4.87658H13.8965C14.0996 4.87658 14.2643 4.71021 14.2643 4.50506C14.2643 4.29991 14.0996 4.13354 13.8965 4.13354H11.5001C11.297 4.13354 11.1323 4.29991 11.1323 4.50506C11.1323 4.71021 11.297 4.87658 11.5001 4.87658Z" fill="#6B6B6B"/>
    <path d="M25.4461 6.65967H6.51577C6.31266 6.65967 6.14795 6.82603 6.14795 7.03119C6.14795 7.23634 6.31266 7.4027 6.51577 7.4027H25.446C25.6491 7.4027 25.8138 7.23634 25.8138 7.03119C25.8138 6.82603 25.6492 6.65967 25.4461 6.65967Z" fill="#6B6B6B"/>
    <path d="M25.4461 8.21228H6.51577C6.31266 8.21228 6.14795 8.37865 6.14795 8.5838C6.14795 8.78895 6.31266 8.95532 6.51577 8.95532H25.446C25.6491 8.95532 25.8138 8.78895 25.8138 8.5838C25.8138 8.37865 25.6492 8.21228 25.4461 8.21228Z" fill="#6B6B6B"/>
    <path d="M25.4461 9.76465H6.51577C6.31266 9.76465 6.14795 9.93101 6.14795 10.1362C6.14795 10.3413 6.31266 10.5077 6.51577 10.5077H25.446C25.6491 10.5077 25.8138 10.3413 25.8138 10.1362C25.8138 9.93101 25.6492 9.76465 25.4461 9.76465Z" fill="#6B6B6B"/>
    <path d="M25.4461 11.3165H6.51577C6.31266 11.3165 6.14795 11.4829 6.14795 11.688C6.14795 11.8932 6.31266 12.0596 6.51577 12.0596H25.446C25.6491 12.0596 25.8138 11.8932 25.8138 11.688C25.8138 11.4829 25.6492 11.3165 25.4461 11.3165Z" fill="#6B6B6B"/>
    <path d="M15.2549 15.5265H6.51577C6.31266 15.5265 6.14795 15.6929 6.14795 15.898C6.14795 16.1032 6.31266 16.2695 6.51577 16.2695H15.2549C15.458 16.2695 15.6227 16.1032 15.6227 15.898C15.6227 15.6929 15.458 15.5265 15.2549 15.5265Z" fill="#6B6B6B"/>
    <path d="M11.921 17.0135H6.51577C6.31266 17.0135 6.14795 17.1799 6.14795 17.3851C6.14795 17.5902 6.31266 17.7566 6.51577 17.7566H11.921C12.1241 17.7566 12.2889 17.5902 12.2889 17.3851C12.2889 17.1799 12.1242 17.0135 11.921 17.0135Z" fill="#6B6B6B"/>
    <path d="M3.58266 5.12415C3.37955 5.12415 3.21484 5.29051 3.21484 5.49566V8.4678C3.21484 8.67295 3.37955 8.83932 3.58266 8.83932C3.78577 8.83932 3.95048 8.67295 3.95048 8.4678V5.49566C3.95048 5.29051 3.78577 5.12415 3.58266 5.12415Z" fill="#6B6B6B"/>
    <path d="M3.58266 3.39038C3.37955 3.39038 3.21484 3.55675 3.21484 3.7619V4.30684C3.21484 4.51199 3.37955 4.67835 3.58266 4.67835C3.78577 4.67835 3.95048 4.51199 3.95048 4.30684V3.7619C3.95048 3.55675 3.78577 3.39038 3.58266 3.39038Z" fill="#6B6B6B"/>
    <path d="M28.4472 19.1427C28.6503 19.1427 28.815 18.9763 28.815 18.7712V14.9074C28.815 14.7023 28.6503 14.5359 28.4472 14.5359C28.2441 14.5359 28.0793 14.7023 28.0793 14.9074V18.7712C28.0793 18.9763 28.2441 19.1427 28.4472 19.1427Z" fill="#6B6B6B"/>
    <path d="M28.4472 14.1888C28.6503 14.1888 28.815 14.0225 28.815 13.8173V13.1238C28.815 12.9187 28.6503 12.7523 28.4472 12.7523C28.2441 12.7523 28.0793 12.9187 28.0793 13.1238V13.8173C28.0793 14.0225 28.2441 14.1888 28.4472 14.1888Z" fill="#6B6B6B"/>
</svg>
