<svg width="32" height="32" viewBox="0 0 32 32" fill="none" xmlns="http://www.w3.org/2000/svg">
    <rect width="32" height="32" rx="16" fill="#00DDE1"/>
    <path d="M10.4376 16.6425C10.1635 16.4176 9.80629 16.2955 9.43766 16.3009C9.06903 16.3062 8.71625 16.4385 8.45007 16.6712C8.18389 16.9039 8.02401 17.2199 8.00249 17.5556C7.98098 17.8914 8.09942 18.2222 8.33407 18.4816L11.5771 21.5868C11.7128 21.7168 11.876 21.8204 12.0567 21.8913C12.2375 21.9623 12.4321 21.9993 12.6288 22C12.8246 22.001 13.0185 21.9662 13.1992 21.8975C13.3799 21.8288 13.5436 21.7277 13.6806 21.6002L23.5849 12.2712C23.7191 12.1452 23.8249 11.9963 23.8961 11.833C23.9673 11.6697 24.0026 11.4952 23.9999 11.3194C23.9971 11.1437 23.9565 10.9702 23.8803 10.8088C23.8041 10.6474 23.6938 10.5013 23.5556 10.3787C23.4175 10.2562 23.2543 10.1597 23.0753 10.0948C22.8963 10.0298 22.705 9.99766 22.5124 10.0001C22.3198 10.0026 22.1296 10.0397 21.9527 10.1092C21.7758 10.1787 21.6156 10.2794 21.4813 10.4054L12.6434 18.7482L10.4376 16.6425Z" fill="white"/>
</svg>
