<svg width="28" height="21" viewBox="0 0 28 21" fill="none" xmlns="http://www.w3.org/2000/svg">
    <path d="M18.5849 12.6833L18.1207 8.6812C18.1207 8.67469 18.1186 8.67036 18.1186 8.66385C17.9559 7.84607 17.3854 7.16277 16.6327 6.88078C16.4657 6.81787 16.2813 6.82872 16.1164 6.91332C16.0644 6.93935 16.0036 6.96104 15.9385 6.98273V6.58143C16.3355 6.31029 16.6609 5.8938 16.88 5.41658C16.8995 5.42092 16.919 5.42743 16.9385 5.4296C16.9667 5.43394 16.9949 5.43394 17.0231 5.43394C17.3789 5.43394 17.6999 5.14326 17.7607 4.75064C17.7932 4.53806 17.7433 4.32331 17.6262 4.15846C17.65 3.98709 17.6587 3.81573 17.6609 3.65087C17.7064 3.61182 17.7628 3.54458 17.7628 3.43612C17.7628 3.38189 17.7476 3.33851 17.7281 3.30163C17.7476 3.26692 17.7628 3.22137 17.7628 3.16714C17.7628 2.72029 17.5459 2.3537 17.3051 1.98277C17.1142 1.68993 16.8518 1.28646 16.4353 1.07171C16.0644 0.880821 15.6349 0.876483 15.2184 0.876483L14.7281 0.77887C14.713 0.781039 14.6978 0.77887 14.6848 0.77887C14.2444 0.77887 13.867 0.974096 13.5351 1.14546L13.4939 1.16715C13.1555 1.34069 12.7347 1.55761 12.4917 1.93071C12.2596 2.28645 12.2249 2.70944 12.2227 3.08905C12.1772 3.12809 12.1208 3.19534 12.1208 3.3038C12.1208 3.35803 12.136 3.40141 12.1555 3.43829C12.136 3.47299 12.1208 3.51855 12.1208 3.57278C12.1208 3.79186 12.1707 3.99577 12.2423 4.18666C12.136 4.34934 12.0926 4.55108 12.1229 4.75281C12.1837 5.14543 12.5047 5.4361 12.8605 5.4361C12.8887 5.4361 12.9169 5.43394 12.9451 5.43177C12.9646 5.4296 12.9841 5.42309 13.0036 5.41875C13.2227 5.89597 13.5481 6.31245 13.9451 6.5836V6.9849C13.88 6.96321 13.8171 6.93935 13.7672 6.91549C13.6002 6.83306 13.4158 6.82004 13.2509 6.88295C12.496 7.16494 11.9256 7.84824 11.7607 8.68337L11.2943 12.6833C11.2878 12.7441 11.3073 12.807 11.3485 12.8525C11.3637 12.8699 11.3854 12.8829 11.4049 12.8938L11.3919 13.0087C11.3659 13.2213 11.4331 13.4339 11.5763 13.5944C11.7173 13.7549 11.9212 13.846 12.136 13.846H12.4592V19.4751C12.4592 19.5597 12.4722 19.6377 12.496 19.7115C12.1229 19.8807 11.8605 20.256 11.8605 20.6941C11.8605 20.8612 11.9971 20.9978 12.1642 20.9978H14.4592C14.6262 20.9978 14.7628 20.8612 14.7628 20.6941V20.3124C14.7628 20.1085 14.6739 19.9262 14.5329 19.8004C14.5763 19.705 14.6023 19.5987 14.6023 19.4837L14.7412 15.0564C14.7433 14.9588 14.8344 14.8786 14.9407 14.8786C15.0492 14.8786 15.1381 14.9566 15.1403 15.0564L15.2791 19.4772C15.2791 19.5965 15.3051 19.705 15.3507 19.8004C15.2097 19.9284 15.1208 20.1106 15.1208 20.3145V20.6963C15.1208 20.8633 15.2574 21 15.4244 21H17.7194C17.8865 21 18.0231 20.8633 18.0231 20.692C18.0231 20.256 17.7607 19.8807 17.3876 19.7137C17.4092 19.6399 17.4244 19.5618 17.4244 19.4772V13.8482H17.7476C17.9602 13.8482 18.1641 13.7571 18.3073 13.5966C18.4483 13.4361 18.5155 13.2235 18.4917 13.0109L18.4787 12.8959C18.4982 12.8851 18.5199 12.8721 18.5351 12.8547C18.5719 12.807 18.5915 12.7463 18.5849 12.6833ZM17.3268 4.68774C17.3008 4.8591 17.1728 4.99142 17.0361 5.00227C17.1056 4.78318 17.1511 4.55542 17.1728 4.33199C17.214 4.35151 17.2444 4.38188 17.2639 4.40791C17.3203 4.48166 17.3442 4.58362 17.3268 4.68774ZM12.5503 4.68774C12.5351 4.58362 12.5568 4.48166 12.6132 4.40791C12.6327 4.38188 12.6631 4.35151 12.7043 4.33199C12.726 4.55759 12.7737 4.78318 12.8409 5.00227C12.7043 4.99142 12.5763 4.8591 12.5503 4.68774ZM12.9711 3.25825C12.8713 3.26041 12.7845 3.32983 12.7629 3.42744C12.7281 3.58145 12.7108 3.7333 12.6999 3.88297C12.6674 3.88731 12.6349 3.89599 12.6023 3.90683C12.5785 3.82223 12.5611 3.73763 12.5546 3.6487C12.6002 3.60965 12.6544 3.54241 12.6544 3.43612C12.6544 3.38189 12.6392 3.33851 12.6197 3.30163C12.6392 3.26692 12.6544 3.22137 12.6544 3.16714C12.6544 2.74849 12.6891 2.4166 12.854 2.16498C13.034 1.88732 13.3832 1.70728 13.6913 1.54893L13.7325 1.52724C14.0297 1.37323 14.3355 1.21704 14.6631 1.21054L15.1511 1.30815C15.1641 1.31032 15.1793 1.31249 15.1945 1.31249C15.5828 1.31249 15.9494 1.31249 16.2335 1.45782C16.5242 1.6075 16.7238 1.89166 16.9385 2.21921C17.1338 2.51855 17.2964 2.79187 17.3225 3.08905C17.2769 3.12809 17.2227 3.19534 17.2227 3.29946C17.2227 3.35369 17.2379 3.39707 17.2574 3.43395C17.2379 3.46866 17.2227 3.51421 17.2227 3.56844C17.2227 3.67473 17.2205 3.78102 17.214 3.88731C17.201 3.88514 17.1902 3.8808 17.1771 3.87863C17.1685 3.72896 17.1489 3.57712 17.1142 3.4231C17.0925 3.32549 17.0058 3.25608 16.906 3.25391C16.227 3.24306 15.2205 2.93504 14.778 2.45782C14.7021 2.37756 14.5936 2.33634 14.4874 2.34285C14.3789 2.35153 14.2791 2.40576 14.2184 2.49686C13.906 2.95239 13.6501 3.2474 12.9711 3.25825ZM13.1251 4.0565C13.1251 3.93286 13.136 3.81139 13.1555 3.68557C13.8691 3.62484 14.2119 3.26258 14.5242 2.82224C15.047 3.32983 15.9949 3.63134 16.7238 3.68557C16.7433 3.81139 16.7542 3.93503 16.7542 4.0565C16.7542 5.1758 15.9624 6.47514 14.9385 6.47514C13.9147 6.47514 13.1251 5.17363 13.1251 4.0565ZM15.5004 6.80486V7.08034C15.3247 7.10638 15.1338 7.11939 14.9385 7.11939C14.7433 7.11939 14.5524 7.10421 14.3767 7.08034V6.80486C14.5546 6.86993 14.7433 6.90681 14.9385 6.90681C15.1338 6.90681 15.3225 6.86993 15.5004 6.80486ZM12.4744 13.4122H12.1316C12.0405 13.4122 11.9581 13.3753 11.8974 13.3059C11.8366 13.2365 11.8106 13.1497 11.8214 13.0608L11.8366 12.9263H12.4245L12.4223 12.9567C12.4201 13.0152 12.4396 13.0738 12.4809 13.1172C12.483 13.1193 12.4874 13.1215 12.4917 13.1237L12.4744 13.4122ZM14.3268 20.5662H12.3008C12.3485 20.3275 12.5308 20.1367 12.765 20.0759C12.8409 20.1215 12.9277 20.1497 13.021 20.1497H14.034C14.1012 20.1497 14.162 20.1345 14.2205 20.1106C14.2835 20.1583 14.3247 20.2299 14.3247 20.3145V20.5662H14.3268ZM14.9385 14.4426C14.5936 14.4426 14.3138 14.705 14.3051 15.0412L14.1663 19.4751C14.1663 19.6204 14.0882 19.7137 14.034 19.7137H13.021C12.9668 19.7137 12.8887 19.6204 12.8887 19.4751V13.7658L12.9255 13.1823H16.9559L16.9906 13.7528V19.4751C16.9906 19.6204 16.9125 19.7137 16.8583 19.7137H15.8453C15.791 19.7137 15.7129 19.6204 15.7129 19.4685L15.5741 15.0412C15.5633 14.705 15.2834 14.4426 14.9385 14.4426ZM17.5763 20.5662H15.5524V20.3124C15.5524 20.2278 15.5958 20.1562 15.6565 20.1085C15.7151 20.1323 15.778 20.1475 15.8431 20.1475H16.8561C16.9494 20.1475 17.0361 20.1193 17.1121 20.0737C17.3463 20.1367 17.5286 20.3254 17.5763 20.5662ZM17.9819 13.3059C17.9212 13.3731 17.8387 13.4122 17.7476 13.4122H17.4049L17.3876 13.1237C17.3897 13.1215 17.3941 13.1193 17.3984 13.1172C17.4396 13.0738 17.4613 13.0152 17.457 12.9567L17.4526 12.9263H18.0405L18.0557 13.0608C18.0687 13.1519 18.0426 13.2387 17.9819 13.3059ZM17.4309 12.4925L17.2899 9.88727C17.2834 9.76796 17.1815 9.67686 17.0622 9.68336C16.9472 9.68987 16.8583 9.78532 16.8583 9.90028C16.8583 9.90462 16.8561 9.90679 16.8561 9.91113L17.0079 12.7506H12.8691L13.021 9.91113C13.021 9.90679 13.0188 9.90462 13.0188 9.90028C13.0188 9.78532 12.9321 9.68987 12.8149 9.68336C12.6978 9.67686 12.5937 9.76796 12.5872 9.88727L12.4483 12.4925H11.7542L12.188 8.75062C12.3225 8.07817 12.7867 7.51852 13.4006 7.28859C13.4548 7.26906 13.5156 7.2734 13.572 7.30377C13.893 7.46429 14.3897 7.5554 14.9407 7.5554C15.4917 7.5554 15.9884 7.46429 16.3095 7.30377C16.368 7.27557 16.4288 7.26906 16.4808 7.29076C17.0925 7.51852 17.5567 8.076 17.6912 8.74194L18.1251 12.4925H17.4309Z" fill="#F65362"/>
    <path d="M15.8409 4.67691C15.9819 4.67691 16.0882 4.54676 16.0882 4.37539C16.0882 4.20403 15.9819 4.07388 15.8409 4.07388C15.6999 4.07388 15.5936 4.20403 15.5936 4.37539C15.5936 4.54676 15.6999 4.67691 15.8409 4.67691Z" fill="#F65362"/>
    <path d="M15.5567 5.34718C15.5567 5.25174 15.4786 5.17365 15.3831 5.17365C15.2877 5.17365 15.2096 5.25174 15.2096 5.34718C15.2096 5.3667 15.1185 5.44913 14.9406 5.44913C14.7628 5.44913 14.6717 5.3667 14.6717 5.34718C14.6717 5.25174 14.5936 5.17365 14.4981 5.17365C14.4027 5.17365 14.3246 5.25174 14.3246 5.34718C14.3246 5.5988 14.5957 5.7962 14.9406 5.7962C15.2855 5.7962 15.5567 5.5988 15.5567 5.34718Z" fill="#F65362"/>
    <path d="M14.0361 4.07168C13.8951 4.07168 13.7888 4.20183 13.7888 4.37319C13.7888 4.54456 13.8951 4.67471 14.0361 4.67471C14.1771 4.67471 14.2834 4.54456 14.2834 4.37319C14.2834 4.20183 14.1771 4.07168 14.0361 4.07168Z" fill="#F65362"/>
    <path d="M7.29185 12.6833L6.82765 8.6812C6.82765 8.67469 6.82548 8.67036 6.82548 8.66385C6.66279 7.84607 6.09229 7.16277 5.33959 6.88078C5.17256 6.81787 4.98818 6.82872 4.82332 6.91332C4.77126 6.93935 4.71052 6.96104 4.64545 6.98273V6.58143C5.04241 6.31029 5.36779 5.8938 5.58687 5.41658C5.6064 5.42092 5.62592 5.42743 5.64544 5.4296C5.67364 5.43394 5.70184 5.43394 5.73004 5.43394C6.08579 5.43394 6.40683 5.14326 6.46756 4.75064C6.5001 4.53806 6.45021 4.32331 6.33307 4.15846C6.35693 3.98709 6.36561 3.81573 6.36778 3.65087C6.41333 3.61182 6.46973 3.54458 6.46973 3.43612C6.46973 3.38189 6.45455 3.33851 6.43502 3.30163C6.45455 3.26692 6.46973 3.22137 6.46973 3.16714C6.46973 2.72029 6.25281 2.3537 6.01203 1.98277C5.82115 1.68993 5.55867 1.28646 5.14219 1.07171C4.77126 0.880821 4.34176 0.876483 3.92528 0.876483L3.43504 0.77887C3.41986 0.781039 3.40468 0.77887 3.39166 0.77887C2.95132 0.77887 2.57388 0.974096 2.24199 1.14546L2.20078 1.16715C1.86239 1.34069 1.44157 1.55761 1.19862 1.93071C0.966515 2.28645 0.931808 2.70944 0.929639 3.08905C0.884086 3.12809 0.827687 3.19534 0.827687 3.3038C0.827687 3.35803 0.842872 3.40141 0.862394 3.43829C0.842872 3.47299 0.827687 3.51855 0.827687 3.57278C0.827687 3.79186 0.877579 3.99577 0.949162 4.18666C0.842872 4.34934 0.799488 4.55108 0.829857 4.75281C0.890594 5.14543 1.21163 5.4361 1.56738 5.4361C1.59558 5.4361 1.62378 5.43394 1.65198 5.43177C1.6715 5.4296 1.69102 5.42309 1.71054 5.41875C1.92963 5.89597 2.25501 6.31245 2.65197 6.5836V6.9849C2.58689 6.96321 2.52399 6.93935 2.4741 6.91549C2.30707 6.83306 2.12269 6.82004 1.95783 6.88295C1.20296 7.16494 0.632461 7.84824 0.467603 8.68337L0.00122877 12.6833C-0.00527877 12.7441 0.0142439 12.807 0.0554583 12.8525C0.0706426 12.8699 0.0923344 12.8829 0.111857 12.8938L0.098842 13.0087C0.0728118 13.2213 0.140056 13.4339 0.283222 13.5944C0.424219 13.7549 0.628123 13.846 0.842872 13.846H1.16608V19.4751C1.16608 19.5597 1.17909 19.6377 1.20296 19.7115C0.829857 19.8807 0.567385 20.256 0.567385 20.6941C0.567385 20.8612 0.704044 20.9978 0.871071 20.9978H3.16607C3.33309 20.9978 3.46975 20.8612 3.46975 20.6941V20.3124C3.46975 20.1085 3.38082 19.9262 3.23982 19.8004C3.2832 19.705 3.30923 19.5987 3.30923 19.4837L3.44806 15.0564C3.45023 14.9588 3.54133 14.8786 3.64762 14.8786C3.75608 14.8786 3.84502 14.9566 3.84719 15.0564L3.98602 19.4772C3.98602 19.5965 4.01205 19.705 4.0576 19.8004C3.9166 19.9284 3.82767 20.1106 3.82767 20.3145V20.6963C3.82767 20.8633 3.96433 21 4.13135 21H6.42635C6.59337 21 6.73003 20.8633 6.73003 20.692C6.73003 20.256 6.46756 19.8807 6.09446 19.7137C6.11615 19.6399 6.13134 19.5618 6.13134 19.4772V13.8482H6.45455C6.66713 13.8482 6.87103 13.7571 7.0142 13.5966C7.15519 13.4361 7.22244 13.2235 7.19858 13.0109L7.18556 12.8959C7.20508 12.8851 7.22678 12.8721 7.24196 12.8547C7.27884 12.807 7.29836 12.7463 7.29185 12.6833ZM6.03373 4.68774C6.0077 4.8591 5.87971 4.99142 5.74305 5.00227C5.81247 4.78318 5.85802 4.55542 5.87971 4.33199C5.92093 4.35151 5.9513 4.38188 5.97082 4.40791C6.02722 4.48166 6.05108 4.58362 6.03373 4.68774ZM1.25719 4.68774C1.242 4.58362 1.26369 4.48166 1.32009 4.40791C1.33961 4.38188 1.36998 4.35151 1.4112 4.33199C1.43289 4.55759 1.48061 4.78318 1.54786 5.00227C1.4112 4.99142 1.28322 4.8591 1.25719 4.68774ZM1.67801 3.25825C1.57822 3.26041 1.49146 3.32983 1.46977 3.42744C1.43506 3.58145 1.4177 3.7333 1.40686 3.88297C1.37432 3.88731 1.34178 3.89599 1.30925 3.90683C1.28538 3.82223 1.26803 3.73763 1.26152 3.6487C1.30708 3.60965 1.36131 3.54241 1.36131 3.43612C1.36131 3.38189 1.34612 3.33851 1.3266 3.30163C1.34612 3.26692 1.36131 3.22137 1.36131 3.16714C1.36131 2.74849 1.39601 2.4166 1.56087 2.16498C1.74091 1.88732 2.09015 1.70728 2.39818 1.54893L2.43939 1.52724C2.73657 1.37323 3.04242 1.21704 3.36997 1.21054L3.85804 1.30815C3.87105 1.31032 3.88623 1.31249 3.90142 1.31249C4.2897 1.31249 4.65629 1.31249 4.94046 1.45782C5.23113 1.6075 5.43069 1.89166 5.64544 2.21921C5.84067 2.51855 6.00336 2.79187 6.02939 3.08905C5.98383 3.12809 5.92961 3.19534 5.92961 3.29946C5.92961 3.35369 5.94479 3.39707 5.96431 3.43395C5.94479 3.46866 5.92961 3.51421 5.92961 3.56844C5.92961 3.67473 5.92744 3.78102 5.92093 3.88731C5.90791 3.88514 5.89707 3.8808 5.88405 3.87863C5.87538 3.72896 5.85585 3.57712 5.82115 3.4231C5.79945 3.32549 5.71269 3.25608 5.6129 3.25391C4.93395 3.24306 3.92745 2.93504 3.48494 2.45782C3.40901 2.37756 3.30056 2.33634 3.19427 2.34285C3.08581 2.35153 2.98602 2.40576 2.92529 2.49686C2.61292 2.95239 2.35696 3.2474 1.67801 3.25825ZM1.83202 4.0565C1.83202 3.93286 1.84286 3.81139 1.86239 3.68557C2.57605 3.62484 2.91878 3.26258 3.23114 2.82224C3.75391 3.32983 4.70185 3.63134 5.43069 3.68557C5.45022 3.81139 5.46106 3.93503 5.46106 4.0565C5.46106 5.1758 4.66931 6.47514 3.64546 6.47514C2.6216 6.47514 1.83202 5.17363 1.83202 4.0565ZM4.20727 6.80486V7.08034C4.03157 7.10638 3.84068 7.11939 3.64546 7.11939C3.45023 7.11939 3.25934 7.10421 3.08364 7.08034V6.80486C3.26151 6.86993 3.45023 6.90681 3.64546 6.90681C3.84068 6.90681 4.0294 6.86993 4.20727 6.80486ZM1.18126 13.4122H0.838533C0.747428 13.4122 0.664999 13.3753 0.604262 13.3059C0.543524 13.2365 0.517494 13.1497 0.52834 13.0608L0.543524 12.9263H1.13137L1.1292 12.9567C1.12703 13.0152 1.14656 13.0738 1.18777 13.1172C1.18994 13.1193 1.19428 13.1215 1.19862 13.1237L1.18126 13.4122ZM3.03375 20.5662H1.00773C1.05545 20.3275 1.23766 20.1367 1.47193 20.0759C1.54786 20.1215 1.63462 20.1497 1.7279 20.1497H2.74091C2.80815 20.1497 2.86889 20.1345 2.92746 20.1106C2.99036 20.1583 3.03158 20.2299 3.03158 20.3145V20.5662H3.03375ZM3.64546 14.4426C3.30056 14.4426 3.02073 14.705 3.01205 15.0412L2.87323 19.4751C2.87323 19.6204 2.79514 19.7137 2.74091 19.7137H1.7279C1.67367 19.7137 1.59558 19.6204 1.59558 19.4751V13.7658L1.63245 13.1823H5.6628L5.6975 13.7528V19.4751C5.6975 19.6204 5.61941 19.7137 5.56518 19.7137H4.55217C4.49794 19.7137 4.41985 19.6204 4.41985 19.4685L4.28103 15.0412C4.27018 14.705 3.99036 14.4426 3.64546 14.4426ZM6.28318 20.5662H4.25933V20.3124C4.25933 20.2278 4.30272 20.1562 4.36346 20.1085C4.42202 20.1323 4.48493 20.1475 4.55 20.1475H5.56301C5.65629 20.1475 5.74305 20.1193 5.81898 20.0737C6.05325 20.1367 6.23546 20.3254 6.28318 20.5662ZM6.68882 13.3059C6.62808 13.3731 6.54565 13.4122 6.45455 13.4122H6.11182L6.09446 13.1237C6.09663 13.1215 6.10097 13.1193 6.10531 13.1172C6.14652 13.0738 6.16821 13.0152 6.16388 12.9567L6.15954 12.9263H6.74739L6.76257 13.0608C6.77559 13.1519 6.74956 13.2387 6.68882 13.3059ZM6.13785 12.4925L5.99685 9.88727C5.99034 9.76796 5.88839 9.67686 5.76909 9.68336C5.65412 9.68987 5.56518 9.78532 5.56518 9.90028C5.56518 9.90462 5.56301 9.90679 5.56301 9.91113L5.71486 12.7506H1.57606L1.7279 9.91113C1.7279 9.90679 1.72573 9.90462 1.72573 9.90028C1.72573 9.78532 1.63896 9.68987 1.52183 9.68336C1.40469 9.67686 1.30057 9.76796 1.29406 9.88727L1.15523 12.4925H0.461095L0.894932 8.75062C1.02942 8.07817 1.49363 7.51852 2.10751 7.28859C2.16173 7.26906 2.22247 7.2734 2.27887 7.30377C2.59991 7.46429 3.09665 7.5554 3.64762 7.5554C4.1986 7.5554 4.69534 7.46429 5.01638 7.30377C5.07495 7.27557 5.13568 7.26906 5.18774 7.29076C5.79945 7.51852 6.26366 8.076 6.39815 8.74194L6.83198 12.4925H6.13785Z" fill="#F65362"/>
    <path d="M4.54782 4.67691C4.68882 4.67691 4.79511 4.54676 4.79511 4.37539C4.79511 4.20403 4.68882 4.07388 4.54782 4.07388C4.40683 4.07388 4.30054 4.20403 4.30054 4.37539C4.30054 4.54676 4.40683 4.67691 4.54782 4.67691Z" fill="#F65362"/>
    <path d="M4.26359 5.34718C4.26359 5.25174 4.1855 5.17365 4.09006 5.17365C3.99461 5.17365 3.91652 5.25174 3.91652 5.34718C3.91652 5.3667 3.82542 5.44913 3.64754 5.44913C3.46967 5.44913 3.37856 5.3667 3.37856 5.34718C3.37856 5.25174 3.30047 5.17365 3.20503 5.17365C3.10958 5.17365 3.03149 5.25174 3.03149 5.34718C3.03149 5.5988 3.30264 5.7962 3.64754 5.7962C3.99244 5.7962 4.26359 5.5988 4.26359 5.34718Z" fill="#F65362"/>
    <path d="M2.74301 4.07168C2.60202 4.07168 2.49573 4.20183 2.49573 4.37319C2.49573 4.54456 2.60202 4.67471 2.74301 4.67471C2.88401 4.67471 2.9903 4.54456 2.9903 4.37319C2.9903 4.20183 2.88401 4.07168 2.74301 4.07168Z" fill="#F65362"/>
    <path d="M27.5973 15.7003L27.2819 13.044C27.2819 13.0384 27.28 13.0347 27.28 13.0292C27.1675 12.4721 26.7709 12.0073 26.2489 11.8173C26.1271 11.773 25.9925 11.7804 25.8707 11.8394C25.8504 11.8486 25.8283 11.8597 25.8025 11.8689V11.5922C26.0865 11.393 26.3153 11.0868 26.4647 10.74C26.4868 10.7455 26.509 10.7511 26.5311 10.7548C26.5514 10.7566 26.5735 10.7584 26.5938 10.7584C26.8631 10.7584 27.1011 10.5684 27.1509 10.3028C27.1767 10.1626 27.1454 10.0243 27.0605 9.91175L27.0587 9.9099C27.0937 9.79553 27.114 9.66825 27.114 9.52252V9.23291C27.114 8.28845 26.2895 7.51923 25.2749 7.51923H24.9078C23.8951 7.51923 23.0687 8.28845 23.0687 9.23291V9.52252C23.0687 9.66825 23.089 9.79553 23.124 9.9099L23.1222 9.91175C23.0392 10.0243 23.006 10.1626 23.0318 10.3028C23.0797 10.5684 23.3196 10.7584 23.5889 10.7584C23.6092 10.7584 23.6313 10.7566 23.6516 10.7548C23.6737 10.7529 23.6959 10.7455 23.718 10.74C23.8656 11.0868 24.0962 11.393 24.3802 11.5922V11.8689C24.3563 11.8597 24.3323 11.8505 24.312 11.8394C24.1902 11.7804 24.0574 11.7712 23.9338 11.8173C23.4099 12.0091 23.0152 12.474 22.9008 13.0458L22.5872 15.7003C22.5817 15.7519 22.5983 15.8054 22.6333 15.8442C22.6407 15.8534 22.6518 15.8571 22.6592 15.8645L22.6518 15.9216C22.6333 16.0766 22.6813 16.2315 22.7846 16.3478C22.8879 16.464 23.0355 16.5304 23.1904 16.5304H23.4339V19.9319C23.4339 19.9707 23.4395 20.0075 23.4468 20.0444C23.1646 20.1588 22.9654 20.4337 22.9654 20.7546C22.9654 20.8893 23.0742 20.9981 23.2089 20.9981H24.7621C24.8967 20.9981 25.0056 20.8893 25.0056 20.7546V20.4982C25.0056 20.3636 24.9521 20.24 24.8654 20.1496C24.8949 20.085 24.9133 20.0149 24.9133 19.9393L25.0037 17.1631C25.0056 17.128 25.0443 17.0985 25.0904 17.0985C25.1365 17.0985 25.1753 17.128 25.1771 17.1631L25.2675 19.9338C25.2675 20.0131 25.286 20.085 25.3155 20.1496C25.2288 20.2418 25.1753 20.3636 25.1753 20.5001V20.7565C25.1753 20.8911 25.2841 21 25.4188 21H26.972C27.1066 21 27.2155 20.8911 27.2155 20.7565C27.2155 20.4337 27.0144 20.1588 26.734 20.0444C26.7414 20.0075 26.7469 19.9707 26.7469 19.9319V16.5304H26.9904C27.1454 16.5304 27.2948 16.464 27.3962 16.3478C27.4995 16.2315 27.5475 16.0766 27.5291 15.9216L27.5217 15.8645C27.5309 15.8571 27.5401 15.8534 27.5475 15.8442C27.5881 15.8054 27.6047 15.7538 27.5973 15.7003ZM26.7894 10.2364C26.7728 10.3249 26.6824 10.3914 26.5864 10.3877C26.6123 10.2844 26.6307 10.1774 26.6418 10.0722C26.6473 10.0722 26.6528 10.0722 26.6584 10.0741C26.7045 10.0796 26.7432 10.0999 26.7672 10.1331C26.7801 10.1534 26.7967 10.1884 26.7894 10.2364ZM23.3952 10.2364C23.386 10.1884 23.4026 10.1534 23.4192 10.1313C23.4431 10.0981 23.4819 10.0778 23.528 10.0722C23.5335 10.0722 23.5391 10.0722 23.5446 10.0704C23.5557 10.1755 23.5741 10.2807 23.5999 10.3858C23.504 10.3932 23.4118 10.3268 23.3952 10.2364ZM23.5815 9.43029C23.5612 9.52252 23.5483 9.61476 23.5409 9.70699C23.5225 9.70699 23.504 9.70514 23.4856 9.70699C23.4745 9.70883 23.4653 9.71252 23.4542 9.71437C23.4431 9.65718 23.4358 9.59446 23.4358 9.52437V9.23291C23.4376 8.49136 24.098 7.88816 24.9078 7.88816H25.2749C26.0847 7.88816 26.7451 8.49136 26.7451 9.23291V9.52252C26.7451 9.59262 26.7377 9.65534 26.7266 9.71252C26.7156 9.71068 26.7063 9.70699 26.6953 9.70514C26.6768 9.7033 26.6584 9.70514 26.6418 9.70514C26.6344 9.61476 26.6215 9.52437 26.6012 9.42845C26.5828 9.34544 26.509 9.28641 26.4241 9.28456C25.9814 9.27718 25.5645 9.08534 25.3081 8.7699C25.2011 8.63893 24.9797 8.63893 24.8728 8.7699C24.6145 9.09087 24.2068 9.27903 23.7586 9.28641C23.6737 9.28825 23.5999 9.34728 23.5815 9.43029ZM23.9006 9.86378C23.9006 9.79184 23.9062 9.7199 23.9154 9.64796C24.3765 9.60553 24.7934 9.40631 25.0904 9.08349C25.3874 9.40446 25.8043 9.60553 26.2655 9.64796C26.2765 9.72175 26.2802 9.79369 26.2802 9.86378C26.2802 10.6865 25.701 11.4631 25.0886 11.4631C24.4798 11.4631 23.9006 10.6865 23.9006 9.86378ZM25.4354 11.7785V11.9519C25.3265 11.9648 25.2103 11.9722 25.0923 11.9722C24.9742 11.9722 24.858 11.9648 24.7492 11.9519V11.7785C24.8598 11.8117 24.9742 11.832 25.0923 11.832C25.2103 11.832 25.3247 11.8136 25.4354 11.7785ZM23.4468 16.1614H23.1904C23.1406 16.1614 23.0927 16.1411 23.0595 16.1024C23.0263 16.0637 23.0115 16.0157 23.017 15.9659L23.0244 15.9069H23.4634L23.4468 16.1614ZM24.6385 20.631H23.3546C23.4026 20.489 23.528 20.382 23.6793 20.3617C23.7309 20.3875 23.7863 20.4023 23.8453 20.4023H24.5038C24.5333 20.4023 24.561 20.3986 24.5887 20.3931C24.6182 20.4189 24.6403 20.4558 24.6403 20.5001V20.631H24.6385ZM25.0923 16.7259C24.8451 16.7259 24.644 16.9104 24.6366 17.1483L24.5463 19.9319C24.5463 19.9965 24.513 20.0315 24.5038 20.0334H23.8471C23.8361 20.0315 23.8047 19.9965 23.8047 19.9319V16.3551L23.849 15.6708H26.3374L26.3817 16.3441V19.9338C26.3817 19.9983 26.3485 20.0334 26.3393 20.0352H25.6826C25.6715 20.0334 25.6401 19.9983 25.6401 19.9282L25.5479 17.1483C25.5405 16.9122 25.3395 16.7259 25.0923 16.7259ZM26.8281 20.631H25.5442V20.4982C25.5442 20.4558 25.5645 20.4171 25.5959 20.3912C25.6235 20.3986 25.6512 20.4005 25.6807 20.4005H26.3393C26.3983 20.4005 26.4536 20.3857 26.5053 20.3599C26.6565 20.382 26.782 20.4872 26.8281 20.631ZM27.1232 16.1024C27.09 16.1411 27.0439 16.1614 26.9923 16.1614H26.7377L26.7211 15.9069H27.1601L27.1675 15.9659C27.173 16.0157 27.1564 16.0637 27.1232 16.1024ZM26.8244 15.5379C26.8299 15.5177 26.8355 15.4955 26.8336 15.4734L26.7211 13.8077C26.7137 13.7062 26.6252 13.6306 26.5256 13.6361C26.4278 13.6435 26.3559 13.7246 26.3559 13.8206C26.3559 13.8243 26.354 13.828 26.354 13.8335L26.4518 15.3018H23.7328L23.8305 13.8335C23.8305 13.8298 23.8287 13.8261 23.8287 13.8206C23.8287 13.7246 23.7567 13.6435 23.659 13.6361C23.5557 13.6306 23.469 13.7062 23.4634 13.8077L23.3509 15.4734C23.3491 15.4955 23.3528 15.5177 23.3601 15.5379H22.9783L23.2661 13.1048C23.3546 12.6732 23.659 12.3116 24.063 12.1641C24.0998 12.1512 24.1349 12.1641 24.1515 12.1714C24.3729 12.2803 24.716 12.3412 25.0923 12.3412C25.4686 12.3412 25.8135 12.2784 26.0349 12.1714C26.0533 12.1622 26.0884 12.1512 26.1234 12.1641C26.5256 12.3116 26.8281 12.6677 26.9185 13.0956L27.2081 15.5361H26.8244V15.5379Z" fill="#F65362"/>
    <path d="M24.6443 10.7382C24.6443 10.657 24.7107 10.5906 24.7919 10.5906C24.8712 10.5906 24.9357 10.6533 24.9394 10.7308C24.9413 10.7326 24.945 10.7363 24.9487 10.7382C24.9689 10.7548 25.0151 10.7769 25.0925 10.7769C25.1682 10.7769 25.2161 10.7529 25.2364 10.7382C25.242 10.7345 25.2456 10.7308 25.2475 10.7271C25.2475 10.6459 25.3121 10.585 25.3932 10.585C25.4744 10.585 25.5389 10.657 25.5389 10.7382C25.5389 10.9263 25.3416 11.072 25.0907 11.072C24.8398 11.072 24.6443 10.9263 24.6443 10.7382Z" fill="#F65362"/>
    <path d="M24.482 10.2844C24.386 10.2844 24.3141 10.1958 24.3141 10.0796C24.3141 9.96341 24.386 9.87486 24.482 9.87486C24.5779 9.87486 24.6498 9.96341 24.6498 10.0796C24.6498 10.1958 24.576 10.2844 24.482 10.2844Z" fill="#F65362"/>
    <path d="M25.5353 10.0796C25.5353 9.96341 25.6072 9.87486 25.7031 9.87486C25.7991 9.87486 25.871 9.96341 25.871 10.0796C25.871 10.1958 25.7991 10.2844 25.7031 10.2844C25.6072 10.2844 25.5353 10.1958 25.5353 10.0796Z" fill="#F65362"/>
    <path d="M24.8342 12.8706C24.8342 12.7285 24.9504 12.6123 25.0925 12.6123C25.2345 12.6123 25.3507 12.7285 25.3507 12.8706C25.3507 13.0126 25.2345 13.1288 25.0925 13.1288C24.9504 13.1288 24.8342 13.0145 24.8342 12.8706Z" fill="#F65362"/>
    <path d="M24.8342 13.6085C24.8342 13.4664 24.9504 13.3502 25.0925 13.3502C25.2345 13.3502 25.3507 13.4664 25.3507 13.6085C25.3507 13.6952 25.3083 13.7726 25.2419 13.8187C25.1995 13.8483 25.1478 13.8667 25.0925 13.8667C25.0371 13.8667 24.9855 13.8483 24.9431 13.8187C24.8767 13.7726 24.8342 13.697 24.8342 13.6085Z" fill="#F65362"/>
</svg>
