<svg width="165" height="60" viewBox="0 0 165 60" fill="none" xmlns="http://www.w3.org/2000/svg">
    <path fill-rule="evenodd" clip-rule="evenodd" d="M28.0787 27.6729C26.633 20.9693 23.1974 15.0946 18.458 10.6845C14.021 6.55341 8.44043 3.70188 2.27374 2.65302L2.29214 6.50512C8.37998 7.69348 13.7239 10.8401 17.7036 15.2582C21.6728 19.6602 24.2909 25.323 24.9507 31.5599H33.378C34.0377 25.323 36.6584 19.6602 40.6276 15.2582C44.6073 10.8401 49.9513 7.69348 56.0391 6.50512L56.0549 2.65302C49.8908 3.70188 44.3103 6.5534 39.8706 10.6818C35.1286 15.0946 31.6957 20.9693 30.2473 27.6702H28.0787V27.6729ZM54.0046 59.9893H37.2367L37.6126 59.1631L40.5908 59.5949L42.2232 57.7118L44.9175 59.3106L47.6118 57.3899L50.2168 59.6942L50.6032 59.4662V59.9866H52.8769V9.74829C48.771 11.1969 45.1541 13.654 42.2994 16.8248C38.4433 21.1007 35.9724 26.6696 35.5466 32.8019L35.473 33.8749H34.9788H34.4136H23.915H23.3604H22.8583L22.7847 32.8019C22.3615 26.6723 19.8932 21.1007 16.0371 16.8248C13.1824 13.654 9.56547 11.1995 5.4596 9.74829V59.9839H7.72808V13.2356C7.86214 13.3053 7.99883 13.3804 8.13026 13.4529C10.4723 14.7297 12.5805 16.4063 14.3706 18.3914C16.1475 20.3657 17.6064 22.6459 18.6604 25.146C19.6882 27.579 20.3322 30.2133 20.5241 32.9655L20.5951 34.0305L20.7449 36.198H22.8583H23.3604H23.915H34.411H34.9761H35.4703H37.5811L37.7309 34.0439L37.8098 32.9655C37.999 30.2133 38.643 27.579 39.6682 25.146C40.7275 22.6459 42.1785 20.3684 43.9581 18.3914C45.7508 16.4063 47.8537 14.7297 50.1984 13.4529C50.3351 13.3804 50.4665 13.308 50.6032 13.2383V43.0438C48.9656 42.4965 47.2228 42.2068 45.4196 42.2068C41.9051 42.2068 38.6352 43.3201 35.8883 45.2461C35.8331 45.2837 35.8725 45.3186 35.9172 45.2944C38.6877 43.5991 41.9446 43.1216 45.4196 43.1216C47.2202 43.1216 48.9603 43.245 50.6032 43.6071V44.7069L47.8195 43.8539L44.4838 44.5004L41.3505 44.3958L38.7298 45.3561L37.2341 45.4017C36.9029 45.4124 33.4594 47.258 31.0359 49.5221C30.9491 49.6025 31.049 49.7072 31.1463 49.632C31.6168 49.2806 32.2634 48.8327 33.0888 48.323C35.126 47.081 36.5139 46.4103 36.5139 46.4103L38.7587 46.4157C38.7587 46.4157 41.0692 45.4822 41.3505 45.3534C41.6318 45.2273 44.4838 45.5251 44.4838 45.5251L47.8195 44.7794L50.6032 45.6163V47.7114L47.6749 46.3004L44.4181 47.6443L41.7868 46.81L38.9664 48.5376L35.7726 48.3444L33.1992 50.7104L31.191 50.7533C29.3483 52.5238 28.0656 54.4794 27.0982 56.4671C27.0194 56.5986 27.1824 56.7944 27.3322 56.5637C28.2811 55.1044 29.6506 53.2213 30.6942 52.3736L33.1388 52.5023L35.331 50.0103L38.2172 50.3939L41.4714 48.4759L44.4181 49.3101L47.6749 47.9662L50.6032 49.5435V52.6445L47.8353 50.5253L44.5732 52.5426L41.4714 51.0377L38.6798 53.2696L35.7358 52.446L33.4962 55.3458L31.2514 54.8764L29.7163 58.2L27.7449 58.0739L26.9615 60H26.3097H4.32405V59.9973H3.19375V9.06961C2.47088 8.8872 1.74013 8.73698 0.996239 8.61895L0.0394291 8.46873L0.0368005 7.48424L0.00525732 1.31444L0 0L1.27487 0.163634C8.42203 1.08106 14.9015 4.24375 19.9852 8.97304C24.0832 12.7903 27.2717 17.6269 29.1643 23.126C31.0595 17.6242 34.2454 12.7903 38.346 8.97304C43.4245 4.24375 49.904 1.08106 57.0538 0.163634L58.3313 0L58.3234 1.31444L58.2945 7.47888L58.2892 8.46336L57.335 8.61358C56.5911 8.7343 55.8604 8.88183 55.1349 9.06425V59.9812H54.002V59.9893H54.0046ZM50.5979 57.5213V54.8791L47.7327 52.6633L44.5995 54.8335L41.5897 53.3017L39.0873 55.7267L36.2037 54.8335L33.9773 57.6662L31.7509 57.1377L30.5391 59.9893H32.0216H32.4842L32.6472 59.3428L35.4624 59.6379L36.8635 57.1056L40.0309 57.7762L42.0024 55.6329L44.978 57.3282L47.8326 55.2493L50.5585 57.5482L50.5979 57.5213ZM42.0418 41.3082V41.3162V41.3216C42.0471 41.4477 42.0839 41.5711 42.147 41.6837C43.2115 41.4906 44.305 41.386 45.4143 41.386C46.6366 41.386 47.8247 41.5067 48.9892 41.7481C48.9945 41.7267 49.0102 41.7079 49.0208 41.6864L49.0286 41.6784V41.673V41.6703H49.0313L49.0418 41.6462L49.0602 41.6086L49.0654 41.5979V41.5925V41.5872L49.0707 41.5791L49.076 41.5657L49.0812 41.555V41.5523V41.5496H49.0865V41.5416L49.0917 41.5308V41.5281V41.5228L49.0944 41.5174V41.5147V41.512V41.5094V41.5013V41.4986L49.0996 41.496V41.4933V41.4879L49.1049 41.4772L49.1101 41.4745V41.4691V41.4664V41.4611L49.1128 41.4557V41.4504V41.445V41.4423V41.4343V41.4316V41.4289L49.1154 41.4235V41.4182V41.4128V41.4101V41.4074V41.3994L49.1206 41.394V41.386V41.3833V41.3779V41.3726V41.3699V41.3618L49.1259 41.3591V41.3565V41.3511V41.343V41.3377V41.3323V41.327V41.3243V41.3189V41.3135V41.3082V41.3055C49.1259 40.042 47.4725 40.5222 47.5251 39.248V39.2131C47.5251 38.7383 46.6576 38.3574 45.5852 38.3574C44.5075 38.3574 43.6426 38.7383 43.6426 39.2131V39.248C43.7005 40.5249 42.0418 40.042 42.0418 41.3082ZM46.1819 33.0809C46.5052 33.4752 46.818 33.899 46.818 34.1914C46.818 34.8862 46.2187 33.9688 45.5379 33.9688C44.8571 33.9688 44.3497 34.8862 44.3497 34.1914C44.3497 33.899 44.6625 33.4779 44.9885 33.0809L45.0437 31.1146C45.0489 31.0287 45.091 30.9831 45.162 30.9697H46.0057C46.0741 30.9751 46.1135 31.0127 46.1214 31.0931L46.1819 33.0809ZM46.1004 30.2267C46.103 30.334 46.0425 30.3608 45.9979 30.3608H45.1935C45.1094 30.3554 45.0595 30.3125 45.0673 30.2186C45.1225 28.3516 45.1699 26.4846 45.2303 24.6202C45.2382 24.58 45.2619 24.5558 45.3092 24.5558H45.8769C45.9243 24.5585 45.9453 24.58 45.9453 24.6202C45.9979 26.4872 46.0531 28.3596 46.1004 30.2267ZM45.919 23.8369C45.9243 23.9308 45.8796 23.9415 45.8375 23.9415H45.3171C45.275 23.9362 45.2461 23.904 45.2487 23.8396C45.254 23.6947 45.2592 23.5499 45.2592 23.4077C45.2724 23.3272 45.3065 23.2736 45.3907 23.2709H45.7902C45.8664 23.2709 45.8954 23.3165 45.9032 23.3943C45.9111 23.5418 45.9164 23.6867 45.919 23.8369ZM45.8822 22.5708C45.8875 22.6298 45.8612 22.662 45.8139 22.662H45.346C45.3039 22.6566 45.275 22.6298 45.2855 22.5708C45.2908 22.3964 45.296 22.2167 45.3039 22.0423C45.3118 21.6587 45.3407 21.3448 45.5825 21.3448C45.827 21.3448 45.8586 21.6587 45.8691 22.0423L45.8822 22.5708ZM45.5878 37.4775C46.6156 37.4775 47.4462 37.955 47.4462 36.9035C47.4462 35.8546 45.9532 35.0042 45.5878 35.0042C45.2145 35.0042 43.7268 35.8546 43.7268 36.9035C43.7268 37.955 44.5548 37.4775 45.5878 37.4775Z" fill="#FF0000"/>
    <path d="M75.5731 33.2011C76.82 33.2011 77.9062 33.4251 78.8317 33.8731C79.7573 34.3211 80.4707 34.9651 80.972 35.8051C81.4733 36.6451 81.724 37.6251 81.724 38.7451C81.724 39.8651 81.4733 40.8451 80.972 41.6851C80.4707 42.5251 79.7573 43.1691 78.8317 43.6171C77.9062 44.0651 76.82 44.2891 75.5731 44.2891H73.6257V47.9011H69.0752V33.2011H75.5731ZM75.2839 40.4671C75.9009 40.4671 76.3637 40.3201 76.6722 40.0261C76.9807 39.7181 77.135 39.2911 77.135 38.7451C77.135 38.1991 76.9807 37.7791 76.6722 37.4851C76.3637 37.1771 75.9009 37.0231 75.2839 37.0231H73.6257V40.4671H75.2839Z" fill="#FF0000"/>
    <path d="M91.8087 48.2371C90.3562 48.2371 89.0514 47.9081 87.8945 47.2501C86.7376 46.5921 85.8314 45.6821 85.1758 44.5201C84.5202 43.3441 84.1924 42.0211 84.1924 40.5511C84.1924 39.0811 84.5202 37.7651 85.1758 36.6031C85.8314 35.4271 86.7376 34.5101 87.8945 33.8521C89.0514 33.1941 90.3562 32.8651 91.8087 32.8651C93.2613 32.8651 94.566 33.1941 95.7229 33.8521C96.8798 34.5101 97.786 35.4271 98.4416 36.6031C99.0972 37.7651 99.425 39.0811 99.425 40.5511C99.425 42.0211 99.0972 43.3441 98.4416 44.5201C97.786 45.6821 96.8798 46.5921 95.7229 47.2501C94.566 47.9081 93.2613 48.2371 91.8087 48.2371ZM91.8087 44.2261C92.3743 44.2261 92.8821 44.0791 93.332 43.7851C93.7947 43.4771 94.1611 43.0501 94.431 42.5041C94.701 41.9441 94.8359 41.2931 94.8359 40.5511C94.8359 39.8091 94.701 39.1651 94.431 38.6191C94.1611 38.0591 93.7947 37.6321 93.332 37.3381C92.8821 37.0301 92.3743 36.8761 91.8087 36.8761C91.2431 36.8761 90.7289 37.0301 90.2662 37.3381C89.8163 37.6321 89.4563 38.0591 89.1864 38.6191C88.9165 39.1651 88.7815 39.8091 88.7815 40.5511C88.7815 41.2931 88.9165 41.9441 89.1864 42.5041C89.4563 43.0501 89.8163 43.4771 90.2662 43.7851C90.7289 44.0791 91.2431 44.2261 91.8087 44.2261Z" fill="#FF0000"/>
    <path d="M109.503 48.2371C108.076 48.2371 106.79 47.9151 105.646 47.2711C104.502 46.6131 103.602 45.7031 102.947 44.5411C102.304 43.3651 101.983 42.0351 101.983 40.5511C101.983 39.0671 102.304 37.7441 102.947 36.5821C103.602 35.4061 104.502 34.4961 105.646 33.8521C106.79 33.1941 108.076 32.8651 109.503 32.8651C110.814 32.8651 111.984 33.1171 113.012 33.6211C114.04 34.1251 114.889 34.8531 115.557 35.8051L112.684 38.5981C111.849 37.4501 110.865 36.8761 109.734 36.8761C108.783 36.8761 108.018 37.2121 107.439 37.8841C106.861 38.5421 106.572 39.4311 106.572 40.5511C106.572 41.6711 106.861 42.5671 107.439 43.2391C108.018 43.8971 108.783 44.2261 109.734 44.2261C110.865 44.2261 111.849 43.6521 112.684 42.5041L115.557 45.2971C114.889 46.2491 114.04 46.9771 113.012 47.4811C111.984 47.9851 110.814 48.2371 109.503 48.2371Z" fill="#FF0000"/>
    <path d="M125.089 48.2371C123.663 48.2371 122.377 47.9151 121.233 47.2711C120.089 46.6131 119.189 45.7031 118.534 44.5411C117.891 43.3651 117.57 42.0351 117.57 40.5511C117.57 39.0671 117.891 37.7441 118.534 36.5821C119.189 35.4061 120.089 34.4961 121.233 33.8521C122.377 33.1941 123.663 32.8651 125.089 32.8651C126.401 32.8651 127.57 33.1171 128.599 33.6211C129.627 34.1251 130.475 34.8531 131.144 35.8051L128.271 38.5981C127.435 37.4501 126.452 36.8761 125.321 36.8761C124.37 36.8761 123.605 37.2121 123.026 37.8841C122.448 38.5421 122.159 39.4311 122.159 40.5511C122.159 41.6711 122.448 42.5671 123.026 43.2391C123.605 43.8971 124.37 44.2261 125.321 44.2261C126.452 44.2261 127.435 43.6521 128.271 42.5041L131.144 45.2971C130.475 46.2491 129.627 46.9771 128.599 47.4811C127.57 47.9851 126.401 48.2371 125.089 48.2371Z" fill="#FF0000"/>
    <path d="M134.171 33.2011H138.645V40.8451L143.292 33.2011H147.572V47.9011H143.099V40.2781L138.471 47.9011H134.171V33.2011Z" fill="#FF0000"/>
    <path d="M163.461 33.2011V47.9011H158.988V44.4151H157.773L155.71 47.9011H150.948L153.608 43.7011C152.734 43.2531 152.059 42.6231 151.584 41.8111C151.121 40.9851 150.89 40.0121 150.89 38.8921C150.89 37.7301 151.14 36.7221 151.642 35.8681C152.156 35.0141 152.882 34.3561 153.82 33.8941C154.759 33.4321 155.864 33.2011 157.137 33.2011H163.461ZM157.214 37.0231C156.057 37.0231 155.479 37.6181 155.479 38.8081C155.479 40.0541 156.057 40.6771 157.214 40.6771H158.988V37.0231H157.214Z" fill="#FF0000"/>
    <path d="M79.9927 25.4474L79.9575 19.3226L77.2779 24.2378H75.4445L72.7648 19.5338V25.4474H68.9746V12.0074H72.3946L76.414 19.169L80.3277 12.0074H83.7477L83.783 25.4474H79.9927Z" fill="#FF0000"/>
    <path d="M93.8781 25.7546C92.55 25.7546 91.3571 25.4538 90.2994 24.8522C89.2416 24.2506 88.4131 23.4186 87.8137 22.3562C87.2143 21.281 86.9146 20.0714 86.9146 18.7274C86.9146 17.3834 87.2143 16.1802 87.8137 15.1178C88.4131 14.0426 89.2416 13.2042 90.2994 12.6026C91.3571 12.001 92.55 11.7002 93.8781 11.7002C95.2061 11.7002 96.399 12.001 97.4567 12.6026C98.5145 13.2042 99.343 14.0426 99.9424 15.1178C100.542 16.1802 100.842 17.3834 100.842 18.7274C100.842 20.0714 100.542 21.281 99.9424 22.3562C99.343 23.4186 98.5145 24.2506 97.4567 24.8522C96.399 25.4538 95.2061 25.7546 93.8781 25.7546ZM93.8781 22.0874C94.3952 22.0874 94.8594 21.953 95.2707 21.6842C95.6938 21.4026 96.0288 21.0122 96.2756 20.513C96.5224 20.001 96.6458 19.4058 96.6458 18.7274C96.6458 18.049 96.5224 17.4602 96.2756 16.961C96.0288 16.449 95.6938 16.0586 95.2707 15.7898C94.8594 15.5082 94.3952 15.3674 93.8781 15.3674C93.3609 15.3674 92.8908 15.5082 92.4677 15.7898C92.0564 16.0586 91.7273 16.449 91.4805 16.961C91.2337 17.4602 91.1103 18.049 91.1103 18.7274C91.1103 19.4058 91.2337 20.001 91.4805 20.513C91.7273 21.0122 92.0564 21.4026 92.4677 21.6842C92.8908 21.953 93.3609 22.0874 93.8781 22.0874Z" fill="#FF0000"/>
    <path d="M110.197 25.7546C108.892 25.7546 107.717 25.4602 106.671 24.8714C105.625 24.2698 104.803 23.4378 104.203 22.3754C103.616 21.3002 103.322 20.0842 103.322 18.7274C103.322 17.3706 103.616 16.161 104.203 15.0986C104.803 14.0234 105.625 13.1914 106.671 12.6026C107.717 12.001 108.892 11.7002 110.197 11.7002C111.396 11.7002 112.465 11.9306 113.405 12.3914C114.346 12.8522 115.121 13.5178 115.733 14.3882L113.106 16.9418C112.342 15.8922 111.443 15.3674 110.409 15.3674C109.539 15.3674 108.84 15.6746 108.311 16.289C107.782 16.8906 107.517 17.7034 107.517 18.7274C107.517 19.7514 107.782 20.5706 108.311 21.185C108.84 21.7866 109.539 22.0874 110.409 22.0874C111.443 22.0874 112.342 21.5626 113.106 20.513L115.733 23.0666C115.121 23.937 114.346 24.6026 113.405 25.0634C112.465 25.5242 111.396 25.7546 110.197 25.7546Z" fill="#FF0000"/>
    <path d="M136.087 15.521H132.473V25.4474H128.383V15.521H124.769V12.0074H136.087V15.521Z" fill="#FF0000"/>
    <path d="M150.918 12.0074L145.965 22.1258C145.377 23.329 144.654 24.2442 143.796 24.8714C142.95 25.4986 142.016 25.8122 140.993 25.8122C140.206 25.8122 139.407 25.633 138.596 25.2746L139.565 22.0106C140.083 22.1642 140.506 22.241 140.835 22.241C141.14 22.241 141.399 22.1834 141.61 22.0682C141.834 21.953 142.045 21.761 142.245 21.4922L137.52 12.0074H141.91L144.36 17.6714L146.899 12.0074H150.918Z" fill="#FF0000"/>
    <path d="M159.376 12.0074C160.516 12.0074 161.51 12.2122 162.356 12.6218C163.202 13.0314 163.854 13.6202 164.313 14.3882C164.771 15.1562 165 16.0522 165 17.0762C165 18.1002 164.771 18.9962 164.313 19.7642C163.854 20.5322 163.202 21.121 162.356 21.5306C161.51 21.9402 160.516 22.145 159.376 22.145H157.596V25.4474H153.435V12.0074H159.376ZM159.112 18.6506C159.676 18.6506 160.099 18.5162 160.381 18.2474C160.663 17.9658 160.804 17.5754 160.804 17.0762C160.804 16.577 160.663 16.193 160.381 15.9242C160.099 15.6426 159.676 15.5018 159.112 15.5018H157.596V18.6506H159.112Z" fill="#FF0000"/>
    <path d="M122.887 18.9652C122.887 20.0994 122.043 21.0188 121.001 21.0188C119.96 21.0188 119.116 20.0994 119.116 18.9652C119.116 17.8311 119.96 16.9116 121.001 16.9116C122.043 16.9116 122.887 17.8311 122.887 18.9652Z" fill="#FF0000"/>
</svg>
