<svg width="34" height="35" viewBox="0 0 34 35" fill="none" xmlns="http://www.w3.org/2000/svg">
    <path fill-rule="evenodd" clip-rule="evenodd" d="M16.3665 15.8057C15.5238 11.9768 13.5212 8.62142 10.7588 6.10256C8.1725 3.74305 4.91974 2.11437 1.32531 1.5153L1.33604 3.71547C4.8845 4.39421 7.99937 6.19143 10.319 8.71488C12.6326 11.2291 14.1586 14.4635 14.5432 18.0258H19.4553C19.8398 14.4635 21.3674 11.2291 23.681 8.71488C26.0006 6.19143 29.1155 4.39421 32.664 3.71547L32.6732 1.5153C29.0803 2.11437 25.8275 3.74305 23.2397 6.10103C20.4757 8.62142 18.4747 11.9768 17.6305 15.8042H16.3665V15.8057ZM31.4781 34.2635H21.7045L21.9236 33.7916L23.6595 34.0383L24.611 32.9627L26.1814 33.8759L27.7519 32.7789L29.2702 34.095L29.4955 33.9648V34.262H30.8208V5.56784C28.4276 6.39521 26.3193 7.79866 24.6554 9.60966C22.4077 12.0519 20.9675 15.2327 20.7193 18.7352L20.6764 19.348H20.3884H20.0589H13.9395H13.6162H13.3236L13.2807 18.7352C13.034 15.2342 11.5953 12.0519 9.34766 9.60966C7.68375 7.79866 5.5755 6.39674 3.18228 5.56784V34.2605H4.50453V7.55964C4.58267 7.59948 4.66234 7.64238 4.73895 7.68375C6.1041 8.41305 7.33288 9.37065 8.37628 10.5044C9.41201 11.6321 10.2624 12.9344 10.8768 14.3624C11.4758 15.7521 11.8512 17.2566 11.963 18.8286L12.0044 19.4369L12.0917 20.6749H13.3236H13.6162H13.9395H20.0574H20.3868H20.6749H21.9052L21.9925 19.4446L22.0385 18.8286C22.1488 17.2566 22.5242 15.7521 23.1217 14.3624C23.7392 12.9344 24.5849 11.6336 25.6222 10.5044C26.6671 9.37065 27.8928 8.41305 29.2595 7.68375C29.3392 7.64238 29.4158 7.60101 29.4955 7.56117V24.5849C28.5409 24.2724 27.5251 24.1069 26.4741 24.1069C24.4256 24.1069 22.5196 24.7427 20.9185 25.8428C20.8863 25.8643 20.9093 25.8842 20.9353 25.8704C22.5502 24.9021 24.4486 24.6294 26.4741 24.6294C27.5236 24.6294 28.5379 24.6998 29.4955 24.9067V25.5349L27.8729 25.0476L25.9286 25.4169L24.1023 25.3571L22.5747 25.9056L21.7029 25.9317C21.5099 25.9378 19.5028 26.9919 18.0901 28.2851C18.0396 28.331 18.0978 28.3908 18.1545 28.3479C18.4287 28.1472 18.8056 27.8913 19.2867 27.6002C20.4742 26.8908 21.2831 26.5078 21.2831 26.5078L22.5916 26.5108C22.5916 26.5108 23.9384 25.9777 24.1023 25.9041C24.2662 25.8321 25.9286 26.0022 25.9286 26.0022L27.8729 25.5762L29.4955 26.0543V27.2509L27.7887 26.445L25.8903 27.2126L24.3566 26.7361L22.7126 27.7228L20.8511 27.6125L19.3511 28.9638L18.1805 28.9883C17.1065 29.9995 16.3588 31.1165 15.795 32.2518C15.749 32.3269 15.844 32.4387 15.9313 32.307C16.4844 31.4735 17.2827 30.3979 17.8909 29.9138L19.3158 29.9873L20.5937 28.5639L22.276 28.783L24.1728 27.6875L25.8903 28.164L27.7887 27.3964L29.4955 28.2973V30.0685L27.8821 28.8581L25.9807 30.0103L24.1728 29.1507L22.5456 30.4255L20.8296 29.9551L19.5242 31.6114L18.2158 31.3433L17.321 33.2416L16.1719 33.1696L15.7153 34.2697H15.3353H2.52039V34.2681H1.86157V5.18021C1.44022 5.07602 1.01428 4.99022 0.580686 4.92281L0.0229824 4.83701L0.0214502 4.27471L0.00306438 0.750755L0 0L0.743094 0.0934613C4.90902 0.617458 8.68577 2.42387 11.649 5.12505C14.0376 7.3053 15.8961 10.0678 16.9992 13.2087C18.1039 10.0662 19.9609 7.3053 22.351 5.12505C25.3112 2.42387 29.0879 0.617458 33.2554 0.0934613L34 0L33.9954 0.750755L33.9785 4.27164L33.9755 4.83394L33.4193 4.91974C32.9857 4.98869 32.5598 5.07296 32.1369 5.17714V34.2589H31.4765V34.2635H31.4781ZM29.4924 32.854V31.3448L27.8224 30.0792L25.996 31.3187L24.2417 30.4439L22.7831 31.8289L21.1023 31.3187L19.8046 32.9367L18.5069 32.6349L17.8005 34.2635H18.6647H18.9343L19.0293 33.8943L20.6703 34.0628L21.4869 32.6165L23.3332 32.9995L24.4823 31.7753L26.2167 32.7436L27.8806 31.5562L29.4694 32.8693L29.4924 32.854ZM24.5052 23.5936V23.5982V23.6013C24.5083 23.6733 24.5298 23.7438 24.5665 23.8081C25.1871 23.6978 25.8244 23.6381 26.471 23.6381C27.1834 23.6381 27.876 23.707 28.5547 23.8449C28.5578 23.8326 28.567 23.8219 28.5731 23.8097L28.5777 23.8051V23.802V23.8005H28.5792L28.5854 23.7867L28.5961 23.7652L28.5992 23.7591V23.756V23.753L28.6022 23.7484L28.6053 23.7407L28.6084 23.7346V23.733V23.7315H28.6114V23.7269L28.6145 23.7208V23.7193V23.7162L28.616 23.7131V23.7116V23.7101V23.7085V23.7039V23.7024L28.6191 23.7009V23.6993V23.6963L28.6221 23.6901L28.6252 23.6886V23.6855V23.684V23.681L28.6267 23.6779V23.6748V23.6718V23.6702V23.6656V23.6641V23.6626L28.6283 23.6595V23.6564V23.6534V23.6518V23.6503V23.6457L28.6313 23.6426V23.6381V23.6365V23.6335V23.6304V23.6289V23.6243L28.6344 23.6227V23.6212V23.6181V23.6135V23.6105V23.6074V23.6043V23.6028V23.5997V23.5967V23.5936V23.5921C28.6344 22.8704 27.6707 23.1447 27.7013 22.4169V22.397C27.7013 22.1258 27.1957 21.9083 26.5706 21.9083C25.9424 21.9083 25.4383 22.1258 25.4383 22.397V22.4169C25.472 23.1462 24.5052 22.8704 24.5052 23.5936ZM26.9184 18.8945C27.1068 19.1197 27.2892 19.3618 27.2892 19.5288C27.2892 19.9256 26.9398 19.4016 26.543 19.4016C26.1462 19.4016 25.8505 19.9256 25.8505 19.5288C25.8505 19.3618 26.0328 19.1213 26.2228 18.8945L26.255 17.7714C26.258 17.7224 26.2825 17.6964 26.3239 17.6887H26.8157C26.8556 17.6918 26.8786 17.7132 26.8831 17.7592L26.9184 18.8945ZM26.8709 17.2643C26.8724 17.3256 26.8372 17.3409 26.8111 17.3409H26.3423C26.2933 17.3378 26.2642 17.3133 26.2688 17.2597C26.3009 16.1933 26.3285 15.1269 26.3638 14.0621C26.3683 14.0391 26.3821 14.0253 26.4097 14.0253H26.7407C26.7682 14.0269 26.7805 14.0391 26.7805 14.0621C26.8111 15.1285 26.8433 16.1979 26.8709 17.2643ZM26.7652 13.6147C26.7682 13.6683 26.7422 13.6745 26.7177 13.6745H26.4143C26.3898 13.6714 26.3729 13.653 26.3745 13.6162C26.3775 13.5335 26.3806 13.4508 26.3806 13.3696C26.3883 13.3236 26.4082 13.293 26.4572 13.2914H26.6901C26.7345 13.2914 26.7514 13.3175 26.756 13.3619C26.7606 13.4462 26.7636 13.5289 26.7652 13.6147ZM26.7437 12.8915C26.7468 12.9252 26.7315 12.9436 26.7039 12.9436H26.4312C26.4067 12.9406 26.3898 12.9252 26.3959 12.8915C26.399 12.7919 26.4021 12.6893 26.4067 12.5897C26.4112 12.3706 26.4281 12.1913 26.5691 12.1913C26.7115 12.1913 26.7299 12.3706 26.7361 12.5897L26.7437 12.8915ZM26.5721 21.4057C27.1712 21.4057 27.6554 21.6784 27.6554 21.0778C27.6554 20.4788 26.7851 19.9931 26.5721 19.9931C26.3546 19.9931 25.4874 20.4788 25.4874 21.0778C25.4874 21.6784 25.97 21.4057 26.5721 21.4057Z" fill="#F67E8A"/>
</svg>
