<svg width="61" height="18" viewBox="0 0 61 18" fill="none" xmlns="http://www.w3.org/2000/svg">
    <g clip-path="url(#clip0)">
        <path fill-rule="evenodd" clip-rule="evenodd" d="M0.94458 0.693001C2.76026 0.698193 4.57421 0.694732 6.39163 0.693001C7.2473 0.682617 8.10297 1.12047 8.56906 1.83697C9.00385 2.44962 9.16907 3.19207 9.38299 3.89991C10.0404 6.10303 10.6874 8.30962 11.3465 10.5127C11.3569 10.7118 11.6543 10.7879 11.7117 10.5768C12.3848 8.35289 13.0335 6.12207 13.7013 3.89645C13.9309 3.11246 14.1274 2.27828 14.6613 1.63448C15.004 1.21739 15.484 0.919717 16.0075 0.781265C16.4527 0.658388 16.917 0.705116 17.3727 0.698193C18.9658 0.703385 20.5606 0.684348 22.1554 0.708577C22.145 6.24149 22.1606 11.7761 22.1467 17.309C20.4232 17.2987 18.6979 17.3246 16.9727 17.2952C16.9727 14.0485 16.9796 10.8035 16.9692 7.55679C16.9588 7.26777 16.4788 7.29199 16.4457 7.56371C15.4196 10.807 14.3848 14.0467 13.3744 17.2935C12.157 17.3211 10.9378 17.2987 9.71865 17.3038C8.69428 14.0606 7.67687 10.8156 6.64033 7.57755C6.59685 7.3093 6.27859 7.30065 6.10815 7.45641C6.11163 10.736 6.10467 14.0156 6.11163 17.2952C4.38812 17.3177 2.66635 17.2969 0.94458 17.3056C0.94458 11.7675 0.94458 6.2311 0.94458 0.693001ZM24.5085 0.703385C26.2285 0.677425 27.952 0.71723 29.672 0.682617C29.6999 3.9674 29.6755 7.25392 29.6842 10.5387C29.8321 10.6702 30.1016 10.71 30.1921 10.4937C31.3382 8.10367 32.4791 5.71017 33.6234 3.32014C33.9869 2.57769 34.2808 1.77293 34.8721 1.17239C35.1365 0.923178 35.4669 0.682617 35.8495 0.698193C37.6044 0.698193 39.3592 0.687809 41.114 0.703385C41.1157 6.23456 41.1157 11.7657 41.114 17.2969C39.3922 17.3108 37.6704 17.309 35.9469 17.2969C35.9469 14.0208 35.9539 10.7429 35.9435 7.46679C35.94 7.18469 35.46 7.20892 35.4113 7.4616C34.3313 9.8326 33.2565 12.2053 32.1782 14.5746C31.846 15.2945 31.5312 16.0353 31.0355 16.6618C30.759 17.0114 30.3573 17.3246 29.8877 17.3038C28.0946 17.3038 26.2998 17.3056 24.5067 17.3021C24.5102 11.7692 24.512 6.23629 24.5085 0.703385ZM43.634 8.28366C49.0428 8.24732 54.4516 8.28366 59.8604 8.26635C59.6778 9.00707 59.1961 9.64569 58.6865 10.203C57.6795 11.2898 56.2343 11.9527 54.7473 11.9925C52.7716 12.0028 50.7959 11.9907 48.8202 11.9976C48.808 13.7681 48.8202 15.5368 48.815 17.3073C47.0915 17.3004 45.368 17.3125 43.6427 17.3004C43.634 14.2942 43.6497 11.2898 43.634 8.28366Z" fill="white"/>
        <path fill-rule="evenodd" clip-rule="evenodd" d="M42.9768 0.703417C47.0169 0.698225 51.0587 0.694764 55.0988 0.699956C56.1596 0.776105 57.1823 1.20358 58.0223 1.84565C59.2414 2.79059 60.0641 4.24088 60.1997 5.77597C60.231 6.32978 60.2206 6.88705 60.1371 7.43567C57.6605 7.44952 55.1857 7.43567 52.7092 7.43913C51.8587 7.43221 51.0048 7.47374 50.1613 7.34914C48.2604 7.10858 46.3856 6.32113 45.0377 4.94006C43.902 3.80648 43.2012 2.27831 42.9768 0.703417Z" fill="white"/>
    </g>
    <defs>
        <clipPath id="clip0">
            <rect width="59.2706" height="16.6247" fill="white" transform="translate(0.94458 0.682617)"/>
        </clipPath>
    </defs>
</svg>
