<svg width="35" height="36" viewBox="0 0 35 36" fill="none" xmlns="http://www.w3.org/2000/svg">
    <path fill-rule="evenodd" clip-rule="evenodd" d="M7.3335 23C7.3335 23.5523 7.78121 24 8.3335 24C8.88578 24 9.3335 23.5523 9.3335 23V19H13.3335C13.8858 19 14.3335 18.5523 14.3335 18C14.3335 17.4477 13.8858 17 13.3335 17H9.3335V13C9.3335 12.4477 8.88578 12 8.3335 12C7.78121 12 7.3335 12.4477 7.3335 13V17H3.3335C2.78121 17 2.3335 17.4477 2.3335 18C2.3335 18.5523 2.78121 19 3.3335 19H7.3335V23Z" fill="#F65362"/>
    <path d="M33.4813 21.1937L32.5807 14.0687C32.5807 14.0571 32.5765 14.0493 32.5765 14.0378C32.2608 12.5818 31.154 11.3654 29.6936 10.8633C29.3695 10.7513 29.0118 10.7707 28.6919 10.9213C28.5909 10.9676 28.4731 11.0062 28.3468 11.0448V10.3304C29.117 9.84767 29.7483 9.1062 30.1734 8.2566C30.2112 8.26432 30.2491 8.27591 30.287 8.27977C30.3417 8.28749 30.3964 8.28749 30.4511 8.28749C31.1413 8.28749 31.7642 7.77001 31.8821 7.07101C31.9452 6.69256 31.8484 6.31023 31.6211 6.01673C31.6674 5.71165 31.6843 5.40657 31.6885 5.11307C31.7768 5.04355 31.8863 4.92384 31.8863 4.73074C31.8863 4.6342 31.8568 4.55696 31.8189 4.49131C31.8568 4.42952 31.8863 4.34842 31.8863 4.25188C31.8863 3.45634 31.4654 2.80369 30.9983 2.14332C30.6279 1.62197 30.1186 0.903669 29.3106 0.521347C28.5909 0.181506 27.7576 0.173782 26.9495 0.173782L25.9984 0C25.9689 0.00386183 25.9395 0 25.9142 0C25.0599 0 24.3276 0.347565 23.6836 0.65265L23.6037 0.691268C22.9471 1.00021 22.1307 1.3864 21.6593 2.05063C21.209 2.68397 21.1416 3.43703 21.1374 4.11285C21.049 4.18236 20.9396 4.30208 20.9396 4.49517C20.9396 4.59172 20.9691 4.66896 21.007 4.73461C20.9691 4.7964 20.9396 4.87749 20.9396 4.97404C20.9396 5.36409 21.0364 5.7271 21.1753 6.06694C20.9691 6.35658 20.8849 6.71573 20.9438 7.07488C21.0617 7.77387 21.6845 8.29135 22.3748 8.29135C22.4295 8.29135 22.4842 8.28749 22.5389 8.28363C22.5768 8.27977 22.6147 8.26818 22.6525 8.26046C23.0776 9.11006 23.7089 9.85153 24.4791 10.3343V11.0487C24.3528 11.0101 24.2308 10.9676 24.134 10.9251C23.8099 10.7784 23.4522 10.7552 23.1323 10.8672C21.6677 11.3692 20.5608 12.5857 20.241 14.0725L19.3361 21.1937C19.3235 21.3019 19.3614 21.4139 19.4413 21.495C19.4708 21.5259 19.5129 21.549 19.5508 21.5683L19.5255 21.773C19.475 22.1515 19.6055 22.5299 19.8832 22.8157C20.1568 23.1015 20.5524 23.2637 20.9691 23.2637H21.5962V33.2851C21.5962 33.4357 21.6214 33.5748 21.6677 33.7061C20.9438 34.0073 20.4346 34.6754 20.4346 35.4555C20.4346 35.7528 20.6997 35.9961 21.0238 35.9961H25.4765C25.8006 35.9961 26.0657 35.7528 26.0657 35.4555V34.7758C26.0657 34.4128 25.8932 34.0884 25.6196 33.8644C25.7038 33.6945 25.7543 33.5053 25.7543 33.3006L26.0236 25.4186C26.0279 25.2448 26.2046 25.1019 26.4108 25.1019C26.6213 25.1019 26.7938 25.2409 26.798 25.4186L27.0674 33.289C27.0674 33.5014 27.1179 33.6945 27.2063 33.8644C26.9327 34.0923 26.7602 34.4166 26.7602 34.7797V35.4593C26.7602 35.7567 27.0253 36 27.3494 36H31.8021C32.1262 36 32.3913 35.7567 32.3913 35.4516C32.3913 34.6754 31.8821 34.0073 31.1582 33.7099C31.2003 33.5786 31.2297 33.4396 31.2297 33.289V23.2675H31.8568C32.2693 23.2675 32.6649 23.1053 32.9426 22.8196C33.2162 22.5338 33.3467 22.1553 33.3004 21.7769L33.2751 21.5722C33.313 21.5529 33.3551 21.5297 33.3845 21.4988C33.4561 21.4139 33.494 21.3057 33.4813 21.1937ZM31.0403 6.95902C30.9898 7.26411 30.7415 7.49968 30.4764 7.51899C30.6111 7.12894 30.6994 6.72345 30.7415 6.32568C30.8215 6.36044 30.8804 6.4145 30.9183 6.46085C31.0277 6.59215 31.074 6.77365 31.0403 6.95902ZM21.7729 6.95902C21.7435 6.77365 21.7855 6.59215 21.895 6.46085C21.9329 6.4145 21.9918 6.36044 22.0717 6.32568C22.1138 6.72731 22.2064 7.12894 22.3369 7.51899C22.0717 7.49968 21.8234 7.26411 21.7729 6.95902ZM22.5894 4.41407C22.3958 4.41794 22.2275 4.54151 22.1854 4.7153C22.118 4.98949 22.0844 5.25982 22.0633 5.52628C22.0002 5.53401 21.9371 5.54945 21.8739 5.56876C21.8276 5.41815 21.794 5.26754 21.7813 5.1092C21.8697 5.03969 21.9749 4.91997 21.9749 4.73074C21.9749 4.6342 21.9455 4.55696 21.9076 4.49131C21.9455 4.42952 21.9749 4.34842 21.9749 4.25188C21.9749 3.50654 22.0423 2.91568 22.3621 2.46771C22.7114 1.9734 23.389 1.65286 23.9867 1.37095L24.0666 1.33233C24.6432 1.05814 25.2366 0.78009 25.8721 0.768505L26.8191 0.942287C26.8443 0.946149 26.8738 0.950011 26.9032 0.950011C27.6566 0.950011 28.3679 0.950011 28.9192 1.20875C29.4831 1.47522 29.8703 1.98112 30.287 2.56426C30.6658 3.09719 30.9814 3.58378 31.0319 4.11285C30.9435 4.18236 30.8383 4.30208 30.8383 4.48745C30.8383 4.58399 30.8678 4.66123 30.9057 4.72688C30.8678 4.78867 30.8383 4.86977 30.8383 4.96632C30.8383 5.15555 30.8341 5.34478 30.8215 5.53401C30.7962 5.53014 30.7752 5.52242 30.7499 5.51856C30.7331 5.25209 30.6952 4.98176 30.6279 4.70757C30.5858 4.53379 30.4175 4.41021 30.2239 4.40635C28.9066 4.38704 26.9538 3.83866 26.0952 2.98906C25.9479 2.84617 25.7375 2.7728 25.5312 2.78438C25.3208 2.79983 25.1272 2.89637 25.0094 3.05857C24.4033 3.86956 23.9067 4.39477 22.5894 4.41407ZM22.8882 5.83523C22.8882 5.6151 22.9093 5.39884 22.9471 5.17486C24.3318 5.06672 24.9967 4.4218 25.6028 3.63785C26.6171 4.54151 28.4562 5.07831 29.8703 5.17486C29.9082 5.39884 29.9293 5.61897 29.9293 5.83523C29.9293 7.82793 28.3931 10.1412 26.4066 10.1412C24.4202 10.1412 22.8882 7.82407 22.8882 5.83523ZM27.4967 10.7282V11.2186C27.1558 11.265 26.7854 11.2881 26.4066 11.2881C26.0279 11.2881 25.6575 11.2611 25.3166 11.2186V10.7282C25.6617 10.844 26.0279 10.9097 26.4066 10.9097C26.7854 10.9097 27.1516 10.844 27.4967 10.7282ZM21.6256 22.4913H20.9607C20.7839 22.4913 20.624 22.4257 20.5061 22.3021C20.3883 22.1785 20.3378 22.024 20.3588 21.8657L20.3883 21.6263H21.5288L21.5246 21.6803C21.5204 21.7846 21.5583 21.8889 21.6382 21.9661C21.6425 21.97 21.6509 21.9738 21.6593 21.9777L21.6256 22.4913ZM25.2198 35.2276H21.2889C21.3815 34.8028 21.735 34.463 22.1896 34.3549C22.3369 34.436 22.5052 34.4862 22.6862 34.4862H24.6516C24.7821 34.4862 24.8999 34.4591 25.0136 34.4166C25.1356 34.5016 25.2156 34.6291 25.2156 34.7797V35.2276H25.2198ZM26.4066 24.3257C25.7375 24.3257 25.1945 24.793 25.1777 25.3915L24.9084 33.2851C24.9084 33.5439 24.7568 33.7099 24.6516 33.7099H22.6862C22.581 33.7099 22.4295 33.5439 22.4295 33.2851V23.1208L22.501 22.082H30.3207L30.388 23.0976V33.2851C30.388 33.5439 30.2365 33.7099 30.1313 33.7099H28.1658C28.0606 33.7099 27.9091 33.5439 27.9091 33.2735L27.6398 25.3915C27.6187 24.793 27.0758 24.3257 26.4066 24.3257ZM31.5243 35.2276H27.5977V34.7758C27.5977 34.6252 27.6818 34.4977 27.7997 34.4128C27.9133 34.4553 28.0354 34.4823 28.1616 34.4823H30.1271C30.308 34.4823 30.4764 34.4321 30.6237 34.351C31.0782 34.463 31.4317 34.799 31.5243 35.2276ZM32.3113 22.3021C32.1935 22.4218 32.0336 22.4913 31.8568 22.4913H31.1918L31.1582 21.9777C31.1624 21.9738 31.1708 21.97 31.1792 21.9661C31.2592 21.8889 31.3013 21.7846 31.2929 21.6803L31.2844 21.6263H32.425L32.4544 21.8657C32.4797 22.0279 32.4292 22.1824 32.3113 22.3021ZM31.2424 20.8539L30.9688 16.2158C30.9562 16.0034 30.7584 15.8412 30.5269 15.8528C30.3038 15.8644 30.1313 16.0343 30.1313 16.239C30.1313 16.2467 30.1271 16.2506 30.1271 16.2583L30.4217 21.3135H22.3916L22.6862 16.2583C22.6862 16.2506 22.682 16.2467 22.682 16.239C22.682 16.0343 22.5136 15.8644 22.2864 15.8528C22.0591 15.8412 21.8571 16.0034 21.8445 16.2158L21.5751 20.8539H20.2284L21.0701 14.1922C21.331 12.9951 22.2317 11.9987 23.4227 11.5894C23.5279 11.5546 23.6458 11.5623 23.7552 11.6164C24.3781 11.9022 25.3418 12.0644 26.4108 12.0644C27.4798 12.0644 28.4436 11.9022 29.0665 11.6164C29.1801 11.5662 29.298 11.5546 29.399 11.5932C30.5858 11.9987 31.4865 12.9912 31.7474 14.1768L32.5891 20.8539H31.2424Z" fill="#F65362"/>
    <path d="M28.1575 6.93886C28.4311 6.93886 28.6373 6.70733 28.6373 6.40248C28.6373 6.09762 28.4311 5.86609 28.1575 5.86609C27.884 5.86609 27.6777 6.09762 27.6777 6.40248C27.6777 6.70733 27.884 6.93886 28.1575 6.93886Z" fill="#F65362"/>
    <path d="M27.6061 8.13277C27.6061 7.963 27.4546 7.8241 27.2694 7.8241C27.0842 7.8241 26.9327 7.963 26.9327 8.13277C26.9327 8.16749 26.7559 8.31411 26.4108 8.31411C26.0657 8.31411 25.889 8.16749 25.889 8.13277C25.889 7.963 25.7374 7.8241 25.5523 7.8241C25.3671 7.8241 25.2156 7.963 25.2156 8.13277C25.2156 8.58034 25.7417 8.93146 26.4108 8.93146C27.08 8.93146 27.6061 8.58034 27.6061 8.13277Z" fill="#F65362"/>
    <path d="M24.6558 5.86218C24.3822 5.86218 24.176 6.0937 24.176 6.39854C24.176 6.70337 24.3822 6.93489 24.6558 6.93489C24.9294 6.93489 25.1356 6.70337 25.1356 6.39854C25.1356 6.0937 24.9294 5.86218 24.6558 5.86218Z" fill="#F65362"/>
</svg>
