<svg width="9" height="21" viewBox="0 0 9 21" fill="none" xmlns="http://www.w3.org/2000/svg">
    <path d="M8.07223 12.7443L7.56883 8.60632C7.56883 8.5977 7.56588 8.59195 7.56588 8.58333C7.38631 7.71552 6.75337 6.99138 5.92025 6.6954C5.72595 6.62644 5.51105 6.63793 5.31675 6.72989C5.28437 6.74425 5.24904 6.76149 5.20783 6.77586V6.34483C5.66118 6.03448 6.02623 5.55747 6.26468 5.01724C6.30001 5.02586 6.33534 5.03448 6.37066 5.04023C6.40305 5.0431 6.43837 5.04598 6.47076 5.04598C6.90056 5.04598 7.28033 4.75 7.35981 4.33621C7.40103 4.11782 7.35098 3.9023 7.21556 3.72701L7.21262 3.72414C7.26855 3.54598 7.30093 3.3477 7.30093 3.12069V2.66954C7.30093 1.19828 5.98501 0 4.36587 0H3.78004C2.16384 0 0.844975 1.19828 0.844975 2.66954V3.12069C0.844975 3.3477 0.877358 3.54598 0.933292 3.72414L0.930348 3.72701C0.797873 3.9023 0.744883 4.11782 0.786097 4.33621C0.862638 4.75 1.24534 5.04598 1.67515 5.04598C1.70754 5.04598 1.74286 5.0431 1.77525 5.04023C1.81057 5.03736 1.8459 5.02586 1.88123 5.01724C2.11674 5.55747 2.48472 6.03448 2.93808 6.34483V6.77586C2.89981 6.76149 2.86154 6.74713 2.82916 6.72989C2.63486 6.63793 2.4229 6.62356 2.22566 6.6954C1.3896 6.99425 0.759602 7.71839 0.577081 8.60919L0.0766188 12.7443C0.0677871 12.8247 0.0942822 12.908 0.150216 12.9684C0.161992 12.9828 0.179655 12.9885 0.191431 13L0.179655 13.0891C0.150216 13.3305 0.226757 13.5718 0.391615 13.7529C0.556473 13.9339 0.791985 14.0374 1.03927 14.0374H1.42787V19.3362C1.42787 19.3966 1.4367 19.454 1.44847 19.5115C0.998057 19.6897 0.680117 20.1178 0.680117 20.6178C0.680117 20.8276 0.853807 20.9971 1.06871 20.9971H3.54747C3.76237 20.9971 3.93606 20.8276 3.93606 20.6178V20.2184C3.93606 20.0086 3.85069 19.8161 3.71233 19.6753C3.75943 19.5747 3.78887 19.4655 3.78887 19.3477L3.93312 15.023C3.93606 14.9684 3.99788 14.9224 4.07148 14.9224C4.14508 14.9224 4.2069 14.9684 4.20985 15.023L4.3541 19.3391C4.3541 19.4626 4.38353 19.5747 4.43064 19.6753C4.29227 19.819 4.2069 20.0086 4.2069 20.2213V20.6207C4.2069 20.8305 4.38059 21 4.5955 21H7.07425C7.28916 21 7.46285 20.8305 7.46285 20.6207C7.46285 20.1178 7.14196 19.6897 6.69449 19.5115C6.70627 19.454 6.7151 19.3966 6.7151 19.3362V14.0374H7.10369C7.35098 14.0374 7.58943 13.9339 7.75135 13.7529C7.91621 13.5718 7.99275 13.3305 7.96331 13.0891L7.95153 13C7.96625 12.9885 7.98097 12.9828 7.99275 12.9684C8.05751 12.908 8.08401 12.8276 8.07223 12.7443ZM6.78281 4.23276C6.75631 4.37069 6.61206 4.47414 6.45898 4.46839C6.50019 4.30747 6.52963 4.1408 6.5473 3.97701C6.55613 3.97701 6.56496 3.97701 6.57379 3.97989C6.64739 3.98851 6.70921 4.02011 6.74748 4.07184C6.76809 4.10345 6.79458 4.15805 6.78281 4.23276ZM1.36604 4.23276C1.35132 4.15805 1.37782 4.10345 1.40431 4.06897C1.44259 4.01724 1.50441 3.98563 1.578 3.97701C1.58684 3.97701 1.59567 3.97701 1.6045 3.97414C1.62216 4.13793 1.6516 4.30172 1.69282 4.46552C1.53973 4.47701 1.39254 4.37356 1.36604 4.23276ZM1.66338 2.97701C1.63099 3.12069 1.61039 3.26437 1.59861 3.40805C1.56917 3.40805 1.53973 3.40517 1.51029 3.40805C1.49263 3.41092 1.47791 3.41667 1.46025 3.41954C1.44259 3.33046 1.43081 3.23276 1.43081 3.12356V2.66954C1.43375 1.51437 2.48767 0.574713 3.78004 0.574713H4.36587C5.65824 0.574713 6.71215 1.51437 6.71215 2.66954V3.12069C6.71215 3.22988 6.70038 3.32759 6.68272 3.41667C6.66505 3.41379 6.65033 3.40805 6.63267 3.40517C6.60323 3.4023 6.57379 3.40517 6.5473 3.40517C6.53552 3.26437 6.51491 3.12356 6.48253 2.97414C6.45309 2.84483 6.33534 2.75287 6.19992 2.75C5.49338 2.73851 4.82806 2.43966 4.41886 1.94828C4.24812 1.74425 3.89485 1.74425 3.7241 1.94828C3.31196 2.44828 2.66136 2.74138 1.94599 2.75287C1.81057 2.75575 1.69282 2.8477 1.66338 2.97701ZM2.17267 3.6523C2.17267 3.54023 2.1815 3.42816 2.19622 3.31609C2.9322 3.25 3.59752 2.93966 4.07148 2.43678C4.54545 2.93678 5.21077 3.25 5.94674 3.31609C5.96441 3.43103 5.97029 3.5431 5.97029 3.6523C5.97029 4.93391 5.04591 6.14368 4.06854 6.14368C3.09705 6.14368 2.17267 4.93391 2.17267 3.6523ZM4.62199 6.63506V6.90517C4.4483 6.92529 4.26284 6.93678 4.07443 6.93678C3.88602 6.93678 3.70055 6.92529 3.52686 6.90517V6.63506C3.7035 6.68678 3.88602 6.71839 4.07443 6.71839C4.26284 6.71839 4.44536 6.68966 4.62199 6.63506ZM1.44847 13.4626H1.03927C0.959787 13.4626 0.883246 13.431 0.830255 13.3707C0.777265 13.3103 0.753714 13.2356 0.762546 13.158L0.774322 13.0661H1.47497L1.44847 13.4626ZM3.35023 20.4253H1.30128C1.37782 20.204 1.578 20.0374 1.8194 20.0057C1.90183 20.046 1.99015 20.069 2.08435 20.069H3.13532C3.18243 20.069 3.22658 20.0632 3.27074 20.0546C3.31785 20.0948 3.35317 20.1523 3.35317 20.2213V20.4253H3.35023ZM4.07443 14.342C3.67994 14.342 3.35906 14.6293 3.34728 15L3.20303 19.3362C3.20303 19.4368 3.15004 19.4914 3.13532 19.4943H2.0873C2.06963 19.4914 2.01959 19.4368 2.01959 19.3362V13.7644L2.09024 12.6983H6.06155L6.13221 13.7471V19.3391C6.13221 19.4397 6.07922 19.4943 6.0645 19.4971H5.01647C4.99881 19.4943 4.94876 19.4397 4.94876 19.3305L4.80157 15C4.78979 14.6322 4.46891 14.342 4.07443 14.342ZM6.84463 20.4253H4.79568V20.2184C4.79568 20.1523 4.82806 20.092 4.87811 20.0517C4.92227 20.0632 4.96643 20.0661 5.01353 20.0661H6.0645C6.1587 20.0661 6.24702 20.0431 6.32945 20.0029C6.57085 20.0374 6.77103 20.2011 6.84463 20.4253ZM7.31565 13.3707C7.26266 13.431 7.18906 13.4626 7.10664 13.4626H6.70038L6.67388 13.0661H7.37453L7.38631 13.158C7.39514 13.2356 7.36864 13.3103 7.31565 13.3707ZM6.83874 12.4914C6.84757 12.4598 6.85641 12.4253 6.85346 12.3908L6.67388 9.79598C6.66211 9.63793 6.5208 9.52011 6.36183 9.52874C6.2058 9.54023 6.09099 9.66667 6.09099 9.81609C6.09099 9.82184 6.08805 9.82759 6.08805 9.83621L6.24408 12.1236H1.90478L2.0608 9.83621C2.0608 9.83046 2.05786 9.82471 2.05786 9.81609C2.05786 9.66667 1.94305 9.54023 1.78702 9.52874C1.62216 9.52011 1.4838 9.63793 1.47497 9.79598L1.29539 12.3908C1.29245 12.4253 1.29833 12.4598 1.31011 12.4914H0.700724L1.15997 8.70115C1.30128 8.02874 1.78702 7.46552 2.43173 7.23563C2.49061 7.21552 2.54655 7.23563 2.57304 7.24713C2.92631 7.41667 3.47387 7.51149 4.07443 7.51149C4.67498 7.51149 5.22549 7.41379 5.57876 7.24713C5.60819 7.23276 5.66413 7.21552 5.72006 7.23563C6.36183 7.46552 6.84463 8.02011 6.98888 8.68678L7.45107 12.4885H6.83874V12.4914Z" fill="#F65362"/>
    <path d="M3.35962 5.0142C3.35962 4.88786 3.4656 4.78449 3.59513 4.78449C3.72172 4.78449 3.82475 4.88212 3.83064 5.00271C3.83359 5.00558 3.83947 5.01132 3.84536 5.0142C3.87774 5.04004 3.95134 5.07449 4.07498 5.07449C4.19568 5.07449 4.27222 5.03717 4.30461 5.0142C4.31344 5.00845 4.31933 5.00271 4.32227 4.99697C4.32227 4.87063 4.42531 4.77588 4.55484 4.77588C4.68437 4.77588 4.78741 4.88786 4.78741 5.0142C4.78741 5.30707 4.47241 5.5339 4.07204 5.5339C3.67167 5.5339 3.35962 5.30707 3.35962 5.0142Z" fill="#F65362"/>
    <path d="M3.10041 4.30716C2.94733 4.30716 2.83252 4.16933 2.83252 3.98842C2.83252 3.80751 2.94733 3.66968 3.10041 3.66968C3.25349 3.66968 3.36829 3.80751 3.36829 3.98842C3.36829 4.16933 3.25054 4.30716 3.10041 4.30716Z" fill="#F65362"/>
    <path d="M4.78149 3.98842C4.78149 3.80751 4.89631 3.66968 5.0494 3.66968C5.20248 3.66968 5.3173 3.80751 5.3173 3.98842C5.3173 4.16933 5.20248 4.30716 5.0494 4.30716C4.89631 4.30716 4.78149 4.16933 4.78149 3.98842Z" fill="#F65362"/>
    <path d="M3.66284 8.33599C3.66284 8.11494 3.8483 7.93408 4.07498 7.93408C4.30166 7.93408 4.48712 8.11494 4.48712 8.33599C4.48712 8.55705 4.30166 8.73791 4.07498 8.73791C3.8483 8.73791 3.66284 8.55992 3.66284 8.33599Z" fill="#F65362"/>
    <path d="M3.66284 9.48522C3.66284 9.26414 3.8483 9.08325 4.07498 9.08325C4.30166 9.08325 4.48712 9.26414 4.48712 9.48522C4.48712 9.62017 4.41941 9.74076 4.31343 9.81254C4.24572 9.85848 4.1633 9.88719 4.07498 9.88719C3.98666 9.88719 3.90424 9.85848 3.83653 9.81254C3.73055 9.74076 3.66284 9.62304 3.66284 9.48522Z" fill="#F65362"/>
</svg>
