<svg width="35" height="36" viewBox="0 0 35 36" fill="none" xmlns="http://www.w3.org/2000/svg">
    <path d="M15.8141 21.1937L14.9135 14.0687C14.9135 14.0571 14.9093 14.0493 14.9093 14.0378C14.5936 12.5818 13.4867 11.3654 12.0263 10.8633C11.7023 10.7513 11.3445 10.7707 11.0247 10.9213C10.9237 10.9676 10.8058 11.0062 10.6796 11.0448V10.3304C11.4498 9.84767 12.081 9.1062 12.5061 8.2566C12.544 8.26432 12.5819 8.27591 12.6198 8.27977C12.6745 8.28749 12.7292 8.28749 12.7839 8.28749C13.4741 8.28749 14.097 7.77001 14.2148 7.07101C14.278 6.69256 14.1812 6.31023 13.9539 6.01673C14.0002 5.71165 14.017 5.40657 14.0212 5.11307C14.1096 5.04355 14.219 4.92384 14.219 4.73074C14.219 4.6342 14.1896 4.55696 14.1517 4.49131C14.1896 4.42952 14.219 4.34842 14.219 4.25188C14.219 3.45634 13.7982 2.80369 13.331 2.14332C12.9607 1.62197 12.4514 0.903669 11.6434 0.521347C10.9237 0.181506 10.0904 0.173782 9.28231 0.173782L8.33116 0C8.3017 0.00386183 8.27224 0 8.24698 0C7.39263 0 6.66033 0.347565 6.01641 0.65265L5.93644 0.691268C5.2799 1.00021 4.46342 1.3864 3.99205 2.05063C3.54173 2.68397 3.47439 3.43703 3.47018 4.11285C3.3818 4.18236 3.27238 4.30208 3.27238 4.49517C3.27238 4.59172 3.30184 4.66896 3.33972 4.73461C3.30184 4.7964 3.27238 4.87749 3.27238 4.97404C3.27238 5.36409 3.36918 5.7271 3.50806 6.06694C3.30184 6.35658 3.21767 6.71573 3.27659 7.07488C3.39443 7.77387 4.01731 8.29135 4.70752 8.29135C4.76223 8.29135 4.81695 8.28749 4.87166 8.28363C4.90954 8.27977 4.94741 8.26818 4.98529 8.26046C5.41036 9.11006 6.04166 9.85153 6.81184 10.3343V11.0487C6.68558 11.0101 6.56353 10.9676 6.46673 10.9251C6.14267 10.7784 5.78493 10.7552 5.46508 10.8672C4.00047 11.3692 2.8936 12.5857 2.57374 14.0725L1.66889 21.1937C1.65626 21.3019 1.69414 21.4139 1.7741 21.495C1.80356 21.5259 1.84565 21.549 1.88353 21.5683L1.85828 21.773C1.80777 22.1515 1.93824 22.5299 2.21601 22.8157C2.48957 23.1015 2.88518 23.2637 3.30184 23.2637H3.92892V33.2851C3.92892 33.4357 3.95418 33.5748 4.00047 33.7061C3.27659 34.0073 2.76734 34.6754 2.76734 35.4555C2.76734 35.7528 3.03249 35.9961 3.35655 35.9961H7.80929C8.13335 35.9961 8.39849 35.7528 8.39849 35.4555V34.7758C8.39849 34.4128 8.22594 34.0884 7.95238 33.8644C8.03655 33.6945 8.08706 33.5053 8.08706 33.3006L8.35641 25.4186C8.36062 25.2448 8.53738 25.1019 8.7436 25.1019C8.95403 25.1019 9.12659 25.2409 9.1308 25.4186L9.40015 33.289C9.40015 33.5014 9.45065 33.6945 9.53903 33.8644C9.26547 34.0923 9.09292 34.4166 9.09292 34.7797V35.4593C9.09292 35.7567 9.35806 36 9.68213 36H14.1349C14.4589 36 14.7241 35.7567 14.7241 35.4516C14.7241 34.6754 14.2148 34.0073 13.4909 33.7099C13.533 33.5786 13.5625 33.4396 13.5625 33.289V23.2675H14.1896C14.602 23.2675 14.9976 23.1053 15.2754 22.8196C15.549 22.5338 15.6794 22.1553 15.6331 21.7769L15.6079 21.5722C15.6458 21.5529 15.6878 21.5297 15.7173 21.4988C15.7889 21.4139 15.8267 21.3057 15.8141 21.1937ZM13.3731 6.95902C13.3226 7.26411 13.0743 7.49968 12.8091 7.51899C12.9438 7.12894 13.0322 6.72345 13.0743 6.32568C13.1543 6.36044 13.2132 6.4145 13.251 6.46085C13.3605 6.59215 13.4068 6.77365 13.3731 6.95902ZM4.10569 6.95902C4.07623 6.77365 4.11831 6.59215 4.22774 6.46085C4.26562 6.4145 4.32454 6.36044 4.4045 6.32568C4.44659 6.72731 4.53918 7.12894 4.66964 7.51899C4.4045 7.49968 4.15619 7.26411 4.10569 6.95902ZM4.92216 4.41407C4.72857 4.41794 4.56022 4.54151 4.51813 4.7153C4.4508 4.98949 4.41713 5.25982 4.39608 5.52628C4.33295 5.53401 4.26982 5.54945 4.20669 5.56876C4.1604 5.41815 4.12673 5.26754 4.1141 5.1092C4.20249 5.03969 4.3077 4.91997 4.3077 4.73074C4.3077 4.6342 4.27824 4.55696 4.24036 4.49131C4.27824 4.42952 4.3077 4.34842 4.3077 4.25188C4.3077 3.50654 4.37504 2.91568 4.6949 2.46771C5.04421 1.9734 5.7218 1.65286 6.31943 1.37095L6.39939 1.33233C6.97598 1.05814 7.56939 0.78009 8.2049 0.768505L9.15184 0.942287C9.17709 0.946149 9.20655 0.950011 9.23601 0.950011C9.98936 0.950011 10.7006 0.950011 11.2519 1.20875C11.8159 1.47522 12.2031 1.98112 12.6198 2.56426C12.9985 3.09719 13.3142 3.58378 13.3647 4.11285C13.2763 4.18236 13.1711 4.30208 13.1711 4.48745C13.1711 4.58399 13.2005 4.66123 13.2384 4.72688C13.2005 4.78867 13.1711 4.86977 13.1711 4.96632C13.1711 5.15555 13.1669 5.34478 13.1543 5.53401C13.129 5.53014 13.108 5.52242 13.0827 5.51856C13.0659 5.25209 13.028 4.98176 12.9607 4.70757C12.9186 4.53379 12.7502 4.41021 12.5566 4.40635C11.2393 4.38704 9.28652 3.83866 8.42795 2.98906C8.28065 2.84617 8.07022 2.7728 7.864 2.78438C7.65357 2.79983 7.45997 2.89637 7.34213 3.05857C6.73608 3.86956 6.23946 4.39477 4.92216 4.41407ZM5.22098 5.83523C5.22098 5.6151 5.24202 5.39884 5.2799 5.17486C6.66454 5.06672 7.3295 4.4218 7.93554 3.63785C8.94983 4.54151 10.789 5.07831 12.2031 5.17486C12.241 5.39884 12.262 5.61897 12.262 5.83523C12.262 7.82793 10.7259 10.1412 8.73939 10.1412C6.75292 10.1412 5.22098 7.82407 5.22098 5.83523ZM9.82943 10.7282V11.2186C9.48853 11.265 9.11817 11.2881 8.73939 11.2881C8.36062 11.2881 7.99026 11.2611 7.64936 11.2186V10.7282C7.99447 10.844 8.36062 10.9097 8.73939 10.9097C9.11817 10.9097 9.48432 10.844 9.82943 10.7282ZM3.95838 22.4913H3.29342C3.11666 22.4913 2.95673 22.4257 2.83889 22.3021C2.72105 22.1785 2.67054 22.024 2.69159 21.8657L2.72105 21.6263H3.86159L3.85738 21.6803C3.85317 21.7846 3.89105 21.8889 3.97101 21.9661C3.97522 21.97 3.98364 21.9738 3.99205 21.9777L3.95838 22.4913ZM7.55256 35.2276H3.62169C3.71428 34.8028 4.06781 34.463 4.52234 34.3549C4.66964 34.436 4.83799 34.4862 5.01896 34.4862H6.98439C7.11486 34.4862 7.2327 34.4591 7.34634 34.4166C7.46839 34.5016 7.54835 34.6291 7.54835 34.7797V35.2276H7.55256ZM8.73939 24.3257C8.07022 24.3257 7.52731 24.793 7.51047 25.3915L7.24112 33.2851C7.24112 33.5439 7.08961 33.7099 6.98439 33.7099H5.01896C4.91374 33.7099 4.76223 33.5439 4.76223 33.2851V23.1208L4.83378 22.082H12.6534L12.7208 23.0976V33.2851C12.7208 33.5439 12.5693 33.7099 12.464 33.7099H10.4986C10.3934 33.7099 10.2419 33.5439 10.2419 33.2735L9.97252 25.3915C9.95148 24.793 9.40857 24.3257 8.73939 24.3257ZM13.8571 35.2276H9.93044V34.7758C9.93044 34.6252 10.0146 34.4977 10.1325 34.4128C10.2461 34.4553 10.3681 34.4823 10.4944 34.4823H12.4598C12.6408 34.4823 12.8091 34.4321 12.9564 34.351C13.411 34.463 13.7645 34.799 13.8571 35.2276ZM14.6441 22.3021C14.5263 22.4218 14.3663 22.4913 14.1896 22.4913H13.5246L13.4909 21.9777C13.4952 21.9738 13.5036 21.97 13.512 21.9661C13.5919 21.8889 13.634 21.7846 13.6256 21.6803L13.6172 21.6263H14.7577L14.7872 21.8657C14.8125 22.0279 14.7619 22.1824 14.6441 22.3021ZM13.5751 20.8539L13.3016 16.2158C13.2889 16.0034 13.0911 15.8412 12.8596 15.8528C12.6366 15.8644 12.464 16.0343 12.464 16.239C12.464 16.2467 12.4598 16.2506 12.4598 16.2583L12.7544 21.3135H4.72436L5.01896 16.2583C5.01896 16.2506 5.01475 16.2467 5.01475 16.239C5.01475 16.0343 4.84641 15.8644 4.61914 15.8528C4.39187 15.8412 4.18986 16.0034 4.17723 16.2158L3.90788 20.8539H2.56112L3.40285 14.1922C3.66378 12.9951 4.56443 11.9987 5.75547 11.5894C5.86069 11.5546 5.97853 11.5623 6.08795 11.6164C6.71083 11.9022 7.67461 12.0644 8.7436 12.0644C9.8126 12.0644 10.7764 11.9022 11.3993 11.6164C11.5129 11.5662 11.6307 11.5546 11.7317 11.5932C12.9186 11.9987 13.8192 12.9912 14.0802 14.1768L14.9219 20.8539H13.5751Z" fill="#F65362"/>
    <path d="M10.49 6.93886C10.7636 6.93886 10.9698 6.70733 10.9698 6.40248C10.9698 6.09762 10.7636 5.86609 10.49 5.86609C10.2165 5.86609 10.0103 6.09762 10.0103 6.40248C10.0103 6.70733 10.2165 6.93886 10.49 6.93886Z" fill="#F65362"/>
    <path d="M9.93883 8.13277C9.93883 7.963 9.78732 7.8241 9.60215 7.8241C9.41697 7.8241 9.26546 7.963 9.26546 8.13277C9.26546 8.16749 9.08869 8.31411 8.74359 8.31411C8.39848 8.31411 8.22172 8.16749 8.22172 8.13277C8.22172 7.963 8.07021 7.8241 7.88503 7.8241C7.69985 7.8241 7.54834 7.963 7.54834 8.13277C7.54834 8.58034 8.07442 8.93146 8.74359 8.93146C9.41276 8.93146 9.93883 8.58034 9.93883 8.13277Z" fill="#F65362"/>
    <path d="M6.98857 5.86218C6.71501 5.86218 6.50879 6.0937 6.50879 6.39854C6.50879 6.70337 6.71501 6.93489 6.98857 6.93489C7.26213 6.93489 7.46835 6.70337 7.46835 6.39854C7.46835 6.0937 7.26213 5.86218 6.98857 5.86218Z" fill="#F65362"/>
    <path d="M33.8141 21.1937L32.9135 14.0687C32.9135 14.0571 32.9093 14.0493 32.9093 14.0378C32.5936 12.5818 31.4867 11.3654 30.0263 10.8633C29.7023 10.7513 29.3445 10.7707 29.0247 10.9213C28.9237 10.9676 28.8058 11.0062 28.6796 11.0448V10.3304C29.4498 9.84767 30.081 9.1062 30.5061 8.2566C30.544 8.26432 30.5819 8.27591 30.6198 8.27977C30.6745 8.28749 30.7292 8.28749 30.7839 8.28749C31.4741 8.28749 32.097 7.77001 32.2148 7.07101C32.278 6.69256 32.1812 6.31023 31.9539 6.01673C32.0002 5.71165 32.017 5.40657 32.0212 5.11307C32.1096 5.04355 32.219 4.92384 32.219 4.73074C32.219 4.6342 32.1896 4.55696 32.1517 4.49131C32.1896 4.42952 32.219 4.34842 32.219 4.25188C32.219 3.45634 31.7982 2.80369 31.331 2.14332C30.9607 1.62197 30.4514 0.903669 29.6434 0.521347C28.9237 0.181506 28.0904 0.173782 27.2823 0.173782L26.3312 0C26.3017 0.00386183 26.2722 0 26.247 0C25.3926 0 24.6603 0.347565 24.0164 0.65265L23.9364 0.691268C23.2799 1.00021 22.4634 1.3864 21.9921 2.05063C21.5417 2.68397 21.4744 3.43703 21.4702 4.11285C21.3818 4.18236 21.2724 4.30208 21.2724 4.49517C21.2724 4.59172 21.3018 4.66896 21.3397 4.73461C21.3018 4.7964 21.2724 4.87749 21.2724 4.97404C21.2724 5.36409 21.3692 5.7271 21.5081 6.06694C21.3018 6.35658 21.2177 6.71573 21.2766 7.07488C21.3944 7.77387 22.0173 8.29135 22.7075 8.29135C22.7622 8.29135 22.8169 8.28749 22.8717 8.28363C22.9095 8.27977 22.9474 8.26818 22.9853 8.26046C23.4104 9.11006 24.0417 9.85153 24.8118 10.3343V11.0487C24.6856 11.0101 24.5635 10.9676 24.4667 10.9251C24.1427 10.7784 23.7849 10.7552 23.4651 10.8672C22.0005 11.3692 20.8936 12.5857 20.5737 14.0725L19.6689 21.1937C19.6563 21.3019 19.6941 21.4139 19.7741 21.495C19.8036 21.5259 19.8457 21.549 19.8835 21.5683L19.8583 21.773C19.8078 22.1515 19.9382 22.5299 20.216 22.8157C20.4896 23.1015 20.8852 23.2637 21.3018 23.2637H21.9289V33.2851C21.9289 33.4357 21.9542 33.5748 22.0005 33.7061C21.2766 34.0073 20.7673 34.6754 20.7673 35.4555C20.7673 35.7528 21.0325 35.9961 21.3566 35.9961H25.8093C26.1334 35.9961 26.3985 35.7528 26.3985 35.4555V34.7758C26.3985 34.4128 26.2259 34.0884 25.9524 33.8644C26.0366 33.6945 26.0871 33.5053 26.0871 33.3006L26.3564 25.4186C26.3606 25.2448 26.5374 25.1019 26.7436 25.1019C26.954 25.1019 27.1266 25.2409 27.1308 25.4186L27.4001 33.289C27.4001 33.5014 27.4507 33.6945 27.539 33.8644C27.2655 34.0923 27.0929 34.4166 27.0929 34.7797V35.4593C27.0929 35.7567 27.3581 36 27.6821 36H32.1349C32.4589 36 32.7241 35.7567 32.7241 35.4516C32.7241 34.6754 32.2148 34.0073 31.4909 33.7099C31.533 33.5786 31.5625 33.4396 31.5625 33.289V23.2675H32.1896C32.602 23.2675 32.9976 23.1053 33.2754 22.8196C33.549 22.5338 33.6794 22.1553 33.6331 21.7769L33.6079 21.5722C33.6458 21.5529 33.6878 21.5297 33.7173 21.4988C33.7889 21.4139 33.8267 21.3057 33.8141 21.1937ZM31.3731 6.95902C31.3226 7.26411 31.0743 7.49968 30.8091 7.51899C30.9438 7.12894 31.0322 6.72345 31.0743 6.32568C31.1543 6.36044 31.2132 6.4145 31.251 6.46085C31.3605 6.59215 31.4068 6.77365 31.3731 6.95902ZM22.1057 6.95902C22.0762 6.77365 22.1183 6.59215 22.2277 6.46085C22.2656 6.4145 22.3245 6.36044 22.4045 6.32568C22.4466 6.72731 22.5392 7.12894 22.6696 7.51899C22.4045 7.49968 22.1562 7.26411 22.1057 6.95902ZM22.9222 4.41407C22.7286 4.41794 22.5602 4.54151 22.5181 4.7153C22.4508 4.98949 22.4171 5.25982 22.3961 5.52628C22.333 5.53401 22.2698 5.54945 22.2067 5.56876C22.1604 5.41815 22.1267 5.26754 22.1141 5.1092C22.2025 5.03969 22.3077 4.91997 22.3077 4.73074C22.3077 4.6342 22.2782 4.55696 22.2404 4.49131C22.2782 4.42952 22.3077 4.34842 22.3077 4.25188C22.3077 3.50654 22.375 2.91568 22.6949 2.46771C23.0442 1.9734 23.7218 1.65286 24.3194 1.37095L24.3994 1.33233C24.976 1.05814 25.5694 0.78009 26.2049 0.768505L27.1518 0.942287C27.1771 0.946149 27.2066 0.950011 27.236 0.950011C27.9894 0.950011 28.7006 0.950011 29.2519 1.20875C29.8159 1.47522 30.2031 1.98112 30.6198 2.56426C30.9985 3.09719 31.3142 3.58378 31.3647 4.11285C31.2763 4.18236 31.1711 4.30208 31.1711 4.48745C31.1711 4.58399 31.2005 4.66123 31.2384 4.72688C31.2005 4.78867 31.1711 4.86977 31.1711 4.96632C31.1711 5.15555 31.1669 5.34478 31.1543 5.53401C31.129 5.53014 31.108 5.52242 31.0827 5.51856C31.0659 5.25209 31.028 4.98176 30.9607 4.70757C30.9186 4.53379 30.7502 4.41021 30.5566 4.40635C29.2393 4.38704 27.2865 3.83866 26.428 2.98906C26.2807 2.84617 26.0702 2.7728 25.864 2.78438C25.6536 2.79983 25.46 2.89637 25.3421 3.05857C24.7361 3.86956 24.2395 4.39477 22.9222 4.41407ZM23.221 5.83523C23.221 5.6151 23.242 5.39884 23.2799 5.17486C24.6645 5.06672 25.3295 4.4218 25.9355 3.63785C26.9498 4.54151 28.789 5.07831 30.2031 5.17486C30.241 5.39884 30.262 5.61897 30.262 5.83523C30.262 7.82793 28.7259 10.1412 26.7394 10.1412C24.7529 10.1412 23.221 7.82407 23.221 5.83523ZM27.8294 10.7282V11.2186C27.4885 11.265 27.1182 11.2881 26.7394 11.2881C26.3606 11.2881 25.9903 11.2611 25.6494 11.2186V10.7282C25.9945 10.844 26.3606 10.9097 26.7394 10.9097C27.1182 10.9097 27.4843 10.844 27.8294 10.7282ZM21.9584 22.4913H21.2934C21.1167 22.4913 20.9567 22.4257 20.8389 22.3021C20.721 22.1785 20.6705 22.024 20.6916 21.8657L20.721 21.6263H21.8616L21.8574 21.6803C21.8532 21.7846 21.891 21.8889 21.971 21.9661C21.9752 21.97 21.9836 21.9738 21.9921 21.9777L21.9584 22.4913ZM25.5526 35.2276H21.6217C21.7143 34.8028 22.0678 34.463 22.5223 34.3549C22.6696 34.436 22.838 34.4862 23.019 34.4862H24.9844C25.1149 34.4862 25.2327 34.4591 25.3463 34.4166C25.4684 34.5016 25.5484 34.6291 25.5484 34.7797V35.2276H25.5526ZM26.7394 24.3257C26.0702 24.3257 25.5273 24.793 25.5105 25.3915L25.2411 33.2851C25.2411 33.5439 25.0896 33.7099 24.9844 33.7099H23.019C22.9137 33.7099 22.7622 33.5439 22.7622 33.2851V23.1208L22.8338 22.082H30.6534L30.7208 23.0976V33.2851C30.7208 33.5439 30.5693 33.7099 30.464 33.7099H28.4986C28.3934 33.7099 28.2419 33.5439 28.2419 33.2735L27.9725 25.3915C27.9515 24.793 27.4086 24.3257 26.7394 24.3257ZM31.8571 35.2276H27.9304V34.7758C27.9304 34.6252 28.0146 34.4977 28.1325 34.4128C28.2461 34.4553 28.3681 34.4823 28.4944 34.4823H30.4598C30.6408 34.4823 30.8091 34.4321 30.9564 34.351C31.411 34.463 31.7645 34.799 31.8571 35.2276ZM32.6441 22.3021C32.5263 22.4218 32.3663 22.4913 32.1896 22.4913H31.5246L31.4909 21.9777C31.4952 21.9738 31.5036 21.97 31.512 21.9661C31.5919 21.8889 31.634 21.7846 31.6256 21.6803L31.6172 21.6263H32.7577L32.7872 21.8657C32.8125 22.0279 32.7619 22.1824 32.6441 22.3021ZM31.5751 20.8539L31.3016 16.2158C31.2889 16.0034 31.0911 15.8412 30.8596 15.8528C30.6366 15.8644 30.464 16.0343 30.464 16.239C30.464 16.2467 30.4598 16.2506 30.4598 16.2583L30.7544 21.3135H22.7244L23.019 16.2583C23.019 16.2506 23.0148 16.2467 23.0148 16.239C23.0148 16.0343 22.8464 15.8644 22.6191 15.8528C22.3919 15.8412 22.1899 16.0034 22.1772 16.2158L21.9079 20.8539H20.5611L21.4028 14.1922C21.6638 12.9951 22.5644 11.9987 23.7555 11.5894C23.8607 11.5546 23.9785 11.5623 24.088 11.6164C24.7108 11.9022 25.6746 12.0644 26.7436 12.0644C27.8126 12.0644 28.7764 11.9022 29.3993 11.6164C29.5129 11.5662 29.6307 11.5546 29.7317 11.5932C30.9186 11.9987 31.8192 12.9912 32.0802 14.1768L32.9219 20.8539H31.5751Z" fill="#F65362"/>
    <path d="M28.49 6.93886C28.7636 6.93886 28.9698 6.70733 28.9698 6.40248C28.9698 6.09762 28.7636 5.86609 28.49 5.86609C28.2165 5.86609 28.0103 6.09762 28.0103 6.40248C28.0103 6.70733 28.2165 6.93886 28.49 6.93886Z" fill="#F65362"/>
    <path d="M27.9388 8.13277C27.9388 7.963 27.7873 7.8241 27.6021 7.8241C27.417 7.8241 27.2655 7.963 27.2655 8.13277C27.2655 8.16749 27.0887 8.31411 26.7436 8.31411C26.3985 8.31411 26.2217 8.16749 26.2217 8.13277C26.2217 7.963 26.0702 7.8241 25.885 7.8241C25.6999 7.8241 25.5483 7.963 25.5483 8.13277C25.5483 8.58034 26.0744 8.93146 26.7436 8.93146C27.4128 8.93146 27.9388 8.58034 27.9388 8.13277Z" fill="#F65362"/>
    <path d="M24.9886 5.86218C24.715 5.86218 24.5088 6.0937 24.5088 6.39854C24.5088 6.70337 24.715 6.93489 24.9886 6.93489C25.2621 6.93489 25.4684 6.70337 25.4684 6.39854C25.4684 6.0937 25.2621 5.86218 24.9886 5.86218Z" fill="#F65362"/>
</svg>
