<svg width="15" height="36" viewBox="0 0 15 36" fill="none" xmlns="http://www.w3.org/2000/svg">
    <path d="M14.1476 21.1937L13.247 14.0687C13.247 14.0571 13.2427 14.0493 13.2427 14.0378C12.9271 12.5818 11.8202 11.3654 10.3598 10.8633C10.0358 10.7513 9.67803 10.7707 9.35818 10.9213C9.25717 10.9676 9.13933 11.0062 9.01307 11.0448V10.3304C9.78325 9.84767 10.4145 9.1062 10.8396 8.2566C10.8775 8.26432 10.9154 8.27591 10.9533 8.27977C11.008 8.28749 11.0627 8.28749 11.1174 8.28749C11.8076 8.28749 12.4305 7.77001 12.5483 7.07101C12.6115 6.69256 12.5147 6.31023 12.2874 6.01673C12.3337 5.71165 12.3505 5.40657 12.3547 5.11307C12.4431 5.04355 12.5525 4.92384 12.5525 4.73074C12.5525 4.6342 12.5231 4.55696 12.4852 4.49131C12.5231 4.42952 12.5525 4.34842 12.5525 4.25188C12.5525 3.45634 12.1317 2.80369 11.6645 2.14332C11.2942 1.62197 10.7849 0.903669 9.97685 0.521347C9.25717 0.181506 8.42386 0.173782 7.6158 0.173782L6.66465 0C6.63519 0.00386183 6.60573 0 6.58048 0C5.72613 0 4.99382 0.347565 4.3499 0.65265L4.26994 0.691268C3.61339 1.00021 2.79692 1.3864 2.32555 2.05063C1.87523 2.68397 1.80789 3.43703 1.80368 4.11285C1.7153 4.18236 1.60587 4.30208 1.60587 4.49517C1.60587 4.59172 1.63533 4.66896 1.67321 4.73461C1.63533 4.7964 1.60587 4.87749 1.60587 4.97404C1.60587 5.36409 1.70267 5.7271 1.84156 6.06694C1.63533 6.35658 1.55116 6.71573 1.61008 7.07488C1.72792 7.77387 2.3508 8.29135 3.04102 8.29135C3.09573 8.29135 3.15044 8.28749 3.20515 8.28363C3.24303 8.27977 3.28091 8.26818 3.31879 8.26046C3.74386 9.11006 4.37515 9.85153 5.14534 10.3343V11.0487C5.01908 11.0101 4.89703 10.9676 4.80023 10.9251C4.47616 10.7784 4.11843 10.7552 3.79857 10.8672C2.33397 11.3692 1.2271 12.5857 0.90724 14.0725L0.00238406 21.1937C-0.0102418 21.3019 0.0276359 21.4139 0.1076 21.495C0.13706 21.5259 0.179147 21.549 0.217024 21.5683L0.191773 21.773C0.141269 22.1515 0.271737 22.5299 0.549507 22.8157C0.823068 23.1015 1.21868 23.2637 1.63533 23.2637H2.26242V33.2851C2.26242 33.4357 2.28767 33.5748 2.33397 33.7061C1.61008 34.0073 1.10084 34.6754 1.10084 35.4555C1.10084 35.7528 1.36598 35.9961 1.69005 35.9961H6.14278C6.46685 35.9961 6.73199 35.7528 6.73199 35.4555V34.7758C6.73199 34.4128 6.55944 34.0884 6.28588 33.8644C6.37005 33.6945 6.42055 33.5053 6.42055 33.3006L6.6899 25.4186C6.69411 25.2448 6.87088 25.1019 7.0771 25.1019C7.28753 25.1019 7.46008 25.2409 7.46429 25.4186L7.73365 33.289C7.73365 33.5014 7.78415 33.6945 7.87253 33.8644C7.59897 34.0923 7.42641 34.4166 7.42641 34.7797V35.4593C7.42641 35.7567 7.69156 36 8.01562 36H12.4684C12.7924 36 13.0576 35.7567 13.0576 35.4516C13.0576 34.6754 12.5483 34.0073 11.8244 33.7099C11.8665 33.5786 11.896 33.4396 11.896 33.289V23.2675H12.5231C12.9355 23.2675 13.3311 23.1053 13.6089 22.8196C13.8825 22.5338 14.0129 22.1553 13.9666 21.7769L13.9414 21.5722C13.9793 21.5529 14.0213 21.5297 14.0508 21.4988C14.1224 21.4139 14.1602 21.3057 14.1476 21.1937ZM11.7066 6.95902C11.6561 7.26411 11.4078 7.49968 11.1426 7.51899C11.2773 7.12894 11.3657 6.72345 11.4078 6.32568C11.4877 6.36044 11.5467 6.4145 11.5845 6.46085C11.694 6.59215 11.7403 6.77365 11.7066 6.95902ZM2.43918 6.95902C2.40972 6.77365 2.45181 6.59215 2.56123 6.46085C2.59911 6.4145 2.65803 6.36044 2.738 6.32568C2.78008 6.72731 2.87267 7.12894 3.00314 7.51899C2.738 7.49968 2.48969 7.26411 2.43918 6.95902ZM3.25566 4.41407C3.06206 4.41794 2.89372 4.54151 2.85163 4.7153C2.78429 4.98949 2.75062 5.25982 2.72958 5.52628C2.66645 5.53401 2.60332 5.54945 2.54019 5.56876C2.4939 5.41815 2.46023 5.26754 2.4476 5.1092C2.53598 5.03969 2.6412 4.91997 2.6412 4.73074C2.6412 4.6342 2.61174 4.55696 2.57386 4.49131C2.61174 4.42952 2.6412 4.34842 2.6412 4.25188C2.6412 3.50654 2.70854 2.91568 3.02839 2.46771C3.37771 1.9734 4.0553 1.65286 4.65293 1.37095L4.73289 1.33233C5.30947 1.05814 5.90289 0.78009 6.53839 0.768505L7.48534 0.942287C7.51059 0.946149 7.54005 0.950011 7.56951 0.950011C8.32285 0.950011 9.03411 0.950011 9.58545 1.20875C10.1494 1.47522 10.5366 1.98112 10.9533 2.56426C11.332 3.09719 11.6477 3.58378 11.6982 4.11285C11.6098 4.18236 11.5046 4.30208 11.5046 4.48745C11.5046 4.58399 11.534 4.66123 11.5719 4.72688C11.534 4.78867 11.5046 4.86977 11.5046 4.96632C11.5046 5.15555 11.5004 5.34478 11.4877 5.53401C11.4625 5.53014 11.4415 5.52242 11.4162 5.51856C11.3994 5.25209 11.3615 4.98176 11.2942 4.70757C11.2521 4.53379 11.0837 4.41021 10.8901 4.40635C9.57282 4.38704 7.62001 3.83866 6.76145 2.98906C6.61415 2.84617 6.40372 2.7728 6.19749 2.78438C5.98706 2.79983 5.79347 2.89637 5.67562 3.05857C5.06958 3.86956 4.57296 4.39477 3.25566 4.41407ZM3.55447 5.83523C3.55447 5.6151 3.57551 5.39884 3.61339 5.17486C4.99803 5.06672 5.663 4.4218 6.26904 3.63785C7.28332 4.54151 9.1225 5.07831 10.5366 5.17486C10.5745 5.39884 10.5955 5.61897 10.5955 5.83523C10.5955 7.82793 9.05937 10.1412 7.07289 10.1412C5.08641 10.1412 3.55447 7.82407 3.55447 5.83523ZM8.16293 10.7282V11.2186C7.82203 11.265 7.45167 11.2881 7.07289 11.2881C6.69411 11.2881 6.32375 11.2611 5.98285 11.2186V10.7282C6.32796 10.844 6.69411 10.9097 7.07289 10.9097C7.45167 10.9097 7.81782 10.844 8.16293 10.7282ZM2.29188 22.4913H1.62692C1.45015 22.4913 1.29023 22.4257 1.17238 22.3021C1.05454 22.1785 1.00404 22.024 1.02508 21.8657L1.05454 21.6263H2.19508L2.19087 21.6803C2.18667 21.7846 2.22454 21.8889 2.30451 21.9661C2.30872 21.97 2.31713 21.9738 2.32555 21.9777L2.29188 22.4913ZM5.88605 35.2276H1.95519C2.04778 34.8028 2.40131 34.463 2.85584 34.3549C3.00314 34.436 3.17149 34.4862 3.35246 34.4862H5.31789C5.44836 34.4862 5.5662 34.4591 5.67983 34.4166C5.80188 34.5016 5.88185 34.6291 5.88185 34.7797V35.2276H5.88605ZM7.07289 24.3257C6.40372 24.3257 5.8608 24.793 5.84397 25.3915L5.57462 33.2851C5.57462 33.5439 5.42311 33.7099 5.31789 33.7099H3.35246C3.24724 33.7099 3.09573 33.5439 3.09573 33.2851V23.1208L3.16728 22.082H10.9869L11.0543 23.0976V33.2851C11.0543 33.5439 10.9027 33.7099 10.7975 33.7099H8.8321C8.72688 33.7099 8.57537 33.5439 8.57537 33.2735L8.30602 25.3915C8.28498 24.793 7.74206 24.3257 7.07289 24.3257ZM12.1906 35.2276H8.26393V34.7758C8.26393 34.6252 8.34811 34.4977 8.46595 34.4128C8.57958 34.4553 8.70163 34.4823 8.82789 34.4823H10.7933C10.9743 34.4823 11.1426 34.4321 11.2899 34.351C11.7445 34.463 12.098 34.799 12.1906 35.2276ZM12.9776 22.3021C12.8598 22.4218 12.6998 22.4913 12.5231 22.4913H11.8581L11.8244 21.9777C11.8286 21.9738 11.8371 21.97 11.8455 21.9661C11.9254 21.8889 11.9675 21.7846 11.9591 21.6803L11.9507 21.6263H13.0912L13.1207 21.8657C13.1459 22.0279 13.0954 22.1824 12.9776 22.3021ZM11.9086 20.8539L11.635 16.2158C11.6224 16.0034 11.4246 15.8412 11.1931 15.8528C10.9701 15.8644 10.7975 16.0343 10.7975 16.239C10.7975 16.2467 10.7933 16.2506 10.7933 16.2583L11.0879 21.3135H3.05785L3.35246 16.2583C3.35246 16.2506 3.34825 16.2467 3.34825 16.239C3.34825 16.0343 3.1799 15.8644 2.95264 15.8528C2.72537 15.8412 2.52336 16.0034 2.51073 16.2158L2.24138 20.8539H0.894615L1.73634 14.1922C1.99728 12.9951 2.89792 11.9987 4.08897 11.5894C4.19418 11.5546 4.31203 11.5623 4.42145 11.6164C5.04433 11.9022 6.00811 12.0644 7.0771 12.0644C8.14609 12.0644 9.10987 11.9022 9.73275 11.6164C9.84638 11.5662 9.96422 11.5546 10.0652 11.5932C11.2521 11.9987 12.1527 12.9912 12.4136 14.1768L13.2554 20.8539H11.9086Z" fill="#F65362"/>
    <path d="M8.82378 6.93886C9.09734 6.93886 9.30356 6.70733 9.30356 6.40248C9.30356 6.09762 9.09734 5.86609 8.82378 5.86609C8.55022 5.86609 8.34399 6.09762 8.34399 6.40248C8.34399 6.70733 8.55022 6.93886 8.82378 6.93886Z" fill="#F65362"/>
    <path d="M8.27233 8.13277C8.27233 7.963 8.12082 7.8241 7.93564 7.8241C7.75046 7.8241 7.59895 7.963 7.59895 8.13277C7.59895 8.16749 7.42219 8.31411 7.07708 8.31411C6.73198 8.31411 6.55521 8.16749 6.55521 8.13277C6.55521 7.963 6.4037 7.8241 6.21853 7.8241C6.03335 7.8241 5.88184 7.963 5.88184 8.13277C5.88184 8.58034 6.40791 8.93146 7.07708 8.93146C7.74625 8.93146 8.27233 8.58034 8.27233 8.13277Z" fill="#F65362"/>
    <path d="M5.32207 5.86218C5.04851 5.86218 4.84229 6.0937 4.84229 6.39854C4.84229 6.70337 5.04851 6.93489 5.32207 6.93489C5.59563 6.93489 5.80185 6.70337 5.80185 6.39854C5.80185 6.0937 5.59563 5.86218 5.32207 5.86218Z" fill="#F65362"/>
</svg>
