<svg width="11" height="26" viewBox="0 0 11 26" fill="none" xmlns="http://www.w3.org/2000/svg">
    <path d="M10.0716 15.7786L9.4423 10.6554C9.4423 10.6448 9.43862 10.6377 9.43862 10.627C9.21415 9.55255 8.42297 8.65599 7.38157 8.28955C7.1387 8.20416 6.87007 8.21839 6.6272 8.33224C6.58672 8.35003 6.54256 8.37137 6.49104 8.38916V7.8555C7.05774 7.47126 7.51405 6.88068 7.81212 6.21182C7.85627 6.2225 7.90043 6.23317 7.94459 6.24028C7.98507 6.24384 8.02923 6.2474 8.06971 6.2474C8.60697 6.2474 9.08167 5.88095 9.18103 5.36864C9.23254 5.09825 9.16999 4.83142 9.00071 4.6144L8.99703 4.61084C9.06695 4.39026 9.10743 4.14477 9.10743 3.86371V3.30515C9.10743 1.48358 7.46253 0 5.4386 0H4.70631C2.68606 0 1.03748 1.48358 1.03748 3.30515V3.86371C1.03748 4.14477 1.07796 4.39026 1.14788 4.61084L1.1442 4.6144C0.978603 4.83142 0.912365 5.09825 0.963884 5.36864C1.05956 5.88095 1.53794 6.2474 2.0752 6.2474C2.11568 6.2474 2.15984 6.24384 2.20032 6.24028C2.24448 6.23673 2.28864 6.2225 2.33279 6.21182C2.62718 6.88068 3.08717 7.47126 3.65387 7.8555V8.38916C3.60603 8.37137 3.55819 8.35359 3.51771 8.33224C3.27484 8.21839 3.00989 8.2006 2.76334 8.28955C1.71826 8.65955 0.930765 9.5561 0.702613 10.659L0.0770357 15.7786C0.0659961 15.8782 0.0991149 15.9814 0.169032 16.0561C0.183752 16.0739 0.205831 16.081 0.220551 16.0952L0.205831 16.2055C0.169032 16.5044 0.264709 16.8032 0.470781 17.0274C0.676854 17.2515 0.971243 17.3796 1.28035 17.3796H1.76609V23.9401C1.76609 24.0148 1.77713 24.0859 1.79185 24.1571C1.22883 24.3777 0.831408 24.9078 0.831408 25.5268C0.831408 25.7865 1.04852 25.9964 1.31715 25.9964H4.4156C4.68423 25.9964 4.90134 25.7865 4.90134 25.5268V25.0323C4.90134 24.7726 4.79462 24.5342 4.62167 24.3599C4.68055 24.2354 4.71735 24.1002 4.71735 23.9543L4.89766 18.5999C4.90134 18.5323 4.97862 18.4754 5.07061 18.4754C5.16261 18.4754 5.23989 18.5323 5.24357 18.5999L5.42388 23.9436C5.42388 24.0966 5.46068 24.2354 5.51956 24.3599C5.3466 24.5378 5.23989 24.7726 5.23989 25.0359V25.5304C5.23989 25.7901 5.457 26 5.72563 26H8.82408C9.09271 26 9.30982 25.7901 9.30982 25.5304C9.30982 24.9078 8.90872 24.3777 8.34938 24.1571C8.3641 24.0859 8.37514 24.0148 8.37514 23.9401V17.3796H8.86088C9.16999 17.3796 9.46806 17.2515 9.67045 17.0274C9.87652 16.8032 9.9722 16.5044 9.9354 16.2055L9.92068 16.0952C9.93908 16.081 9.95748 16.0739 9.9722 16.0561C10.0532 15.9814 10.0863 15.8818 10.0716 15.7786ZM8.45977 5.24056C8.42665 5.41133 8.24634 5.53941 8.05499 5.53229C8.10651 5.33306 8.1433 5.12671 8.16538 4.92392C8.17642 4.92392 8.18746 4.92392 8.1985 4.92748C8.2905 4.93815 8.36778 4.97729 8.41561 5.04132C8.44137 5.08046 8.47449 5.14806 8.45977 5.24056ZM1.68882 5.24056C1.67042 5.14806 1.70354 5.08046 1.73666 5.03777C1.78449 4.97373 1.86177 4.93459 1.95377 4.92392C1.96481 4.92392 1.97585 4.92392 1.98689 4.92036C2.00897 5.12315 2.04576 5.32594 2.09728 5.52874C1.90593 5.54297 1.72194 5.41489 1.68882 5.24056ZM2.06048 3.68582C2.02001 3.86371 1.99425 4.0416 1.97953 4.21949C1.94273 4.21949 1.90593 4.21593 1.86913 4.21949C1.84705 4.22304 1.82865 4.23016 1.80657 4.23372C1.78449 4.12343 1.76977 4.00246 1.76977 3.86727V3.30515C1.77345 1.87493 3.09085 0.711549 4.70631 0.711549H5.4386C7.05406 0.711549 8.37146 1.87493 8.37146 3.30515V3.86371C8.37146 3.99891 8.35674 4.11987 8.33466 4.23016C8.31258 4.2266 8.29418 4.21949 8.2721 4.21593C8.2353 4.21237 8.1985 4.21593 8.16538 4.21593C8.15066 4.0416 8.1249 3.86727 8.08443 3.68227C8.04763 3.52217 7.90043 3.40832 7.73116 3.40476C6.84799 3.39053 6.01634 3.02053 5.50484 2.41215C5.29141 2.15955 4.84982 2.15955 4.63639 2.41215C4.12121 3.0312 3.30796 3.39409 2.41375 3.40832C2.24448 3.41188 2.09728 3.52573 2.06048 3.68582ZM2.6971 4.52189C2.6971 4.38314 2.70814 4.24439 2.72654 4.10564C3.64651 4.02381 4.47816 3.63957 5.07061 3.01697C5.66307 3.63602 6.49472 4.02381 7.41469 4.10564C7.43677 4.24795 7.44413 4.3867 7.44413 4.52189C7.44413 6.10865 6.28865 7.60646 5.06694 7.60646C3.85258 7.60646 2.6971 6.10865 2.6971 4.52189ZM5.75875 8.21483V8.54926C5.54164 8.57417 5.30981 8.5884 5.0743 8.5884C4.83878 8.5884 4.60695 8.57417 4.38984 8.54926V8.21483C4.61063 8.27887 4.83878 8.31801 5.0743 8.31801C5.30981 8.31801 5.53796 8.28243 5.75875 8.21483ZM1.79185 16.668H1.28035C1.181 16.668 1.08532 16.6289 1.01908 16.5542C0.952844 16.4795 0.923405 16.387 0.934445 16.2909L0.949164 16.1771H1.82497L1.79185 16.668ZM4.16905 25.2885H1.60786C1.70354 25.0145 1.95377 24.8082 2.25552 24.769C2.35855 24.8188 2.46895 24.8473 2.5867 24.8473H3.90042C3.9593 24.8473 4.01449 24.8402 4.06969 24.8295C4.12857 24.8793 4.17273 24.9505 4.17273 25.0359V25.2885H4.16905ZM5.0743 17.7567C4.58119 17.7567 4.18009 18.1125 4.16537 18.5714L3.98505 23.9401C3.98505 24.0646 3.91882 24.1322 3.90042 24.1357H2.59038C2.56831 24.1322 2.50575 24.0646 2.50575 23.9401V17.0416L2.59406 15.7217H7.55821L7.64652 17.0203V23.9436C7.64652 24.0681 7.58028 24.1357 7.56188 24.1393H6.25185C6.22977 24.1357 6.16721 24.0681 6.16721 23.9329L5.98322 18.5714C5.9685 18.116 5.5674 17.7567 5.0743 17.7567ZM8.53705 25.2885H5.97586V25.0323C5.97586 24.9505 6.01634 24.8758 6.0789 24.8259C6.1341 24.8402 6.18929 24.8437 6.24817 24.8437H7.56188C7.67964 24.8437 7.79004 24.8153 7.89307 24.7655C8.19482 24.8082 8.44505 25.0109 8.53705 25.2885ZM9.12583 16.5542C9.05959 16.6289 8.96759 16.668 8.86456 16.668H8.35674L8.32362 16.1771H9.19942L9.21414 16.2909C9.22518 16.387 9.19207 16.4795 9.12583 16.5542ZM8.52969 15.4655C8.54073 15.4264 8.55177 15.3837 8.54809 15.341L8.32362 12.1284C8.3089 11.9327 8.13226 11.7868 7.93355 11.7975C7.73852 11.8117 7.595 11.9683 7.595 12.1533C7.595 12.1604 7.59132 12.1675 7.59132 12.1782L7.78636 15.0101H2.36223L2.55727 12.1782C2.55727 12.171 2.55359 12.1639 2.55359 12.1533C2.55359 11.9683 2.41007 11.8117 2.21504 11.7975C2.00897 11.7868 1.83601 11.9327 1.82497 12.1284L1.6005 15.341C1.59682 15.3837 1.60418 15.4264 1.6189 15.4655H0.857167L1.43123 10.7729C1.60786 9.94034 2.21504 9.24302 3.02093 8.9584C3.09453 8.9335 3.16444 8.9584 3.19756 8.97263C3.63915 9.18254 4.3236 9.29994 5.0743 9.29994C5.82499 9.29994 6.51312 9.17898 6.95471 8.97263C6.99151 8.95484 7.06142 8.9335 7.13134 8.9584C7.93355 9.24302 8.53705 9.92967 8.71736 10.7551L9.2951 15.462H8.52969V15.4655Z" fill="#F65362"/>
    <path d="M4.18066 6.20814C4.18066 6.05173 4.31314 5.92375 4.47505 5.92375C4.63329 5.92375 4.76208 6.04462 4.76944 6.19392C4.77312 6.19748 4.78048 6.20459 4.78784 6.20814C4.82832 6.24014 4.92032 6.2828 5.07487 6.2828C5.22574 6.2828 5.32142 6.23658 5.3619 6.20814C5.37294 6.20103 5.3803 6.19392 5.38398 6.18681C5.38398 6.0304 5.51277 5.91309 5.67469 5.91309C5.8366 5.91309 5.9654 6.05173 5.9654 6.20814C5.9654 6.57075 5.57165 6.85159 5.07119 6.85159C4.57073 6.85159 4.18066 6.57075 4.18066 6.20814Z" fill="#F65362"/>
    <path d="M3.85683 5.3326C3.66548 5.3326 3.52197 5.16195 3.52197 4.93797C3.52197 4.71399 3.66548 4.54333 3.85683 4.54333C4.04818 4.54333 4.19169 4.71399 4.19169 4.93797C4.19169 5.16195 4.0445 5.3326 3.85683 5.3326Z" fill="#F65362"/>
    <path d="M5.95801 4.93797C5.95801 4.71399 6.10153 4.54333 6.29288 4.54333C6.48424 4.54333 6.62776 4.71399 6.62776 4.93797C6.62776 5.16195 6.48424 5.3326 6.29288 5.3326C6.10153 5.3326 5.95801 5.16195 5.95801 4.93797Z" fill="#F65362"/>
    <path d="M4.55981 10.3206C4.55981 10.0469 4.79164 9.823 5.07499 9.823C5.35833 9.823 5.59016 10.0469 5.59016 10.3206C5.59016 10.5943 5.35833 10.8182 5.07499 10.8182C4.79164 10.8182 4.55981 10.5978 4.55981 10.3206Z" fill="#F65362"/>
    <path d="M4.55981 11.7436C4.55981 11.4699 4.79164 11.246 5.07499 11.246C5.35833 11.246 5.59016 11.4699 5.59016 11.7436C5.59016 11.9107 5.50552 12.06 5.37305 12.1489C5.28842 12.2058 5.18538 12.2413 5.07499 12.2413C4.96459 12.2413 4.86156 12.2058 4.77692 12.1489C4.64445 12.06 4.55981 11.9143 4.55981 11.7436Z" fill="#F65362"/>
</svg>
