<svg width="35" height="38" viewBox="0 0 35 38" fill="none" xmlns="http://www.w3.org/2000/svg">
    <path d="M18.6259 17.962C18.6259 17.2213 17.9328 16.5975 17.1098 16.5975C16.2868 16.5975 15.5938 17.2213 15.5938 17.962C15.5938 18.4688 15.897 18.8976 16.2868 19.1315L15.8536 22.0164H18.3227L17.8895 19.1315C18.3227 18.8976 18.6259 18.4688 18.6259 17.962Z" fill="white"/>
    <path d="M17.1097 8.7616C15.3771 8.7616 13.991 10.0481 13.991 11.5685V13.8685H20.2718V11.5685C20.2285 10.0481 18.8424 8.7616 17.1097 8.7616Z" fill="white"/>
    <path d="M32.7902 4.74631L19.2323 0.886865C17.8462 0.497021 16.3301 0.497021 14.944 0.886865L1.38612 4.74631C0.563113 4.98021 0 5.68194 0 6.46163V11.0618C0 21.5876 5.71771 31.4506 15.2905 37.4932C15.8103 37.8441 16.4601 38 17.0665 38C17.6729 38 18.3227 37.8441 18.8425 37.4932C23.6505 34.4914 27.4623 30.515 30.1046 25.9538C32.7469 21.4316 34.1763 16.3247 34.1763 11.0618V6.46163C34.2197 5.68194 33.6132 4.98021 32.7902 4.74631ZM24.4302 24.5894H9.7461V13.8687H11.7386V11.5686C11.7386 8.91764 14.121 6.73453 17.1098 6.73453C20.0986 6.73453 22.481 8.87865 22.481 11.5686V13.8687H24.4735V24.5894H24.4302Z" fill="white"/>
</svg>
