<svg width="63" height="62" viewBox="0 0 63 62" fill="none" xmlns="http://www.w3.org/2000/svg">
    <path d="M41.7384 17.6616C41.0509 17.3204 40.102 17.8048 39.9673 18.5854H42.2433C42.2914 18.1601 42.1093 17.8459 41.7384 17.6616Z" fill="white"/>
    <path d="M24.5564 32.5392C24.0939 32.5817 23.7844 32.8831 23.7394 33.3381C23.7267 33.4937 23.7713 33.6487 23.8651 33.7746C23.9588 33.9005 24.0955 33.9889 24.25 34.0236C24.822 34.1439 25.3474 33.7923 25.4186 33.2216C25.4467 32.9965 25.4232 32.7649 25.4232 32.4586C25.1042 32.4883 24.8305 32.5143 24.5564 32.5392Z" fill="white"/>
    <path d="M23.3188 40.5985C23.3104 40.6832 23.2999 40.7496 23.2981 40.8163C23.2953 40.9418 23.2981 41.0669 23.2981 41.1924C23.2957 41.356 23.3887 41.4109 23.5396 41.4116C23.7413 41.4116 23.8968 41.2955 23.941 41.1039C24.0294 40.7216 23.7712 40.4962 23.3188 40.5985Z" fill="white"/>
    <path d="M25.9424 20.6769C25.769 20.9417 25.7774 21.2276 25.9543 21.4893C26.1206 21.7358 26.3873 21.8005 26.6642 21.7659C27.1299 21.7099 27.4938 21.3165 27.525 20.8546C27.5391 20.6493 27.5275 20.4422 27.5275 20.1711C27.0664 20.1898 26.6474 20.1808 26.2642 20.3741C26.1328 20.4468 26.0221 20.551 25.9424 20.6769Z" fill="white"/>
    <path d="M40.437 29.845C39.8839 29.8104 39.314 30.142 39.0792 30.6443C39.048 30.711 39.0441 30.7895 39.0178 30.8911H41.3283C41.3943 30.3546 40.9742 29.8799 40.437 29.845Z" fill="white"/>
    <path d="M31.6761 0.402588C14.4367 0.402588 0.46167 14.17 0.46167 31.1531C0.46167 48.1362 14.4367 61.9036 31.6761 61.9036C48.9154 61.9036 62.8905 48.1362 62.8905 31.1531C62.8905 14.17 48.9154 0.402588 31.6761 0.402588ZM27.5275 18.2852C27.5072 18.0125 27.357 17.8158 27.1004 17.7546C26.8173 17.6908 26.5279 17.6578 26.2375 17.6561C25.6901 17.6467 25.1791 17.8085 24.6864 18.0332C24.5738 18.0844 24.4583 18.1293 24.3068 18.1929C24.2587 18.0509 24.2155 17.9478 24.1888 17.841C24.092 17.4492 23.9984 17.0574 23.9081 16.6656C23.8334 16.3403 23.8632 16.276 24.1815 16.1298C24.725 15.8802 25.2967 15.746 25.895 15.6752C26.6997 15.5801 27.4808 15.6378 28.2367 15.9141C28.9789 16.1851 29.5678 16.64 29.825 17.411C29.9027 17.6394 29.9474 17.8775 29.958 18.1183C29.9783 18.7167 29.9629 19.3161 29.972 19.9159C29.978 20.2962 30.0022 20.6744 30.0194 21.0537C30.0426 21.5612 30.2391 21.9663 30.7212 22.2049C30.7704 22.2294 30.8086 22.274 30.9139 22.3632C30.8111 22.4323 30.7209 22.4873 30.6391 22.5516C30.2278 22.8748 29.8138 23.1953 29.4109 23.5279C29.2154 23.689 29.0319 23.7132 28.8035 23.597C28.4754 23.4332 28.199 23.1842 28.0041 22.8769C27.85 23.0031 27.7233 23.1234 27.583 23.2188C26.9899 23.6157 26.3274 23.6821 25.6367 23.5942C25.5211 23.5784 25.4068 23.5544 25.2946 23.5227C24.0664 23.186 23.5372 22.2705 23.4775 21.2518C23.4151 20.1801 24.0548 19.2771 25.1153 18.8857C25.5781 18.715 26.0628 18.6555 26.5512 18.605C26.8064 18.5788 27.0615 18.5528 27.3173 18.5359C27.4826 18.5238 27.5387 18.4367 27.5275 18.2852ZM13.5258 28.5472C13.4184 29.007 13.3073 29.4657 13.1924 29.9234C13.118 30.2214 13.0801 30.2515 12.7565 30.2543C12.2652 30.2584 11.7757 30.2543 11.2493 30.2543C11.2318 30.3701 11.2051 30.4672 11.2044 30.5654C11.2013 31.3719 11.1974 32.1785 11.2044 32.9853C11.2093 33.5077 11.4501 33.7369 11.9817 33.7459C12.2252 33.7497 12.4691 33.7459 12.7607 33.7459C12.7607 33.8904 12.7713 34.0128 12.7586 34.1324C12.7172 34.5213 12.6681 34.9095 12.6183 35.2978C12.5969 35.4679 12.5337 35.6023 12.3407 35.6518C11.3715 35.8996 10.444 35.854 9.58281 35.295C8.99221 34.912 8.67533 34.3723 8.6648 33.6774C8.64901 32.6749 8.65322 31.6724 8.64725 30.6698C8.64725 30.5467 8.63567 30.4233 8.6276 30.255C8.36862 30.255 8.13842 30.255 7.90786 30.255C7.81417 30.255 7.72047 30.255 7.62713 30.2505C7.47623 30.2436 7.38745 30.1723 7.38745 30.0147C7.38745 29.4729 7.38745 28.9313 7.38745 28.3899C7.38745 28.2426 7.47728 28.1859 7.61028 28.1825C7.83206 28.1742 8.05385 28.1648 8.27703 28.1669C8.60304 28.1704 8.64585 28.1358 8.64655 27.8212C8.64655 27.4983 8.64866 27.1758 8.64374 26.8532C8.64129 26.697 8.69428 26.5894 8.85149 26.5341C9.55333 26.287 10.2552 26.0356 10.9595 25.7881C11.0016 25.7732 11.0507 25.7777 11.1402 25.7691C11.1613 25.916 11.1974 26.0584 11.1988 26.2009C11.2051 26.7426 11.2023 27.2843 11.1988 27.8257C11.1967 28.1507 11.2083 28.1714 11.5536 28.1738C12.08 28.1783 12.6063 28.1738 13.1327 28.1769C13.2682 28.1769 13.4036 28.197 13.564 28.2115C13.5468 28.3474 13.5468 28.45 13.524 28.5472H13.5258ZM15.1249 20.7543C15.113 20.6457 15.1231 20.5348 15.1231 20.3622C15.2986 20.4469 15.4239 20.5005 15.5411 20.5645C16.1254 20.887 16.7311 21.1667 17.401 21.2479C17.827 21.2998 18.2688 21.3295 18.6917 21.2766C19.3195 21.1985 19.67 20.7685 19.6184 20.2243C19.5911 19.937 19.4623 19.7058 19.218 19.5713C18.9457 19.4212 18.6478 19.3155 18.3569 19.2003C17.8817 19.0119 17.3792 18.8754 16.9307 18.6386C16.0678 18.1829 15.4878 17.4936 15.2986 16.5121C14.9565 14.7376 16.0899 13.1014 17.8989 12.7972C19.0205 12.6006 20.1755 12.7181 21.2327 13.1363C21.5973 13.2791 21.6152 13.3022 21.5359 13.669C21.4306 14.153 21.3176 14.6346 21.2053 15.1169C21.185 15.204 21.1523 15.2897 21.1078 15.4308C20.9569 15.3682 20.8519 15.3253 20.747 15.2814C20.1827 15.0453 19.6016 14.8759 18.9815 14.9143C18.7614 14.9336 18.5442 14.9774 18.3341 15.0449C18.0182 15.1386 17.86 15.3803 17.8316 15.6883C17.8143 15.8278 17.8423 15.969 17.9117 16.0918C17.9811 16.2145 18.0882 16.3124 18.2176 16.3714C18.5081 16.5145 18.8215 16.6134 19.1236 16.7351C19.63 16.9394 20.1634 17.0984 20.6365 17.3619C22.2823 18.2783 22.8234 20.2834 21.8998 21.9155C21.5946 22.4678 21.1029 22.8975 20.5098 23.13C19.6648 23.4684 18.7903 23.6063 17.8716 23.5057C17.1581 23.4276 16.4679 23.2838 15.8029 23.0218C15.4899 22.899 15.3155 22.7286 15.299 22.3649C15.2747 21.8273 15.1828 21.2919 15.1249 20.7543ZM20.7519 28.3795C20.5824 29.1314 20.4031 29.8816 20.2255 30.6314C20.2098 30.6765 20.1876 30.7191 20.1596 30.758C19.8146 30.7255 19.5279 30.6771 19.238 30.6757C18.9427 30.6728 18.6566 30.7768 18.434 30.968C18.2113 31.1592 18.0676 31.4242 18.0302 31.7128C17.9936 31.975 17.9744 32.2392 17.9726 32.5038C17.966 33.414 17.9709 34.3239 17.9691 35.2348C17.9691 35.3583 17.9565 35.4817 17.9505 35.5954C17.6442 35.6763 15.8053 35.6825 15.4558 35.6044C15.4418 35.481 15.4134 35.3472 15.413 35.2131C15.4102 33.0123 15.4102 30.8113 15.413 28.6101C15.413 28.2298 15.4562 28.1811 15.8274 28.1769C16.4123 28.17 16.9972 28.17 17.5821 28.1769C17.926 28.1807 17.9488 28.2115 17.953 28.5641C17.9558 28.8023 17.953 29.0405 18.0046 29.2925C18.0516 29.2196 18.0972 29.1459 18.1449 29.0744C18.5836 28.4293 19.1728 28.049 19.9845 28.0632C20.1711 28.0666 20.3603 28.0632 20.5459 28.0895C20.7316 28.1157 20.7919 28.2022 20.7519 28.3795ZM24.8075 41.0493C24.7528 41.6933 24.3478 42.0805 23.6846 42.084C23.3607 42.084 23.0357 42.0366 22.7129 41.9972C22.5725 41.9799 22.4893 41.889 22.49 41.7348C22.4942 40.7789 22.4953 39.8234 22.4995 38.8679C22.4995 38.8357 22.5202 38.8039 22.5441 38.7358H23.3161C23.3351 39.1016 23.3533 39.4493 23.3708 39.7864C23.5635 39.7864 23.7158 39.7646 23.8597 39.7902C24.4619 39.8967 24.8602 40.4329 24.8075 41.0493ZM27.317 40.1504C27.0299 40.8906 26.7418 41.6308 26.4453 42.3671C26.3843 42.5163 26.3042 42.6572 26.207 42.7864C25.9613 43.1183 25.6427 43.2065 25.2497 43.0713C25.0135 42.9901 24.9889 42.9565 25.0244 42.7232C25.0401 42.6495 25.0607 42.577 25.0861 42.5061C25.1212 42.4898 25.1444 42.4715 25.1637 42.4715C25.6094 42.5133 25.8392 42.2247 25.6662 41.8129C25.4479 41.2944 25.2069 40.7824 24.9788 40.2666C24.9244 40.1435 24.883 40.0153 24.8209 39.8517H25.7332C25.8698 40.2085 26.0042 40.5611 26.1687 40.9926C26.3179 40.5653 26.4432 40.2071 26.5705 39.8417H27.3913C27.3619 39.9606 27.3517 40.0592 27.317 40.1487V40.1504ZM28.5287 34.8591C28.1293 35.1782 27.7195 35.4848 27.3285 35.8136C27.1201 35.9888 26.9313 35.9982 26.6937 35.8789C26.3723 35.7175 26.1301 35.4775 25.9238 35.192C25.8799 35.2093 25.8403 35.2131 25.8185 35.2348C25.0114 36.0991 23.4091 36.1147 22.4191 35.4668C21.1646 34.6458 20.8702 32.4108 22.5353 31.4103C23.088 31.0781 23.7046 30.9685 24.3359 30.9108C24.6261 30.8845 24.916 30.8568 25.2065 30.8368C25.3683 30.8257 25.4329 30.7452 25.4318 30.5924C25.4318 30.3276 25.2841 30.1599 25.0521 30.0641C24.7268 29.9316 24.3711 29.8883 24.0229 29.939C23.4523 30.0137 22.8999 30.1509 22.39 30.4202C22.3507 30.4413 22.3037 30.4482 22.2082 30.4779C22.1514 30.2809 22.0988 30.1191 22.0581 29.9542C21.9724 29.6085 21.8921 29.2607 21.8124 28.9133C21.7478 28.6322 21.7608 28.5593 22.0342 28.4549C22.4553 28.2941 22.8859 28.1354 23.3266 28.0431C24.266 27.8464 25.2037 27.8775 26.1186 28.199C27.2548 28.598 27.8812 29.4367 27.9044 30.619C27.9195 31.3795 27.9016 32.1401 27.9128 32.8986C27.9201 33.1622 27.9474 33.425 27.9942 33.6847C28.0532 34.0342 28.2504 34.2952 28.5722 34.4629C28.6483 34.5087 28.7217 34.5589 28.7919 34.6133C28.6933 34.7059 28.6161 34.7879 28.5287 34.8573V34.8591ZM35.9531 28.7097C35.3051 30.3856 34.6542 32.0606 34.0006 33.7345C33.7875 34.2821 33.5741 34.8295 33.3605 35.3766C33.2268 35.7178 33.2107 35.7285 32.8555 35.7299C32.4578 35.732 32.0601 35.732 31.6624 35.7299C31.3178 35.7299 31.2989 35.7171 31.176 35.4008C30.6847 34.1332 30.1944 32.8656 29.705 31.598C29.3271 30.6204 28.9494 29.6425 28.5718 28.6644C28.5227 28.5371 28.4796 28.4075 28.4125 28.2198C28.6119 28.2022 28.748 28.1811 28.8842 28.1793C29.4456 28.171 30.0071 28.1683 30.5661 28.1652C30.8118 28.1652 30.8799 28.2115 30.983 28.4964C31.4013 29.6547 31.8175 30.8141 32.2316 31.9745C32.2509 32.0281 32.2706 32.082 32.3074 32.1819C32.3502 32.0824 32.3807 32.0198 32.4043 31.9548C32.8279 30.7861 33.2507 29.6169 33.6725 28.4473C33.7321 28.2817 33.816 28.1624 34.0171 28.1648C34.6245 28.1721 35.232 28.1742 35.8394 28.1811C35.9121 28.1875 35.9842 28.1991 36.0552 28.2156C36.1181 28.4027 36.0128 28.5541 35.9531 28.7079V28.7097ZM34.9572 17.9523C34.9439 18.1286 34.9221 18.2728 34.9221 18.4173C34.9221 19.89 34.9221 21.3639 34.9221 22.8389C34.9221 23.372 34.9063 23.3875 34.3792 23.3892C33.8651 23.391 33.3507 23.3937 32.8352 23.3872C32.4692 23.3827 32.4397 23.3498 32.4393 22.9848C32.4393 21.4867 32.4393 19.9899 32.4393 18.4944C32.4393 18.4021 32.4425 18.3098 32.4393 18.2178C32.4281 17.9852 32.4088 17.961 32.174 17.9551C31.9088 17.9482 31.6428 17.9534 31.3936 17.9534C31.301 17.6806 31.2813 16.4177 31.3501 15.9455C31.5905 15.8522 31.8484 15.9109 32.0997 15.9013C32.4246 15.8878 32.4372 15.8854 32.4397 15.5708C32.4436 15.0304 32.4302 14.4918 32.5713 13.9594C32.9092 12.6852 34.0027 11.7445 35.4839 11.6857C36.1131 11.6605 36.7448 11.6512 37.3617 11.8206C37.6463 11.8983 37.6849 11.9433 37.6228 12.2313C37.5231 12.6924 37.4158 13.1515 37.307 13.6103C37.2863 13.6964 37.2368 13.7759 37.1933 13.8806C37.0336 13.846 36.8897 13.798 36.7427 13.7855C36.4535 13.761 36.1588 13.7209 35.8735 13.751C35.4131 13.7997 35.0892 14.1181 35.0021 14.5731C34.9551 14.8199 34.9467 15.0747 34.9319 15.3264C34.9214 15.4971 34.9298 15.6686 34.9298 15.9064H37.0304C37.0132 16.0423 37.0101 16.1325 36.9897 16.2176C36.8743 16.6988 36.7588 17.1797 36.6353 17.6588C36.5651 17.9274 36.5367 17.9471 36.2493 17.9503C35.8296 17.9558 35.4109 17.9523 34.9572 17.9523ZM43.3919 31.8514C43.1842 32.0372 42.9862 32.2334 42.7989 32.4391C42.7455 32.5001 42.6792 32.5488 42.6046 32.5817C42.53 32.6146 42.449 32.631 42.3673 32.6296C41.9812 32.6272 41.5952 32.6258 41.2092 32.6279C40.5432 32.6313 39.8771 32.6371 39.2111 32.6452C39.1567 32.6452 39.1023 32.6721 39.011 32.6963C39.1128 33.0293 39.3241 33.2218 39.5687 33.3843C40.2049 33.8071 40.9148 33.8728 41.6514 33.7819C42.1032 33.7242 42.5421 33.5924 42.9498 33.3919C43.0175 33.3573 43.0975 33.3501 43.2284 33.3151C43.2017 33.5952 43.1821 33.8316 43.1558 34.0671C43.1137 34.4442 43.0624 34.8204 43.0245 35.1979C43.007 35.3707 42.9147 35.4627 42.7571 35.5218C41.4194 36.0238 40.0785 36.1112 38.7363 35.5443C37.535 35.0372 36.7888 34.1542 36.4977 32.8951C36.2398 31.7698 36.3525 30.6995 36.9754 29.7039C37.5617 28.767 38.425 28.2264 39.5069 28.0099C40.2889 27.8483 41.102 27.9175 41.8444 28.2087C43.0063 28.6581 43.786 29.7762 43.7773 30.9647C43.7762 31.3163 43.6706 31.6125 43.3919 31.8514ZM44.3394 19.5409C44.1487 19.7108 43.9674 19.8908 43.7966 20.0802C43.7199 20.167 43.6246 20.236 43.5176 20.2822C43.4107 20.3285 43.2947 20.3509 43.1779 20.3477C42.2304 20.3512 41.2829 20.3612 40.3382 20.3685C40.2144 20.3685 40.0905 20.3685 39.8898 20.3685C40.2056 21.0087 40.6846 21.2988 41.2583 21.4274C42.0727 21.6151 42.9274 21.5283 43.6857 21.1809C43.8099 21.1252 43.9369 21.0747 44.1166 20.999C44.1219 21.1619 44.1384 21.2825 44.1271 21.4004C44.0815 21.8695 44.0271 22.338 43.9766 22.8067C43.9555 23.0027 43.8839 23.158 43.6783 23.233C42.1879 23.7768 40.7063 23.8373 39.2795 23.066C38.1495 22.4555 37.533 21.4758 37.3494 20.2205C37.2442 19.4876 37.3028 18.773 37.5695 18.0823C38.0934 16.7244 39.116 15.9631 40.5456 15.6969C41.477 15.5241 42.3644 15.6537 43.1821 16.1194C44.1724 16.6829 44.6644 17.5534 44.6977 18.6776C44.71 19.0175 44.6075 19.3075 44.3401 19.5409H44.3394ZM48.4038 34.1739C48.1873 34.6828 47.9606 35.1875 47.7486 35.6981C47.6707 35.8865 47.556 35.948 47.3486 35.9422C46.0877 35.9076 45.1602 35.09 45.0055 33.8524C44.972 33.5903 44.9547 33.3265 44.9535 33.0624C44.9475 30.2311 44.9446 27.3998 44.9451 24.5684C44.9451 23.9593 44.9451 23.959 45.5592 23.9583C46.0382 23.9583 46.5172 23.9562 46.9963 23.9583C47.1342 23.9583 47.2721 23.9742 47.4612 23.9859C47.4707 24.1858 47.4847 24.3441 47.4847 24.5028C47.4861 27.2073 47.4861 29.912 47.4847 32.6168C47.4847 32.7665 47.4847 32.9165 47.4925 33.0662C47.5216 33.5157 47.7234 33.7552 48.1669 33.8748C48.2533 33.898 48.3392 33.9232 48.442 33.9523C48.4287 34.0439 48.4298 34.1144 48.4045 34.1739H48.4038ZM53.0781 35.695C51.973 35.9677 50.8774 35.8547 49.8173 35.4378C49.6545 35.3738 49.5281 35.2725 49.5085 35.0945C49.4415 34.4888 49.3818 33.8821 49.3232 33.2757C49.3197 33.236 49.3492 33.1935 49.3769 33.1119C49.5141 33.1859 49.6334 33.2484 49.751 33.3134C50.3595 33.6508 50.9996 33.8856 51.7091 33.8724C51.8486 33.87 51.9862 33.8405 52.1141 33.7857C52.439 33.6418 52.4696 33.2948 52.1706 33.1088C52.0151 33.0123 51.8298 32.9629 51.6589 32.8903C51.2729 32.7264 50.8694 32.5975 50.5107 32.39C48.9523 31.4888 49.0674 29.2396 50.5855 28.4227C51.2666 28.0563 51.9986 27.9412 52.7538 28.03C53.2476 28.0884 53.7364 28.2143 54.2179 28.3411C54.5491 28.4289 54.56 28.4846 54.4832 28.8175C54.4003 29.1764 54.3186 29.5355 54.2319 29.8934C54.2028 30.013 54.1617 30.1291 54.1136 30.2795C53.9382 30.2294 53.7978 30.1806 53.6539 30.1499C53.2795 30.0693 52.9054 29.9853 52.5271 29.9276C52.4096 29.9096 52.2731 29.9549 52.1572 30.0009C52.0848 30.0267 52.0229 30.0752 51.9813 30.1391C51.9396 30.2029 51.9204 30.2785 51.9267 30.3542C51.9313 30.5115 52.0197 30.6124 52.1548 30.6743C52.2492 30.7179 52.3527 30.7434 52.451 30.778C52.8433 30.9236 53.2486 31.0432 53.6248 31.2222C54.3544 31.57 54.8232 32.1429 54.9372 32.9435C55.1324 34.3056 54.4333 35.3596 53.0788 35.6943L53.0781 35.695Z" fill="white"/>
    <path d="M52.0085 39.1338C44.3491 39.1338 36.6895 39.1349 29.0299 39.1372C28.9758 39.1372 28.9218 39.1718 28.873 39.187C28.7951 39.6147 28.819 61.6693 28.8972 61.9203H52.2191V39.187C52.1405 39.1663 52.0745 39.1341 52.0085 39.1338ZM46.2955 43.0185C46.9097 42.8135 47.4795 42.7979 48.0322 43.1768C48.8446 43.7334 48.9404 44.5634 48.7088 45.2033C48.5899 45.5314 48.3684 45.8256 48.1726 46.1236C47.8245 46.6515 47.4599 47.1687 47.1037 47.6914C46.9026 47.9863 46.7044 48.2832 46.5071 48.5795C46.4633 48.6445 46.4219 48.7116 46.3429 48.7523C46.2885 48.3499 46.218 47.9991 46.5078 47.6395C46.9261 47.121 47.2606 46.5371 47.6308 45.9801C47.7778 45.7606 47.9298 45.5439 48.0768 45.3233C48.4207 44.8082 48.3828 44.2229 47.9624 43.7738C47.5743 43.359 46.9616 43.2487 46.4619 43.5191C46.4233 43.5398 46.3819 43.5557 46.2959 43.5941L46.2955 43.0185ZM46.6391 50.2987C46.4882 50.0249 46.591 49.6467 46.8461 49.5112C47.1658 49.3411 47.6013 49.4185 47.7585 49.684C47.8396 49.8202 47.8606 49.9761 47.7424 50.1009C47.602 50.2493 47.4413 50.3775 47.2715 50.5338L47.9326 51.1719C48.0508 50.8017 48.0508 50.8017 47.6743 50.5379H48.4628C48.2572 50.6842 48.2144 50.9002 48.1495 51.1076C48.0709 51.3579 48.0863 51.4278 48.3186 51.5505C48.4376 51.6131 48.5734 51.6442 48.7106 51.6926C48.4372 51.8246 48.1674 51.8046 47.8684 51.6324C47.5413 51.7825 47.2016 51.8952 46.8293 51.7742C46.49 51.6642 46.2973 51.396 46.3787 51.1045C46.4156 50.9975 46.4754 50.8995 46.5542 50.8173C46.6286 50.7322 46.7296 50.6693 46.8349 50.5818C46.7647 50.4909 46.6993 50.3964 46.6391 50.2987ZM47.0314 43.6504C47.6217 43.6504 48.0052 44.0082 48.0242 44.6212C48.0287 45.1743 47.5911 45.6137 47.0356 45.6095C46.5247 45.6057 46.0531 45.1715 46.0531 44.6436C46.0548 44.1272 46.3945 43.647 47.0314 43.6504ZM44.862 53.8868C44.7469 53.7831 44.5813 53.734 44.4388 53.6621C44.2662 53.5753 44.0721 53.5162 43.923 53.4004C43.6243 53.1691 43.6605 52.7345 43.9788 52.5254C44.3571 52.2765 44.7564 52.3726 45.1719 52.4469V52.9827L45.1189 52.9973C45.0907 52.9571 45.0649 52.9153 45.0417 52.8721C44.8989 52.5689 44.741 52.4874 44.4058 52.5264C44.2304 52.5465 44.129 52.6384 44.0788 52.7933C44.0569 52.871 44.0614 52.9536 44.0916 53.0285C44.1218 53.1034 44.1761 53.1665 44.2462 53.2081C44.3163 53.25 44.396 53.2711 44.4686 53.3074C44.6757 53.4111 44.8898 53.5055 45.0849 53.6285C45.3596 53.8014 45.4049 54.1523 45.1982 54.405C45.1231 54.5008 45.0288 54.5805 44.9212 54.6391C44.8136 54.6976 44.6949 54.7339 44.5725 54.7455C44.4441 54.7556 44.315 54.7556 44.1865 54.7455C43.7145 54.7158 43.6507 54.6179 43.7963 54.0652C43.8552 54.1796 43.8787 54.2435 43.917 54.2964C44.1086 54.5609 44.4107 54.6484 44.7206 54.5339C45.0403 54.4164 45.1157 54.1115 44.862 53.885V53.8868ZM43.7436 51.7475C43.7787 51.7054 43.7994 51.6556 43.8275 51.6511C44.0132 51.6227 44.0342 51.4973 44.0335 51.3469C44.0314 50.8867 44.03 50.4263 44.0363 49.9661C44.0391 49.7587 44.0135 49.5786 43.765 49.4946H44.7248C44.3142 49.6277 44.3553 49.9094 44.3564 50.1739C44.3564 50.5196 44.3518 50.8653 44.3588 51.2093C44.3651 51.5377 44.4483 51.6172 44.7729 51.6283C44.8782 51.6317 44.9834 51.6283 45.0887 51.6262C45.3038 51.6186 45.4786 51.5591 45.5246 51.3151C45.533 51.2705 45.5853 51.2335 45.6176 51.1934L45.6877 51.2165V51.7168C45.4358 51.7859 44.2992 51.8049 43.7436 51.7458V51.7475ZM44.0181 46.5198C44.2622 46.5196 44.506 46.5364 44.7476 46.5703C45.3544 46.666 45.6344 47.2302 45.6502 47.6133C45.6607 47.8617 45.5879 48.1066 45.443 48.3102C45.2982 48.5138 45.0893 48.6648 44.8487 48.7399C44.7501 48.7757 44.6468 48.7975 44.542 48.8046C44.043 48.8115 43.5433 48.8077 43.0443 48.8077L42.9993 48.7385C43.3022 48.7129 43.3074 48.5256 43.3032 48.3175C43.2948 47.9026 43.3008 47.4902 43.3004 47.0764C43.3004 46.7417 43.3004 46.7417 42.9769 46.5319C43.3604 46.5264 43.6896 46.5139 44.0181 46.5198ZM43.1794 53.1622C43.1727 53.4837 43.1762 53.8055 43.1794 54.127C43.1825 54.4485 43.1818 54.4434 43.4468 54.6542C43.1483 54.7209 42.8373 54.7098 42.5445 54.6221C42.7979 54.5664 42.8327 54.4095 42.8253 54.2021C42.813 53.7872 42.8218 53.3748 42.8211 52.9613C42.8211 52.6211 42.8211 52.6211 42.52 52.4313H43.4819C43.0874 52.5997 43.185 52.8981 43.1794 53.1615V53.1622ZM41.6844 51.751C41.9697 51.6089 41.9301 51.3566 41.9276 51.1149C41.9238 50.7236 41.9189 50.3319 41.9276 49.9395C41.9325 49.7383 41.9073 49.5734 41.6409 49.5433L41.6788 49.4742H43.3685V50.0335C43.2071 49.8745 43.1762 49.6294 42.9316 49.6342C42.7372 49.6384 42.5424 49.6342 42.3228 49.6342C42.315 49.777 42.3056 49.9008 42.3028 50.0245C42.2993 50.1597 42.3028 50.2949 42.3028 50.4577C42.6095 50.4429 42.9028 50.5905 43.0909 50.1895C43.2088 50.4536 43.145 50.6475 43.1327 50.8612C42.8979 50.6288 42.6323 50.6396 42.3119 50.6959C42.3119 50.9421 42.3087 51.191 42.3119 51.4392C42.3143 51.5719 42.4172 51.6214 42.527 51.6182C42.7482 51.6154 42.9689 51.5956 43.1871 51.5591C43.2615 51.5457 43.3275 51.4554 43.3832 51.3863C43.439 51.3171 43.4657 51.2418 43.5443 51.0969C43.6257 51.3693 43.5829 51.5491 43.5352 51.751H41.6844ZM40.7903 54.1398C40.7784 54.3531 40.7843 54.5516 41.071 54.6238C40.7629 54.7275 40.4808 54.7109 40.1685 54.6584C40.432 54.444 40.4327 54.444 40.4338 54.0994C40.4338 53.708 40.4338 53.3164 40.4338 52.924C40.4338 52.6201 40.4306 52.6201 40.153 52.44C40.2373 52.4241 40.3223 52.4125 40.4078 52.4054C40.6885 52.4016 40.9693 52.403 41.25 52.402C41.5006 52.402 41.7062 52.4932 41.8515 52.6969C42.0248 52.9388 42.0073 53.2054 41.8002 53.4176C41.7276 53.4916 41.6448 53.5559 41.5514 53.6379C41.6329 53.9753 41.8824 54.2231 42.0975 54.4841C42.1719 54.5747 42.334 54.5951 42.4666 54.6518C42.0954 54.7929 41.8238 54.721 41.6037 54.4254C41.4654 54.2414 41.3366 54.0507 41.2177 53.8539C41.1296 53.7056 41.0254 53.6285 40.7935 53.688C40.7917 53.8432 40.7984 53.9915 40.7903 54.1391V54.1398ZM41.8431 46.5405C41.8464 46.5588 41.8478 46.5773 41.8473 46.5958C41.6097 46.6532 41.562 46.8081 41.5711 47.0325C41.5886 47.4687 41.5711 47.9064 41.5774 48.3434C41.5802 48.6199 41.6237 48.6587 41.8989 48.6849C41.9452 48.6894 41.9918 48.6894 42.0392 48.6898C42.3758 48.6925 42.7225 48.7129 42.7737 48.2169C42.9035 48.4174 42.9035 48.4174 42.8663 48.7617C42.6298 48.8405 41.3549 48.8574 40.9752 48.7866C41.2096 48.6089 41.2096 48.6089 41.2093 48.2888V47.0812C41.2093 46.7324 41.2093 46.7324 40.9286 46.5405H41.8431ZM41.5897 49.487C41.4448 49.5755 41.3349 49.6156 41.2665 49.6916C41.1917 49.7749 41.1531 49.8908 41.1033 49.9945C40.8387 50.5428 40.5769 51.0928 40.3092 51.6397C40.2769 51.7054 40.2092 51.7541 40.1576 51.8125C40.0937 51.7558 40.0042 51.7112 39.9695 51.6397C39.794 51.2781 39.6308 50.9092 39.4617 50.5435C39.3413 50.2828 39.2322 50.0152 39.0887 49.7673C39.0266 49.6598 38.8908 49.5945 38.7704 49.4942H39.7488C39.481 49.6806 39.4729 49.6941 39.5884 49.9627C39.7468 50.3314 39.9095 50.699 40.0765 51.0655C40.1088 51.1346 40.1632 51.1961 40.2446 51.3161L40.9949 49.6882L40.7696 49.4873L41.5897 49.487ZM39.6793 53.0948C39.6726 53.3592 39.6866 53.6254 39.6624 53.8882C39.6017 54.5491 38.8515 54.9415 38.23 54.6788C37.7787 54.488 37.5888 54.1803 37.6159 53.7108C37.6302 53.4584 37.6106 53.2043 37.6215 52.9503C37.631 52.7276 37.6067 52.5354 37.2997 52.5008L37.3523 52.4241H38.2408C38.1356 52.5337 38.024 52.6032 37.9819 52.7007C37.9398 52.7981 37.9636 52.9267 37.9587 53.0412C37.9475 53.3053 37.9236 53.5694 37.9285 53.8328C37.9348 54.1243 38.0412 54.3898 38.3296 54.5073C38.6665 54.6456 39.0031 54.5764 39.2855 54.3569C39.3747 54.2878 39.4199 54.1429 39.4498 54.024C39.5614 53.5791 39.4849 53.1311 39.4305 52.6872C39.421 52.6066 39.288 52.5399 39.1943 52.45C39.4312 52.3529 39.6733 52.4296 39.9642 52.403C39.8498 52.5413 39.746 52.6187 39.7084 52.7211C39.6652 52.8334 39.681 52.9682 39.6779 53.0941L39.6793 53.0948ZM35.4479 51.4485C35.4647 51.5522 35.6012 51.6352 35.7012 51.7475H34.7888L35.0798 51.5339V49.6899L34.7888 49.5115C34.8415 49.4894 34.8699 49.4669 34.898 49.4669C35.271 49.4693 35.6444 49.4642 36.0167 49.4828C36.3045 49.497 36.4905 49.6557 36.5624 49.9374C36.6326 50.2088 36.5375 50.4328 36.2715 50.6188C36.2259 50.6506 36.176 50.6765 36.1167 50.7118C36.2887 50.9745 36.4424 51.2324 36.6189 51.4724C36.7989 51.7189 37.0961 51.6798 37.2221 51.3897C37.4523 50.8618 37.665 50.3267 37.8889 49.796C37.9454 49.6622 38.017 49.5343 38.0819 49.4037L38.183 49.3971C38.3467 49.7474 38.5116 50.0978 38.6777 50.4484C38.8241 50.7595 38.9525 51.0834 39.1217 51.3818C39.1978 51.517 39.354 51.6086 39.4901 51.7348C39.189 51.8022 38.8848 51.7638 38.5135 51.759L38.7725 51.5391C38.6841 51.3197 38.5905 51.0892 38.4918 50.8477H37.6945L37.4088 51.5467L37.6303 51.7016C37.5909 51.7292 37.566 51.7624 37.5397 51.7631C37.2828 51.7717 37.0256 51.7721 36.7677 51.78C36.4922 51.7883 36.3066 51.6501 36.1648 51.4343C36.0444 51.2511 35.9223 51.0689 35.8009 50.8867C35.7209 50.7664 35.6139 50.7184 35.4331 50.7799C35.4352 50.9943 35.4103 51.2259 35.4465 51.4478L35.4479 51.4485ZM39.7502 46.5371C40.1495 46.5716 40.3537 46.8441 40.3043 47.2285C40.2899 47.3422 40.2144 47.4577 40.1407 47.5524C40.079 47.6312 39.9783 47.681 39.8579 47.7716C40.0491 48.0558 40.2278 48.3468 40.4359 48.6158C40.5022 48.7015 40.6464 48.7278 40.7608 48.7831C40.4317 48.8986 40.1432 48.8232 39.9674 48.5729C39.8351 48.3845 39.7045 48.1927 39.5852 47.9977C39.495 47.849 39.3803 47.7858 39.1641 47.849C39.1641 48.016 39.1715 48.1947 39.1641 48.3762C39.1539 48.5674 39.1954 48.7157 39.4449 48.7378C39.4357 48.7617 39.4266 48.7855 39.4178 48.8097H38.5879C38.7858 48.6739 38.8118 48.491 38.8041 48.2774C38.79 47.8864 38.8002 47.4947 38.7999 47.102C38.7999 46.7531 38.7999 46.7531 38.5476 46.5281C38.9676 46.5291 39.3606 46.5028 39.7488 46.5364L39.7502 46.5371ZM37.1681 46.4887C37.9359 46.5066 38.2731 46.861 38.4535 47.4072C38.629 47.9341 38.2545 48.6023 37.6464 48.79C37.4818 48.8412 37.3049 48.855 37.1874 48.8765C36.6319 48.8457 36.2006 48.7202 35.9241 48.2518C35.743 47.9462 35.7019 47.6333 35.8279 47.3298C36.0634 46.7618 36.4406 46.4714 37.1681 46.4887ZM33.1844 46.5485C33.122 46.6252 33.0269 46.6909 33.0167 46.7673C33.0044 46.8617 33.0567 46.9668 33.0914 47.0636C33.2272 47.4411 33.3673 47.8169 33.5294 48.2573C33.6347 47.9807 33.7291 47.7578 33.8066 47.5313C33.8884 47.2921 33.947 47.0453 34.0309 46.8053C34.0695 46.6958 34.1361 46.5222 34.2063 46.5122C34.3705 46.489 34.3586 46.6757 34.3983 46.7856C34.5653 47.2485 34.7267 47.7135 34.8896 48.1778L34.9724 48.1947C35.1285 47.7173 35.2843 47.2395 35.444 46.7507L35.1812 46.5433H36.0213C35.5079 46.7818 35.5542 47.2866 35.3644 47.6637C35.2363 47.9178 35.1868 48.2092 35.0899 48.4799C35.0415 48.6158 34.9657 48.742 34.8653 48.9494C34.5323 48.3192 34.3941 47.7083 34.1519 47.048C33.9308 47.7049 33.7361 48.2815 33.5396 48.8657C33.3357 48.8256 33.3041 48.6766 33.2588 48.5581C33.0676 48.0651 32.8819 47.57 32.7068 47.0715C32.6293 46.8513 32.5637 46.6349 32.2903 46.5468L33.1844 46.5485ZM32.3254 49.4842H34.5986V50.0992C34.5155 50.0176 34.4583 49.9882 34.4502 49.9492C34.3948 49.6802 34.2105 49.6035 33.9614 49.6138C33.8691 49.6177 33.7768 49.6138 33.6557 49.6138C33.6459 49.7352 33.6319 49.8344 33.6312 49.934C33.629 50.3834 33.6361 50.8328 33.6283 51.2822C33.6248 51.4831 33.6455 51.6521 33.9259 51.677C33.6947 51.789 33.4346 51.8022 33.0107 51.7085C33.2564 51.6497 33.2813 51.4838 33.2785 51.2846C33.2708 50.745 33.2757 50.2053 33.2757 49.6508C33.0714 49.5858 32.8668 49.5751 32.7142 49.6571C32.571 49.7348 32.4833 49.9122 32.3243 50.1016L32.3254 49.4842ZM32.3285 52.9952V52.4255H34.5951V53.0536C34.4386 52.8635 34.3495 52.6695 34.2017 52.5997C34.054 52.5299 33.8452 52.5845 33.6329 52.5845C33.6329 53.1905 33.6375 53.7741 33.6305 54.3569C33.628 54.5408 33.7992 54.5367 33.9035 54.6214C33.6027 54.722 33.3181 54.7092 32.9795 54.658C33.0974 54.5626 33.2111 54.5125 33.2486 54.4292C33.2925 54.331 33.275 54.2041 33.2753 54.0894C33.2774 53.5971 33.2753 53.1044 33.2753 52.6028C32.8191 52.4839 32.5173 52.5869 32.398 53.065L32.3285 52.9952ZM34.725 57.4126C34.2337 57.7317 33.7147 57.8154 33.1736 57.5485C32.6187 57.2747 32.3956 56.8488 32.4966 56.3319C32.6233 55.6827 33.1283 55.3055 33.6638 55.2831C34.0523 55.2665 34.4291 55.3076 34.8043 55.4539V55.9316C34.4583 55.5441 34.081 55.3474 33.6259 55.4542C33.436 55.4988 33.2157 55.617 33.1086 55.7695C32.7226 56.3226 32.7475 56.8149 33.1886 57.2695C33.5697 57.6626 34.2382 57.5682 34.798 57.0863C34.8681 57.2194 34.852 57.3303 34.726 57.4126H34.725ZM34.6548 53.7682C34.5758 53.1978 34.8331 52.7394 35.3356 52.4943C35.9595 52.19 36.7782 52.4141 37.1741 52.9727C37.3993 53.2915 37.3706 53.8121 37.1435 54.144C36.8554 54.5657 36.4417 54.7241 36.0592 54.7555C35.4486 54.7476 34.7467 54.4167 34.6562 53.7682H34.6548ZM37.6292 56.8329C37.3214 57.628 36.3336 57.9097 35.6921 57.5474C35.4998 57.4389 35.317 57.34 35.1801 57.1495C34.5962 56.3406 35.2801 55.3719 36.0764 55.2917C36.1574 55.2838 36.2392 55.2793 36.255 55.2782C36.9372 55.263 37.3586 55.5583 37.6173 56.0934C37.7352 56.3337 37.7239 56.5919 37.6306 56.8329H37.6292ZM40.0295 55.934C40.0295 56.1867 40.0344 56.4401 40.027 56.6946C40.0025 57.5122 39.2031 57.9391 38.4623 57.5651C38.0868 57.3746 37.9545 57.078 37.9292 56.707C37.9106 56.4322 37.9264 56.1539 37.9243 55.8794C37.9215 55.5548 37.9205 55.5548 37.7075 55.3377H38.5542C38.297 55.4414 38.3086 55.6523 38.3012 55.8563C38.2938 56.12 38.264 56.3855 38.2819 56.6476C38.2952 56.8477 38.3226 57.0711 38.4223 57.2353C38.5914 57.5118 38.8957 57.5564 39.1996 57.4942C39.5035 57.432 39.7793 57.2823 39.801 56.9528C39.8305 56.4975 39.8039 56.0377 39.7761 55.5814C39.7716 55.504 39.6414 55.4341 39.5438 55.3353H40.2829C40.033 55.5731 40.0327 55.5731 40.0309 55.9333L40.0295 55.934ZM42.9071 55.5814C42.8649 55.6699 42.872 55.7837 42.867 55.887C42.8502 56.3582 42.8383 56.8301 42.8221 57.3013C42.8183 57.414 42.8049 57.526 42.7969 57.6256C42.6639 57.7002 42.6133 57.6256 42.5481 57.5519C42.0262 56.9674 41.5002 56.3862 40.9517 55.7781C40.9293 55.8435 40.9043 55.8818 40.9043 55.9195C40.9043 56.2763 40.9173 56.6331 40.9145 56.9912C40.9124 57.238 40.9229 57.47 41.2914 57.5827C40.9524 57.6937 40.6948 57.6456 40.4429 57.6397C40.4378 57.6138 40.4356 57.5874 40.4362 57.5609C40.6798 57.4835 40.7113 57.2975 40.711 57.0797C40.711 56.6649 40.7278 56.25 40.7303 55.8352C40.7303 55.7225 40.7061 55.6094 40.6917 55.4874L40.3734 55.393C40.7689 55.2291 40.9759 55.2838 41.2086 55.5489C41.6346 56.0329 42.0736 56.5079 42.507 56.985C42.5277 57.0078 42.5631 57.0171 42.6305 57.0541C42.6305 56.7112 42.6305 56.3945 42.6305 56.0778C42.6305 55.9976 42.6095 55.9178 42.6095 55.8359C42.6095 55.6506 42.5993 55.4718 42.4119 55.3349H43.1394C43.0488 55.4303 42.9516 55.4929 42.9095 55.5807L42.9071 55.5814ZM45.3842 57.4137C44.7129 57.8845 43.9219 57.7632 43.3959 57.265C43.013 56.9024 43.0853 56.053 43.471 55.6799C43.7868 55.3761 44.1514 55.2416 44.5809 55.2848C44.8782 55.3149 45.1726 55.3733 45.4688 55.4193V55.8687C45.2603 55.7304 45.0968 55.5717 44.9013 55.5064C44.6913 55.4389 44.4679 55.4225 44.25 55.4587C44.1404 55.4778 44.0361 55.5194 43.9439 55.5809C43.8517 55.6424 43.7736 55.7223 43.7149 55.8155C43.4341 56.2621 43.5008 57.0223 43.8605 57.2868C44.2609 57.581 44.8905 57.6432 45.4596 57.0552C45.5295 57.2131 45.5126 57.3238 45.3867 57.4119L45.3842 57.4137ZM45.5502 52.4732C45.7628 52.3584 45.9643 52.4224 46.171 52.413L47.1374 54.1976C47.2757 53.9289 47.3964 53.707 47.5055 53.4799C47.6497 53.1795 47.7792 52.8718 47.9287 52.5741C47.9638 52.505 48.0494 52.4244 48.1203 52.4151C48.2986 52.3926 48.4818 52.4078 48.7151 52.4078C48.5699 52.5309 48.4386 52.5935 48.3919 52.6944C48.3453 52.7954 48.3709 52.9423 48.3716 53.0688C48.3716 53.3907 48.3779 53.7125 48.38 54.0347C48.3832 54.4434 48.3825 54.4434 48.7067 54.6546C48.3962 54.7279 48.1147 54.6981 47.7571 54.6715C48.1024 54.4765 48.0277 54.1989 48.0287 53.9421C48.0287 53.6157 48.0287 53.289 48.0287 52.9627L47.9586 52.952L47.0641 54.8015L46.099 53.0139L46.046 53.0218C46.046 53.4512 46.0313 53.8816 46.0562 54.3096C46.0625 54.4198 46.1931 54.5232 46.2822 54.6529C46.0488 54.7189 45.8148 54.7106 45.5516 54.6321C45.8537 54.5284 45.8323 54.2944 45.84 54.0686C45.8513 53.6883 45.8751 53.3108 45.8829 52.9316C45.8913 52.6042 45.8836 52.6042 45.5526 52.4715L45.5502 52.4732ZM45.6646 57.5827C46.0302 57.479 45.9804 57.2163 45.9783 56.9722C45.9783 56.6037 45.9783 56.2351 45.9783 55.8659C45.9762 55.5406 45.9744 55.5406 45.7141 55.3349H46.6307C46.5156 55.4317 46.4089 55.4843 46.3657 55.5683C46.3226 55.6523 46.3352 55.7698 46.3345 55.8728C46.3317 56.2531 46.3401 56.6334 46.331 57.0137C46.325 57.2619 46.3061 57.5042 46.6707 57.5568C46.444 57.6729 46.0267 57.6819 45.667 57.5824L45.6646 57.5827ZM48.845 57.6356H46.9679C47.2532 57.4341 47.1907 57.1544 47.189 56.8916C47.1862 56.5231 47.1816 56.1546 47.1872 55.7854C47.19 55.6073 47.1778 55.4466 46.957 55.3664C47.2637 55.2917 47.5466 55.2928 47.8754 55.3408C47.5708 55.5137 47.568 55.5137 47.5659 55.8331C47.5627 56.2704 47.5603 56.7081 47.5659 57.1468C47.5694 57.4126 47.601 57.4413 47.8585 57.4818C47.9282 57.4921 47.9986 57.4972 48.0691 57.497C48.5028 57.499 48.6088 57.433 48.8457 57.0593L48.845 57.6356Z" fill="black"/>
    <path d="M36.1481 50.3572C36.2534 50.194 36.2243 50.0066 36.0846 49.813C35.9204 49.5855 35.7031 49.5966 35.4487 49.6436V50.5625C35.8014 50.5991 36.0432 50.5207 36.1481 50.3572Z" fill="black"/>
    <path d="M38.0616 49.9142C37.8959 50.1883 37.8159 50.4141 37.7854 50.6806H38.3925L38.0616 49.9142Z" fill="black"/>
    <path d="M41.5051 53.3243C41.6251 53.1773 41.6041 52.9903 41.5121 52.8348C41.3668 52.5886 41.1342 52.5098 40.8152 52.5648V53.494C41.0952 53.5666 41.3338 53.5334 41.5051 53.3243Z" fill="black"/>
    <path d="M44.2527 48.6693C44.4144 48.6604 44.5745 48.6329 44.7296 48.5874C44.824 48.5597 44.9125 48.4927 44.9883 48.4266C45.4445 48.0294 45.3392 47.3833 44.9648 46.9843C44.6138 46.6086 44.1612 46.6359 43.6572 46.6825V48.1231C43.6569 48.6752 43.6783 48.6977 44.2527 48.6693Z" fill="black"/>
    <path d="M39.8824 47.4152C40.0039 47.2492 39.9568 47.0605 39.8516 46.8966C39.6968 46.6546 39.4564 46.6525 39.1848 46.6826V47.6043C39.4666 47.6354 39.7186 47.6399 39.8824 47.4152Z" fill="black"/>
    <path d="M47.7775 51.4529L46.93 50.7324C46.6651 50.8966 46.6082 51.1238 46.7897 51.3965C46.9746 51.6762 47.4017 51.7128 47.7775 51.4529Z" fill="black"/>
    <path d="M47.1315 50.3792C47.501 50.2001 47.5975 49.9889 47.4389 49.7341C47.4143 49.6947 47.382 49.6605 47.3438 49.6337C47.3055 49.6068 47.2623 49.5878 47.2164 49.5777C47.1706 49.5676 47.1232 49.5666 47.0771 49.5749C47.0309 49.5832 46.9868 49.6005 46.9476 49.6259C46.7893 49.7192 46.7461 49.91 46.862 50.0732C46.9423 50.1842 47.0434 50.2803 47.1315 50.3792Z" fill="black"/>
    <path d="M36.9288 53.6132C36.925 53.5441 36.9243 53.4749 36.9169 53.4058C36.8667 52.9274 36.367 52.5111 35.9915 52.5246C35.4715 52.5429 35.1711 52.7538 35.0507 53.2668C34.9556 53.671 35.1679 54.2403 35.4872 54.427C35.6365 54.5196 35.8082 54.5711 35.9844 54.576C36.1607 54.581 36.3351 54.5394 36.4895 54.4554C36.8257 54.2842 36.9309 53.97 36.9288 53.6132Z" fill="black"/>
    <path d="M36.0156 55.4704C35.6187 55.5844 35.384 55.9225 35.3619 56.3592C35.3387 56.8086 35.585 57.2711 35.937 57.4225C36.5083 57.6687 37.301 57.4402 37.2881 56.542C37.2814 56.4456 37.2828 56.3757 37.2709 56.308C37.1803 55.7981 36.6852 55.2785 36.0156 55.4704Z" fill="black"/>
    <path d="M36.76 48.6407C37.466 48.9172 38.085 48.4982 38.097 47.736C38.1008 47.3467 37.8317 46.8579 37.5299 46.7334C36.8828 46.4658 36.2248 46.7887 36.1613 47.5226C36.121 47.989 36.3841 48.4937 36.76 48.6407Z" fill="black"/>
</svg>
