<svg width="50" height="54" viewBox="0 0 50 54" fill="none" xmlns="http://www.w3.org/2000/svg">
    <path d="M26.889 25.0724C26.889 24.0031 25.8885 23.1027 24.7004 23.1027C23.5122 23.1027 22.5117 24.0031 22.5117 25.0724C22.5117 25.8041 22.9494 26.4231 23.5122 26.7608L22.8869 30.9255H26.4513L25.8259 26.7608C26.4513 26.4231 26.889 25.8041 26.889 25.0724Z" fill="#FFD912"/>
    <path d="M24.7006 11.7904C22.1993 11.7904 20.1982 13.6476 20.1982 15.8425V19.163H29.2655V15.8425C29.2029 13.6476 27.2019 11.7904 24.7006 11.7904Z" fill="#FFD912"/>
    <path d="M47.3372 5.99373L27.7645 0.422095C25.7634 -0.140698 23.5748 -0.140698 21.5737 0.422095L2.00105 5.99373C0.812931 6.3314 0 7.34444 0 8.47003V15.111C0 30.3064 8.25429 44.5451 22.074 53.2683C22.8244 53.7749 23.7624 54 24.6378 54C25.5133 54 26.4513 53.7749 27.2017 53.2683C34.1428 48.9348 39.6456 43.1944 43.4601 36.6097C47.2746 30.0813 49.3382 22.7087 49.3382 15.111V8.47003C49.4007 7.34444 48.5253 6.3314 47.3372 5.99373ZM35.2684 34.6399H14.0698V19.1631H16.9463V15.8426C16.9463 12.0156 20.3856 8.86399 24.7004 8.86399C29.0151 8.86399 32.4544 11.9593 32.4544 15.8426V19.1631H35.3309V34.6399H35.2684Z" fill="#FFD912"/>
</svg>
