<svg width="106" height="105" viewBox="0 0 106 105" fill="none" xmlns="http://www.w3.org/2000/svg">
    <path d="M70.2265 29.9107C69.0698 29.3329 67.4733 30.1531 67.2466 31.4751H71.0761C71.157 30.755 70.8506 30.2228 70.2265 29.9107Z" fill="white"/>
    <path d="M41.3171 55.1065C40.5389 55.1785 40.0181 55.689 39.9426 56.4595C39.9211 56.7231 39.9961 56.9855 40.1539 57.1987C40.3117 57.4119 40.5416 57.5617 40.8016 57.6205C41.7641 57.8242 42.6479 57.2288 42.7678 56.2622C42.815 55.8811 42.7755 55.4888 42.7755 54.9701C42.2388 55.0204 41.7782 55.0644 41.3171 55.1065Z" fill="white"/>
    <path d="M39.2352 68.7555C39.221 68.8989 39.2033 69.0114 39.2003 69.1243C39.1956 69.3369 39.2003 69.5488 39.2003 69.7613C39.1962 70.0383 39.3527 70.1314 39.6066 70.1325C39.9461 70.1325 40.2076 69.9358 40.282 69.6115C40.4308 68.9639 39.9962 68.5822 39.2352 68.7555Z" fill="white"/>
    <path d="M43.6491 35.0172C43.3574 35.4657 43.3716 35.9498 43.6692 36.393C43.9491 36.8105 44.3978 36.92 44.8636 36.8614C45.6472 36.7666 46.2594 36.1003 46.312 35.3181C46.3356 34.9703 46.3161 34.6197 46.3161 34.1606C45.5403 34.1923 44.8353 34.177 44.1905 34.5043C43.9695 34.6275 43.7833 34.8039 43.6491 35.0172Z" fill="white"/>
    <path d="M68.0367 50.544C67.1061 50.4854 66.1473 51.0469 65.7523 51.8976C65.6997 52.0106 65.6932 52.1435 65.6489 52.3156H69.5364C69.6474 51.407 68.9406 50.6031 68.0367 50.544Z" fill="white"/>
    <path d="M53.2964 0.681885C24.2905 0.681885 0.776855 23.9976 0.776855 52.7594C0.776855 81.5211 24.2905 104.837 53.2964 104.837C82.3022 104.837 105.816 81.5211 105.816 52.7594C105.816 23.9976 82.3022 0.681885 53.2964 0.681885ZM46.3162 30.967C46.282 30.5051 46.0292 30.172 45.5976 30.0683C45.1213 29.9603 44.6344 29.9044 44.1457 29.9015C43.2247 29.8857 42.365 30.1597 41.536 30.5402C41.3465 30.6269 41.1522 30.703 40.8972 30.8107C40.8163 30.5701 40.7436 30.3956 40.6988 30.2147C40.5358 29.5512 40.3784 28.8876 40.2264 28.2241C40.1007 27.6732 40.1508 27.5643 40.6864 27.3166C41.601 26.8939 42.5628 26.6668 43.5695 26.5467C44.9234 26.3857 46.2377 26.4835 47.5095 26.9513C48.7583 27.4103 49.749 28.1808 50.1818 29.4864C50.3125 29.8733 50.3878 30.2766 50.4056 30.6843C50.4398 31.6977 50.4138 32.7129 50.4292 33.7287C50.4392 34.3727 50.48 35.0132 50.5089 35.6555C50.5479 36.5149 50.8785 37.2011 51.6898 37.6051C51.7724 37.6467 51.8368 37.7222 52.0139 37.8732C51.8409 37.9903 51.6892 38.0834 51.5516 38.1923C50.8596 38.7397 50.1629 39.2825 49.4851 39.8457C49.1562 40.1185 48.8474 40.1595 48.463 39.9628C47.911 39.6853 47.446 39.2636 47.118 38.7432C46.8588 38.9569 46.6457 39.1607 46.4095 39.3223C45.4116 39.9944 44.2969 40.1068 43.1349 39.9581C42.9404 39.9312 42.748 39.8907 42.5592 39.8369C40.4927 39.2666 39.6023 37.7163 39.5019 35.9909C39.3968 34.176 40.4732 32.6467 42.2575 31.984C43.0363 31.6948 43.8517 31.5941 44.6736 31.5086C45.1028 31.4641 45.5321 31.4202 45.9625 31.3915C46.2406 31.371 46.3351 31.2235 46.3162 30.967ZM22.7577 48.3461C22.577 49.1248 22.3901 49.9017 22.1968 50.6769C22.0716 51.1815 22.0078 51.2325 21.4635 51.2371C20.6368 51.2442 19.8132 51.2371 18.9275 51.2371C18.898 51.4333 18.8531 51.5978 18.8519 51.7641C18.8466 53.13 18.8401 54.4959 18.8519 55.8624C18.8602 56.747 19.2653 57.1352 20.1598 57.1504C20.5695 57.1568 20.9799 57.1504 21.4705 57.1504C21.4705 57.3951 21.4883 57.6024 21.467 57.8049C21.3973 58.4636 21.3147 59.1211 21.2308 59.7786C21.1948 60.0666 21.0885 60.2944 20.7638 60.3781C19.133 60.7979 17.5725 60.7206 16.1235 59.7739C15.1298 59.1252 14.5967 58.2113 14.5789 57.0345C14.5524 55.3366 14.5595 53.6387 14.5494 51.9409C14.5494 51.7325 14.5299 51.5234 14.5164 51.2383C14.0806 51.2383 13.6933 51.2383 13.3054 51.2383C13.1477 51.2383 12.9901 51.2383 12.833 51.2307C12.5791 51.219 12.4297 51.0984 12.4297 50.8314C12.4297 49.9138 12.4297 48.9966 12.4297 48.0797C12.4297 47.8303 12.5809 47.7343 12.8047 47.7284C13.1778 47.7144 13.551 47.6986 13.9265 47.7021C14.475 47.7079 14.5471 47.6494 14.5482 47.1166C14.5482 46.5698 14.5518 46.0235 14.5435 45.4773C14.5394 45.2127 14.6285 45.0306 14.8931 44.9369C16.0739 44.5183 17.2548 44.0927 18.4398 43.6735C18.5107 43.6483 18.5933 43.6559 18.7439 43.6413C18.7793 43.8901 18.8401 44.1313 18.8425 44.3725C18.8531 45.29 18.8484 46.2074 18.8425 47.1242C18.839 47.6746 18.8584 47.7097 19.4394 47.7138C20.3251 47.7214 21.2108 47.7138 22.0964 47.7191C22.3243 47.7191 22.5522 47.753 22.8221 47.7776C22.7931 48.0077 22.7931 48.1816 22.7547 48.3461H22.7577ZM25.4483 35.1485C25.4283 34.9646 25.4454 34.7767 25.4454 34.4845C25.7406 34.628 25.9514 34.7187 26.1486 34.827C27.1317 35.3733 28.1508 35.8469 29.2779 35.9845C29.9947 36.0723 30.7381 36.1227 31.4495 36.0331C32.5058 35.9008 33.0957 35.1725 33.0089 34.2509C32.9628 33.7644 32.7461 33.3727 32.3352 33.145C31.877 32.8909 31.3757 32.7117 30.8863 32.5168C30.0868 32.1977 29.2413 31.9664 28.4867 31.5654C27.0348 30.7937 26.0588 29.6263 25.7406 27.9642C25.1649 24.959 27.072 22.1879 30.1157 21.6727C32.0028 21.3399 33.9462 21.5389 35.7249 22.2471C36.3384 22.4889 36.3685 22.5281 36.2351 23.1493C36.0579 23.9689 35.8678 24.7845 35.6789 25.6012C35.6446 25.7487 35.5897 25.8939 35.5147 26.1328C35.2608 26.0268 35.0843 25.9542 34.9077 25.8799C33.9583 25.48 32.9806 25.1931 31.9372 25.2581C31.5669 25.2908 31.2014 25.3651 30.8479 25.4794C30.3165 25.6381 30.0502 26.0473 30.0024 26.569C29.9733 26.8052 30.0205 27.0444 30.1372 27.2522C30.2539 27.4601 30.4341 27.6259 30.6519 27.7259C31.1407 27.9683 31.668 28.1357 32.1764 28.3418C33.0284 28.6878 33.9258 28.9571 34.7218 29.4032C37.4909 30.9553 38.4014 34.351 36.8473 37.115C36.3339 38.0504 35.5065 38.7781 34.5086 39.1718C33.0868 39.745 31.6155 39.9786 30.0697 39.8082C28.8693 39.6759 27.7079 39.4323 26.5891 38.9885C26.0624 38.7807 25.7689 38.4921 25.7412 37.8762C25.7004 36.9658 25.5458 36.0589 25.4483 35.1485ZM34.916 48.0622C34.6308 49.3355 34.3291 50.606 34.0304 51.8759C34.0038 51.9522 33.9665 52.0244 33.9193 52.0902C33.3389 52.0351 32.8566 51.9532 32.3689 51.9508C31.872 51.946 31.3906 52.1222 31.0159 52.4459C30.6413 52.7697 30.3996 53.2185 30.3366 53.7072C30.2751 54.1512 30.2427 54.5987 30.2397 55.0468C30.2285 56.5883 30.2368 58.1293 30.2338 59.672C30.2338 59.881 30.2126 60.09 30.2025 60.2826C29.6871 60.4196 26.5932 60.4302 26.0051 60.2979C25.9815 60.0889 25.9337 59.8623 25.9331 59.6351C25.9284 55.908 25.9284 52.1805 25.9331 48.4527C25.9331 47.8086 26.0057 47.7261 26.6304 47.7191C27.6145 47.7074 28.5985 47.7074 29.5826 47.7191C30.1612 47.7255 30.1996 47.7776 30.2067 48.3748C30.2114 48.7782 30.2067 49.1816 30.2935 49.6084C30.3726 49.4848 30.4493 49.3601 30.5296 49.2389C31.2677 48.1465 32.259 47.5024 33.6247 47.5264C33.9388 47.5323 34.2571 47.5264 34.5694 47.5709C34.8818 47.6154 34.9833 47.7618 34.916 48.0622ZM41.7397 69.519C41.6476 70.6097 40.9662 71.2655 39.8503 71.2713C39.3053 71.2713 38.7586 71.1911 38.2154 71.1244C37.9792 71.0951 37.8393 70.9411 37.8405 70.68C37.8475 69.0612 37.8493 67.4429 37.8564 65.8247C37.8564 65.7703 37.8912 65.7164 37.9314 65.6011H39.2303C39.2622 66.2205 39.2929 66.8095 39.3225 67.3803C39.6466 67.3803 39.9029 67.3434 40.1449 67.3867C41.1581 67.5671 41.8283 68.4751 41.7397 69.519ZM45.9619 67.9968C45.479 69.2503 44.9942 70.5038 44.4953 71.7508C44.3927 72.0035 44.258 72.2422 44.0944 72.461C43.6811 73.023 43.145 73.1723 42.4837 72.9434C42.0863 72.8058 42.045 72.749 42.1046 72.3539C42.131 72.2291 42.1657 72.1063 42.2085 71.9862C42.2676 71.9587 42.3065 71.9276 42.339 71.9276C43.0889 71.9985 43.4756 71.5096 43.1845 70.8123C42.8173 69.9341 42.4116 69.067 42.0278 68.1935C41.9363 67.9851 41.8667 67.7679 41.7621 67.4909H43.2973C43.527 68.0951 43.7531 68.6923 44.03 69.423C44.281 68.6994 44.4917 68.0928 44.7061 67.474H46.0871C46.0375 67.6754 46.0204 67.8422 45.9619 67.9939V67.9968ZM48.0007 59.0356C47.3288 59.576 46.6392 60.0953 45.9814 60.6521C45.6307 60.9489 45.313 60.9647 44.9133 60.7627C44.3725 60.4893 43.9651 60.083 43.6179 59.5994C43.5441 59.6287 43.4774 59.6351 43.4408 59.672C42.0828 61.1357 39.3868 61.162 37.7212 60.0649C35.6104 58.6744 35.115 54.8893 37.9166 53.195C38.8466 52.6323 39.884 52.4467 40.9462 52.349C41.4345 52.3045 41.9222 52.2576 42.411 52.2237C42.6832 52.2049 42.7919 52.0685 42.7901 51.8097C42.7901 51.3613 42.5415 51.0773 42.1512 50.9151C41.6039 50.6907 41.0054 50.6174 40.4195 50.7032C39.4594 50.8297 38.5301 51.0621 37.6722 51.5182C37.606 51.5539 37.5269 51.5656 37.3663 51.6159C37.2707 51.2822 37.1821 51.0082 37.1136 50.729C36.9696 50.1435 36.8343 49.5545 36.7003 48.9661C36.5917 48.4901 36.6135 48.3666 37.0735 48.1898C37.782 47.9175 38.5065 47.6488 39.2481 47.4925C40.8287 47.1594 42.4063 47.212 43.9456 47.7565C45.8574 48.4322 46.9114 49.8525 46.9503 51.8548C46.9757 53.1429 46.9456 54.4309 46.9645 55.7154C46.9768 56.1619 47.0226 56.607 47.1015 57.0468C47.2007 57.6387 47.5325 58.0807 48.0739 58.3647C48.2021 58.4423 48.3255 58.5273 48.4435 58.6193C48.2776 58.7762 48.1477 58.915 48.0007 59.0327V59.0356ZM60.4926 48.6213C59.4023 51.4596 58.3072 54.2962 57.2074 57.1311C56.8488 58.0585 56.4898 58.9854 56.1305 59.912C55.9055 60.4899 55.8783 60.5081 55.2808 60.5104C54.6117 60.5139 53.9425 60.5139 53.2733 60.5104C52.6935 60.5104 52.6616 60.4887 52.455 59.953C51.6284 57.8063 50.8033 55.6596 49.9799 53.5129C49.3442 51.8572 48.7087 50.2011 48.0733 48.5446C47.9907 48.3291 47.9181 48.1096 47.8053 47.7917C48.1407 47.7618 48.3697 47.7261 48.5988 47.7232C49.5435 47.7091 50.4882 47.7044 51.4288 47.6992C51.8421 47.6992 51.9567 47.7776 52.1302 48.26C52.834 50.2218 53.5343 52.1852 54.231 54.1504C54.2635 54.2412 54.2966 54.3325 54.3586 54.5017C54.4306 54.3331 54.482 54.2271 54.5215 54.1171C55.2344 52.1378 55.9457 50.1577 56.6554 48.1769C56.7557 47.8965 56.8969 47.6945 57.2352 47.6986C58.2572 47.7109 59.2793 47.7144 60.3013 47.7261C60.4236 47.737 60.545 47.7566 60.6644 47.7846C60.7701 48.1014 60.593 48.3578 60.4926 48.6183V48.6213ZM58.817 30.4032C58.7945 30.7018 58.7579 30.946 58.7579 31.1907C58.7579 33.6848 58.7579 36.1808 58.7579 38.6788C58.7579 39.5816 58.7313 39.608 57.8445 39.6109C56.9795 39.6138 56.1139 39.6185 55.2466 39.6074C54.6308 39.5998 54.5812 39.5442 54.5806 38.9259C54.5806 36.3889 54.5806 33.854 54.5806 31.3212C54.5806 31.1649 54.5859 31.0086 54.5806 30.8529C54.5617 30.4588 54.5292 30.4179 54.1342 30.4079C53.6878 30.3962 53.2403 30.405 52.8211 30.405C52.6652 29.943 52.6321 27.8043 52.7478 27.0046C53.1523 26.8465 53.5863 26.946 54.009 26.9296C54.5558 26.9068 54.577 26.9027 54.5812 26.3699C54.5877 25.4548 54.5652 24.5427 54.8026 23.6411C55.3712 21.483 57.211 19.89 59.7032 19.7904C60.7619 19.7477 61.8247 19.7319 62.8626 20.0188C63.3415 20.1505 63.4064 20.2266 63.3019 20.7143C63.1342 21.4953 62.9536 22.2728 62.7705 23.0497C62.7357 23.1955 62.6524 23.3302 62.5792 23.5076C62.3106 23.449 62.0685 23.3676 61.8211 23.3466C61.3346 23.305 60.8386 23.2371 60.3586 23.288C59.5839 23.3706 59.039 23.9098 58.8925 24.6803C58.8134 25.0983 58.7992 25.5298 58.7745 25.956C58.7567 26.2452 58.7709 26.5356 58.7709 26.9384H62.3053C62.2763 27.1685 62.271 27.3213 62.2368 27.4653C62.0425 28.2803 61.8483 29.0947 61.6404 29.9062C61.5223 30.3611 61.4745 30.3944 60.991 30.3997C60.2848 30.4091 59.5804 30.4032 58.817 30.4032ZM73.0087 53.942C72.6592 54.2566 72.3261 54.5888 72.0109 54.9373C71.9211 55.0406 71.8095 55.123 71.684 55.1787C71.5585 55.2345 71.4222 55.2622 71.2847 55.2599C70.6352 55.2558 69.9857 55.2535 69.3362 55.257C68.2156 55.2628 67.0949 55.2726 65.9743 55.2863C65.8827 55.2863 65.7912 55.3319 65.6377 55.3729C65.8089 55.9367 66.1644 56.2628 66.5759 56.538C67.6464 57.254 68.8408 57.3653 70.0802 57.2113C70.8405 57.1137 71.5789 56.8905 72.2648 56.5509C72.3787 56.4923 72.5134 56.48 72.7336 56.4209C72.6887 56.8951 72.6557 57.2956 72.6114 57.6943C72.5405 58.333 72.4543 58.97 72.3905 59.6094C72.361 59.9021 72.2057 60.0578 71.9406 60.1579C69.6899 61.008 67.4338 61.1562 65.1754 60.196C63.1541 59.3373 61.8987 57.8418 61.409 55.7095C60.975 53.8038 61.1645 51.9912 62.2126 50.3051C63.1992 48.7185 64.6517 47.8028 66.472 47.4363C67.7878 47.1626 69.1558 47.2797 70.4049 47.7729C72.3598 48.534 73.6718 50.4274 73.657 52.4403C73.6553 53.0357 73.4775 53.5375 73.0087 53.942ZM74.6029 33.0935C74.2819 33.3812 73.977 33.6861 73.6895 34.0068C73.5605 34.1538 73.4002 34.2707 73.2202 34.349C73.0403 34.4274 72.8451 34.4652 72.6486 34.4599C71.0544 34.4658 69.4602 34.4828 67.8707 34.4951C67.6623 34.4951 67.4539 34.4951 67.1162 34.4951C67.6476 35.5794 68.4535 36.0706 69.4189 36.2884C70.789 36.6063 72.2271 36.4593 73.5029 35.8709C73.712 35.7767 73.9257 35.6912 74.228 35.563C74.2369 35.8387 74.2646 36.0431 74.2457 36.2427C74.169 37.0372 74.0774 37.8305 73.9924 38.6244C73.957 38.9563 73.8365 39.2192 73.4905 39.3463C70.9829 40.2672 68.4901 40.3697 66.0894 39.0635C64.1882 38.0295 63.1508 36.3703 62.842 34.2445C62.6649 33.0033 62.7634 31.7931 63.2122 30.6234C64.0937 28.3236 65.8142 27.0344 68.2197 26.5836C69.7867 26.2909 71.2799 26.5104 72.6557 27.2991C74.3219 28.2534 75.1497 29.7276 75.2058 31.6315C75.2264 32.2071 75.054 32.6983 74.6041 33.0935H74.6029ZM81.4414 57.8752C81.0771 58.737 80.6957 59.5918 80.339 60.4565C80.208 60.7756 80.0149 60.8798 79.6659 60.8699C77.5445 60.8113 75.984 59.4267 75.7236 57.3307C75.6673 56.8869 75.6381 56.4402 75.6362 55.9929C75.626 51.1979 75.6212 46.4029 75.622 41.6079C75.622 40.5763 75.622 40.5758 76.6553 40.5746C77.4612 40.5746 78.2672 40.5711 79.0731 40.5746C79.3052 40.5746 79.5372 40.6015 79.8555 40.6214C79.8714 40.9598 79.895 41.228 79.895 41.4967C79.8974 46.077 79.8974 50.6575 79.895 55.2382C79.895 55.4918 79.895 55.7458 79.908 55.9994C79.957 56.7605 80.2965 57.1662 81.0428 57.3688C81.1881 57.408 81.3327 57.4507 81.5057 57.4999C81.4833 57.6551 81.4851 57.7745 81.4426 57.8752H81.4414ZM89.306 60.4513C87.4467 60.9132 85.6034 60.7217 83.8197 60.0157C83.5457 59.9074 83.3332 59.7358 83.3001 59.4343C83.1873 58.4086 83.0869 57.3811 82.9883 56.3542C82.9824 56.2868 83.032 56.2148 83.0787 56.0766C83.3095 56.2019 83.5103 56.3079 83.7081 56.418C84.7319 56.9894 85.8089 57.3869 87.0027 57.3647C87.2374 57.3605 87.4689 57.3106 87.6841 57.2177C88.2308 56.9742 88.2822 56.3863 87.7792 56.0714C87.5176 55.908 87.2058 55.8243 86.9183 55.7014C86.2688 55.4238 85.5898 55.2055 84.9864 54.8542C82.3642 53.3279 82.5579 49.5188 85.1121 48.1353C86.2582 47.5147 87.4898 47.3198 88.7605 47.4702C89.5912 47.5692 90.4137 47.7823 91.2238 47.9972C91.7811 48.1459 91.7994 48.2401 91.6701 48.8039C91.5308 49.4117 91.3932 50.02 91.2474 50.6259C91.1984 50.8285 91.1293 51.0252 91.0484 51.2799C90.7532 51.195 90.517 51.1124 90.2749 51.0603C89.6449 50.9239 89.0155 50.7817 88.379 50.6839C88.1812 50.6534 87.9516 50.7301 87.7567 50.808C87.6348 50.8517 87.5307 50.9339 87.4606 51.0421C87.3905 51.1502 87.3582 51.2782 87.3688 51.4064C87.3765 51.6727 87.5253 51.8437 87.7526 51.9485C87.9114 52.0223 88.0856 52.0656 88.2509 52.1241C88.911 52.3706 89.593 52.5732 90.2259 52.8765C91.4534 53.4654 92.2423 54.4356 92.4342 55.7915C92.7625 58.0983 91.5863 59.8834 89.3072 60.4501L89.306 60.4513Z" fill="#A5E20A"/>
    <path d="M87.5064 66.2749C74.6191 66.2749 61.7316 66.2769 48.8439 66.2808C48.753 66.2808 48.662 66.3393 48.58 66.3651C48.4489 67.0893 48.489 104.44 48.6207 104.865H87.8607V66.3651C87.7284 66.3299 87.6174 66.2755 87.5064 66.2749ZM77.8941 72.8538C78.9273 72.5066 79.8862 72.4803 80.8161 73.122C82.183 74.0646 82.3442 75.4703 81.9545 76.554C81.7543 77.1096 81.3818 77.6078 81.0523 78.1125C80.4666 79.0065 79.8531 79.8824 79.2538 80.7676C78.9155 81.267 78.5819 81.7699 78.2501 82.2717C78.1763 82.3817 78.1066 82.4953 77.9738 82.5644C77.8822 81.8829 77.7636 81.2887 78.2513 80.6798C78.9551 79.8016 79.5178 78.8127 80.1407 77.8695C80.3881 77.4978 80.6437 77.1307 80.8911 76.7571C81.4698 75.8848 81.406 74.8936 80.6986 74.1331C80.0456 73.4305 79.0147 73.2437 78.1739 73.7016C78.109 73.7367 78.0393 73.7636 77.8947 73.8286L77.8941 72.8538ZM78.4721 85.1832C78.2182 84.7195 78.3912 84.079 78.8205 83.8495C79.3584 83.5615 80.0911 83.6926 80.3556 84.1422C80.492 84.3729 80.5274 84.637 80.3284 84.8483C80.0923 85.0995 79.8218 85.3167 79.5361 85.5813L80.6485 86.6621C80.8474 86.0351 80.8474 86.0351 80.2139 85.5883H81.5406C81.1946 85.836 81.1226 86.2019 81.0134 86.5532C80.8811 86.9771 80.9071 87.0953 81.2979 87.3032C81.4981 87.4092 81.7266 87.4618 81.9575 87.5438C81.4975 87.7675 81.0435 87.7335 80.5404 87.4419C79.9901 87.696 79.4186 87.8869 78.7921 87.682C78.2212 87.4958 77.897 87.0415 78.034 86.5479C78.096 86.3666 78.1967 86.2007 78.3292 86.0614C78.4544 85.9174 78.6244 85.8108 78.8016 85.6627C78.6834 85.5086 78.5735 85.3486 78.4721 85.1832ZM79.1322 73.9241C80.1253 73.9241 80.7707 74.53 80.8026 75.568C80.8102 76.5048 80.074 77.2489 79.1393 77.2419C78.2796 77.2355 77.4861 76.5001 77.4861 75.6061C77.489 74.7314 78.0606 73.9182 79.1322 73.9241ZM75.4821 91.2598C75.2885 91.0841 75.0098 91.001 74.77 90.8792C74.4796 90.7323 74.153 90.6322 73.9021 90.436C73.3996 90.0444 73.4605 89.3084 73.996 88.9542C74.6325 88.5327 75.3044 88.6954 76.0035 88.8213V89.7288L75.9143 89.7534C75.8669 89.6853 75.8235 89.6145 75.7844 89.5414C75.5441 89.028 75.2784 88.8898 74.7146 88.956C74.4193 88.9899 74.2487 89.1457 74.1643 89.4079C74.1274 89.5395 74.135 89.6794 74.1859 89.8062C74.2367 89.9331 74.328 90.0399 74.4459 90.1105C74.564 90.1813 74.698 90.2171 74.8202 90.2785C75.1686 90.4542 75.5288 90.614 75.857 90.8224C76.3194 91.1152 76.3955 91.7094 76.0478 92.1374C75.9213 92.2997 75.7627 92.4347 75.5816 92.5339C75.4006 92.633 75.2009 92.6944 74.995 92.7141C74.7789 92.7312 74.5617 92.7312 74.3455 92.7141C73.5514 92.6637 73.4439 92.4981 73.689 91.5619C73.7882 91.7557 73.8277 91.864 73.8921 91.9536C74.2144 92.4014 74.7228 92.5496 75.2442 92.3558C75.7821 92.1567 75.909 91.6403 75.4821 91.2569V91.2598ZM73.6004 87.6369C73.6594 87.5655 73.6943 87.4812 73.7415 87.4736C74.0539 87.4256 74.0893 87.213 74.0881 86.9583C74.0846 86.1791 74.0822 85.3992 74.0928 84.62C74.0975 84.2687 74.0544 83.9637 73.6364 83.8214H75.2513C74.5604 84.0468 74.6295 84.524 74.6313 84.9718C74.6313 85.5573 74.6236 86.1428 74.6354 86.7253C74.6461 87.2815 74.786 87.4162 75.3321 87.4349C75.5093 87.4408 75.6864 87.4349 75.8635 87.4314C76.2255 87.4185 76.5195 87.3178 76.5969 86.9045C76.611 86.829 76.699 86.7663 76.7533 86.6984L76.8714 86.7376V87.5848C76.4475 87.7019 74.5351 87.7341 73.6004 87.634V87.6369ZM74.0621 78.7834C74.4728 78.7831 74.883 78.8117 75.2896 78.8689C76.3105 79.0311 76.7817 79.9866 76.8082 80.6353C76.8259 81.056 76.7034 81.4708 76.4596 81.8156C76.2159 82.1605 75.8645 82.4162 75.4597 82.5433C75.2938 82.604 75.12 82.6408 74.9436 82.6528C74.104 82.6645 73.2633 82.6581 72.4236 82.6581L72.3481 82.541C72.8576 82.4977 72.8665 82.1803 72.8594 81.8279C72.8452 81.1253 72.8553 80.4269 72.8547 79.726C72.8547 79.1593 72.8547 79.1593 72.3103 78.8039C72.9556 78.7946 73.5095 78.7735 74.0621 78.7834ZM72.651 90.0326C72.6398 90.5771 72.6457 91.1222 72.651 91.6667C72.6563 92.2112 72.6551 92.2024 73.1009 92.5595C72.5987 92.6724 72.0755 92.6536 71.5829 92.5051C72.0092 92.4108 72.0676 92.145 72.0552 91.7937C72.0345 91.0912 72.0493 90.3927 72.0481 89.6925C72.0481 89.1164 72.0481 89.1164 71.5415 88.795H73.1599C72.4963 89.0801 72.6604 89.5853 72.651 90.0315V90.0326ZM70.1357 87.6428C70.6157 87.4021 70.549 86.9747 70.5449 86.5655C70.5384 85.9027 70.5301 85.2394 70.5449 84.5749C70.5531 84.2342 70.5106 83.9549 70.0625 83.904L70.1263 83.7869H72.9692V84.7341C72.6976 84.4648 72.6457 84.0497 72.2341 84.0579C71.907 84.065 71.5793 84.0579 71.2097 84.0579C71.1967 84.2997 71.1808 84.5093 71.1761 84.7189C71.1701 84.9478 71.1761 85.1768 71.1761 85.4525C71.6921 85.4273 72.1857 85.6773 72.5022 84.9982C72.7006 85.4455 72.5931 85.7739 72.5724 86.1358C72.1774 85.7423 71.7305 85.7605 71.1914 85.8559C71.1914 86.2728 71.1861 86.6943 71.1914 87.1147C71.1955 87.3395 71.3685 87.4232 71.5533 87.4179C71.9256 87.4131 72.2969 87.3796 72.664 87.3178C72.7891 87.295 72.9001 87.1422 72.994 87.0251C73.0879 86.908 73.1328 86.7804 73.265 86.5351C73.402 86.9964 73.33 87.3008 73.2497 87.6428H70.1357ZM68.6313 91.6884C68.6112 92.0496 68.6212 92.3856 69.1036 92.508C68.5852 92.6836 68.1105 92.6555 67.585 92.5666C68.0284 92.2036 68.0296 92.2036 68.0314 91.6198C68.0314 90.9571 68.0314 90.2938 68.0314 89.6293C68.0314 89.1146 68.0261 89.1146 67.559 88.8096C67.7008 88.7826 67.8439 88.7631 67.9877 88.7511C68.46 88.7446 68.9324 88.747 69.4047 88.7452C69.8263 88.7452 70.1723 88.8998 70.4167 89.2446C70.7084 89.6544 70.6789 90.1058 70.3305 90.4653C70.2083 90.5906 70.069 90.6995 69.9119 90.8382C70.0489 91.4097 70.4687 91.8294 70.8306 92.2715C70.9558 92.4249 71.2286 92.4594 71.4518 92.5554C70.8271 92.7943 70.3701 92.6725 69.9999 92.1719C69.7672 91.8603 69.5504 91.5373 69.3504 91.2042C69.2022 90.953 69.0269 90.8224 68.6366 90.9231C68.6336 91.186 68.6448 91.4372 68.6313 91.6872V91.6884ZM70.4026 78.8186C70.4082 78.8495 70.4106 78.8809 70.4097 78.9122C70.0099 79.0094 69.9296 79.2717 69.945 79.6517C69.9745 80.3906 69.945 81.1318 69.9556 81.8718C69.9603 82.3402 70.0336 82.4057 70.4965 82.4502C70.5744 82.4578 70.6529 82.4578 70.7326 82.4584C71.2989 82.4631 71.8822 82.4977 71.9684 81.6575C72.1869 81.9971 72.1869 81.9971 72.1243 82.5802C71.7263 82.7137 69.5813 82.7424 68.9424 82.6224C69.3368 82.3214 69.3368 82.3214 69.3362 81.7793V79.7342C69.3362 79.1435 69.3362 79.1435 68.8639 78.8186H70.4026ZM69.9763 83.8085C69.7324 83.9584 69.5476 84.0263 69.4325 84.1551C69.3067 84.2962 69.2418 84.4924 69.1579 84.668C68.7127 85.5965 68.2723 86.528 67.8218 87.4542C67.7675 87.5655 67.6535 87.648 67.5667 87.747C67.4592 87.651 67.3087 87.5754 67.2502 87.4542C66.955 86.8418 66.6805 86.2171 66.3959 85.5977C66.1933 85.1563 66.0097 84.7031 65.7682 84.2833C65.6637 84.1013 65.4352 83.9906 65.2327 83.8208H66.8788C66.4283 84.1364 66.4148 84.1592 66.609 84.6141C66.8755 85.2386 67.1493 85.8612 67.4303 86.4818C67.4846 86.5989 67.5762 86.7031 67.7131 86.9062L68.9755 84.1493L68.5964 83.8091L69.9763 83.8085ZM66.7619 89.9185C66.7507 90.3664 66.7743 90.8172 66.7336 91.2621C66.6314 92.3815 65.3691 93.046 64.3234 92.6011C63.5641 92.2779 63.2447 91.7568 63.2902 90.9618C63.3144 90.5344 63.2813 90.1041 63.2996 89.6737C63.3155 89.2967 63.2748 88.9712 62.7582 88.9126L62.8467 88.7827H64.3417C64.1646 88.9683 63.9768 89.0859 63.906 89.251C63.8351 89.4161 63.8753 89.6339 63.867 89.8277C63.8481 90.275 63.808 90.7223 63.8162 91.1685C63.8269 91.662 64.0058 92.1116 64.4911 92.3107C65.0579 92.5449 65.6242 92.4278 66.0995 92.056C66.2494 91.9389 66.3256 91.6936 66.3758 91.4922C66.5635 90.7387 66.4348 89.9799 66.3433 89.2282C66.3274 89.0918 66.1036 88.9788 65.9459 88.8266C66.3445 88.6621 66.7519 88.792 67.2414 88.747C67.0489 88.9811 66.8741 89.1123 66.8109 89.2856C66.7383 89.4759 66.7649 89.7042 66.7596 89.9173L66.7619 89.9185ZM59.6424 87.1305C59.6708 87.3061 59.9004 87.4466 60.0687 87.6369H58.5336L59.0231 87.2751V84.1522L58.5336 83.8501C58.6221 83.8126 58.67 83.7746 58.7172 83.7746C59.3448 83.7787 59.9731 83.7699 60.5995 83.8015C61.0837 83.8255 61.3966 84.0942 61.5177 84.5714C61.6357 85.031 61.4757 85.4104 61.0282 85.7253C60.9514 85.7792 60.8676 85.8231 60.7678 85.8828C61.0571 86.3278 61.3157 86.7646 61.6127 87.1709C61.9156 87.5883 62.4157 87.5222 62.6277 87.0309C63.015 86.1369 63.3728 85.2306 63.7495 84.3319C63.8446 84.1054 63.965 83.8887 64.0743 83.6674L64.2443 83.6563C64.5198 84.2496 64.7973 84.843 65.0768 85.4367C65.323 85.9636 65.5391 86.5122 65.8237 87.0175C65.9519 87.2464 66.2146 87.4015 66.4437 87.6152C65.9371 87.7294 65.4252 87.6644 64.8005 87.6562L65.2362 87.2839C65.0875 86.9123 64.93 86.522 64.7639 86.1129H63.4224L62.9418 87.2967L63.3144 87.559C63.2482 87.6059 63.2063 87.6621 63.162 87.6633C62.7298 87.6779 62.297 87.6785 61.8631 87.6919C61.3996 87.706 61.0872 87.4718 60.8487 87.1065C60.6462 86.7962 60.4407 86.4876 60.2364 86.1791C60.1018 85.9753 59.9217 85.894 59.6176 85.9982C59.6212 86.3612 59.5792 86.7534 59.6401 87.1293L59.6424 87.1305ZM66.8812 78.8127C67.5531 78.8713 67.8968 79.3326 67.8135 79.9837C67.7893 80.1763 67.6624 80.3718 67.5384 80.5322C67.4344 80.6657 67.265 80.75 67.0625 80.9034C67.3843 81.3847 67.6848 81.8776 68.0349 82.3331C68.1465 82.4783 68.3892 82.5228 68.5817 82.6165C68.0278 82.8121 67.5425 82.6844 67.2467 82.2605C67.0241 81.9415 66.8044 81.6165 66.6037 81.2863C66.452 81.0346 66.2589 80.9274 65.8952 81.0346C65.8952 81.3174 65.9076 81.62 65.8952 81.9274C65.878 82.2512 65.9477 82.5023 66.3675 82.5398C66.3522 82.5802 66.3368 82.6206 66.3221 82.6616H64.9257C65.2587 82.4315 65.3024 82.1218 65.2894 81.76C65.2658 81.0978 65.2829 80.4345 65.2823 79.7694C65.2823 79.1786 65.2823 79.1786 64.8578 78.7975C65.5645 78.7993 66.2258 78.7548 66.8788 78.8115L66.8812 78.8127ZM62.5368 78.7308C63.8286 78.7612 64.396 79.3613 64.6995 80.2863C64.9948 81.1786 64.3648 82.3103 63.3415 82.6282C63.0646 82.7149 62.767 82.7383 62.5692 82.7746C61.6346 82.7225 60.9089 82.51 60.4437 81.7166C60.139 81.1991 60.0699 80.6692 60.2819 80.1552C60.6781 79.1933 61.3128 78.7015 62.5368 78.7308ZM55.8341 78.832C55.729 78.962 55.569 79.0733 55.5519 79.2026C55.5312 79.3625 55.6192 79.5405 55.6776 79.7044C55.9061 80.3437 56.1417 80.9801 56.4145 81.726C56.5916 81.2576 56.7505 80.88 56.8809 80.4965C57.0185 80.0914 57.1171 79.6734 57.2582 79.267C57.3232 79.0814 57.4354 78.7875 57.5535 78.7706C57.8298 78.7313 57.8097 79.0475 57.8764 79.2337C58.1575 80.0176 58.4291 80.8051 58.703 81.5914L58.8424 81.62C59.1051 80.8115 59.3673 80.0024 59.6359 79.1745L59.1937 78.8233H60.6072C59.7434 79.2272 59.8213 80.082 59.5019 80.7208C59.2864 81.1511 59.2031 81.6446 59.0402 82.103C58.9587 82.3331 58.8312 82.5468 58.6623 82.8981C58.102 81.8308 57.8693 80.7963 57.4619 79.678C57.09 80.7904 56.7623 81.767 56.4316 82.7564C56.0886 82.6885 56.0354 82.4362 55.9593 82.2354C55.6375 81.4005 55.3251 80.5621 55.0305 79.7179C54.9 79.3449 54.7896 78.9784 54.3297 78.8291L55.8341 78.832ZM54.3887 83.8038H58.2136V84.8454C58.0736 84.7072 57.9774 84.6574 57.9638 84.5913C57.8705 84.1358 57.5605 84.0058 57.1413 84.0234C56.986 84.0298 56.8308 84.0234 56.6271 84.0234C56.6105 84.2289 56.5869 84.3969 56.5857 84.5655C56.5822 85.3266 56.594 86.0878 56.581 86.8489C56.5751 87.189 56.6099 87.4753 57.0817 87.5175C56.6926 87.7072 56.2551 87.7294 55.5418 87.5707C55.9551 87.4712 55.9971 87.1902 55.9923 86.853C55.9793 85.939 55.9876 85.0251 55.9876 84.086C55.644 83.976 55.2998 83.9578 55.0429 84.0966C54.802 84.2283 54.6544 84.5286 54.3869 84.8495L54.3887 83.8038ZM54.394 89.7499V88.785H58.2077V89.8488C57.9443 89.5268 57.7944 89.1983 57.5458 89.0801C57.2972 88.9618 56.9459 89.0543 56.5887 89.0543C56.5887 90.0807 56.5964 91.0689 56.5845 92.056C56.5804 92.3675 56.8685 92.3605 57.0439 92.5039C56.5379 92.6743 56.0591 92.6526 55.4893 92.566C55.6877 92.4044 55.879 92.3195 55.9421 92.1784C56.016 92.0121 55.9864 91.7972 55.987 91.6029C55.9906 90.7692 55.987 89.9349 55.987 89.0854C55.2195 88.8839 54.7117 89.0584 54.5109 89.8681L54.394 89.7499ZM58.4261 97.231C57.5995 97.7714 56.7262 97.9131 55.8158 97.4611C54.8823 96.9974 54.5068 96.2761 54.6768 95.4008C54.89 94.3013 55.7396 93.6625 56.6406 93.6245C57.2943 93.5964 57.9284 93.6661 58.5596 93.9137V94.7228C57.9774 94.0665 57.3427 93.7334 56.5769 93.9143C56.2574 93.9898 55.8866 94.1901 55.7066 94.4482C55.0571 95.385 55.099 96.2187 55.8412 96.9886C56.4824 97.6543 57.6072 97.4944 58.5489 96.6783C58.667 96.9037 58.6399 97.0916 58.4279 97.231H58.4261ZM58.308 91.059C58.1752 90.0929 58.608 89.3166 59.4535 88.9015C60.5033 88.3863 61.8808 88.7657 62.5468 89.7118C62.9259 90.2516 62.8774 91.1333 62.4954 91.6954C62.0107 92.4096 61.3146 92.6778 60.671 92.7311C59.6436 92.7176 58.4627 92.1573 58.3104 91.059H58.308ZM63.3126 96.2491C62.7948 97.5957 61.1327 98.0729 60.0534 97.4593C59.7298 97.2755 59.4222 97.108 59.1919 96.7854C58.2094 95.4154 59.3602 93.775 60.6999 93.6391C60.8363 93.6257 60.9739 93.6181 61.0004 93.6163C62.1482 93.5905 62.8574 94.0905 63.2925 94.9968C63.4909 95.4037 63.472 95.8411 63.315 96.2491H63.3126ZM67.3512 94.7269C67.3512 95.1549 67.3595 95.5841 67.3471 96.015C67.3057 97.3996 65.9607 98.1227 64.7143 97.4892C64.0825 97.1666 63.8599 96.6642 63.8174 96.036C63.7861 95.5706 63.8127 95.0993 63.8092 94.6344C63.8044 94.0847 63.8027 94.0847 63.4443 93.717H64.869C64.4362 93.8926 64.4557 94.2498 64.4433 94.5952C64.4309 95.0419 64.3807 95.4916 64.4108 95.9353C64.4332 96.2743 64.4793 96.6525 64.647 96.9306C64.9316 97.399 65.4435 97.4745 65.9548 97.3691C66.4661 97.2638 66.9302 97.0103 66.9668 96.4523C67.0164 95.6812 66.9715 94.9026 66.9249 94.1298C66.9172 93.9986 66.6982 93.8803 66.534 93.7129H67.7775C67.3571 94.1157 67.3565 94.1157 67.3536 94.7258L67.3512 94.7269ZM72.1928 94.1298C72.1219 94.2796 72.1337 94.4722 72.1255 94.6473C72.0971 95.4453 72.0771 96.2445 72.0499 97.0425C72.0434 97.2333 72.021 97.423 72.0074 97.5916C71.7836 97.7181 71.6986 97.5916 71.5888 97.4669C70.7108 96.4769 69.8257 95.4927 68.9029 94.4629C68.8651 94.5735 68.8232 94.6385 68.8232 94.7023C68.8232 95.3065 68.845 95.9107 68.8403 96.5173C68.8367 96.9353 68.8544 97.3282 69.4744 97.519C68.904 97.707 68.4707 97.6256 68.0467 97.6156C68.0382 97.5717 68.0345 97.5269 68.0355 97.4821C68.4453 97.351 68.4984 97.036 68.4978 96.6672C68.4978 95.9646 68.5262 95.262 68.5303 94.5595C68.5303 94.3686 68.4896 94.1772 68.4654 93.9705L67.9298 93.8107C68.5952 93.5332 68.9436 93.6257 69.3351 94.0747C70.0519 94.8944 70.7905 95.6988 71.5197 96.5068C71.5545 96.5454 71.6142 96.5612 71.7275 96.6238C71.7275 96.0431 71.7275 95.5068 71.7275 94.9705C71.7275 94.8347 71.6921 94.6994 71.6921 94.5607C71.6921 94.2468 71.675 93.9442 71.3597 93.7123H72.5837C72.4313 93.8739 72.2678 93.9799 72.1969 94.1286L72.1928 94.1298ZM76.3607 97.2327C75.2312 98.0301 73.9003 97.8246 73.0153 96.981C72.3711 96.3668 72.4927 94.9283 73.1416 94.2966C73.673 93.782 74.2865 93.5542 75.0092 93.6274C75.5093 93.6784 76.0047 93.7773 76.503 93.8552V94.6163C76.1523 94.3821 75.8771 94.1134 75.5483 94.0027C75.1949 93.8883 74.8189 93.8606 74.4524 93.9219C74.2679 93.9543 74.0924 94.0248 73.9373 94.1289C73.7821 94.233 73.6509 94.3684 73.552 94.5261C73.0796 95.2825 73.1918 96.57 73.797 97.0179C74.4707 97.5161 75.5299 97.6215 76.4876 96.6256C76.6051 96.8932 76.5768 97.0805 76.3648 97.2298L76.3607 97.2327ZM76.64 88.8658C76.9978 88.6714 77.3367 88.7797 77.6845 88.7639L79.3105 91.7861C79.5432 91.3312 79.7463 90.9553 79.9299 90.5707C80.1726 90.0619 80.3904 89.5408 80.642 89.0368C80.701 88.9197 80.8451 88.7833 80.9643 88.7674C81.2643 88.7294 81.5725 88.7551 81.9651 88.7551C81.7207 88.9636 81.4999 89.0695 81.4213 89.2405C81.3428 89.4115 81.3859 89.6603 81.3871 89.8746C81.3871 90.4196 81.3977 90.9647 81.4013 91.5104C81.4066 92.2024 81.4054 92.2024 81.951 92.5601C81.4284 92.6842 80.9549 92.6339 80.3532 92.5888C80.9342 92.2586 80.8085 91.7885 80.8102 91.3535C80.8102 90.8008 80.8102 90.2475 80.8102 89.6948L80.6921 89.6767L79.1871 92.8089L77.5634 89.7815L77.4743 89.7949C77.4743 90.5221 77.4495 91.251 77.4914 91.9758C77.502 92.1626 77.7217 92.3376 77.8716 92.5572C77.479 92.669 77.0852 92.655 76.6423 92.5221C77.1507 92.3464 77.1147 91.9501 77.1277 91.5677C77.1466 90.9237 77.1867 90.2844 77.1997 89.6421C77.2139 89.0877 77.2009 89.0877 76.6441 88.8629L76.64 88.8658ZM76.8325 97.519C77.4477 97.3434 77.3639 96.8984 77.3603 96.4851C77.3603 95.861 77.3603 95.2369 77.3603 94.6116C77.3568 94.0607 77.3538 94.0607 76.9157 93.7123H78.4579C78.2643 93.8762 78.0848 93.9652 78.0121 94.1075C77.9395 94.2498 77.9608 94.4488 77.9596 94.6233C77.9549 95.2673 77.969 95.9113 77.9537 96.5554C77.9437 96.9757 77.9118 97.3861 78.5252 97.4751C78.1438 97.6718 77.4418 97.6871 76.8366 97.5184L76.8325 97.519ZM82.1836 97.6086H79.0253C79.5054 97.2673 79.4003 96.7936 79.3973 96.3487C79.3926 95.7246 79.3849 95.1005 79.3944 94.4752C79.3991 94.1737 79.3784 93.9014 79.007 93.7656C79.5231 93.6391 79.999 93.6409 80.5522 93.7223C80.0397 94.015 80.035 94.015 80.0315 94.556C80.0261 95.2966 80.022 96.0378 80.0315 96.7808C80.0374 97.231 80.0905 97.2796 80.5239 97.3481C80.6411 97.3656 80.7596 97.3742 80.8781 97.3738C81.6079 97.3773 81.7862 97.2655 82.1848 96.6326L82.1836 97.6086Z" fill="black"/>
    <path d="M60.8203 85.2821C60.9974 85.0058 60.9484 84.6885 60.7134 84.3606C60.4371 83.9754 60.0716 83.9941 59.6436 84.0737V85.6299C60.2369 85.692 60.6437 85.5591 60.8203 85.2821Z" fill="black"/>
    <path d="M64.0399 84.5321C63.7612 84.9964 63.6266 85.3787 63.5752 85.8301H64.5967L64.0399 84.5321Z" fill="black"/>
    <path d="M69.8341 90.3073C70.0361 90.0585 70.0007 89.7417 69.846 89.4783C69.6015 89.0614 69.2101 88.9279 68.6733 89.021V90.5948C69.1445 90.7177 69.546 90.6615 69.8341 90.3073Z" fill="black"/>
    <path d="M74.4571 82.4238C74.7291 82.4088 74.9984 82.3622 75.2595 82.2851C75.4183 82.2382 75.5671 82.1247 75.6946 82.0128C76.4622 81.3401 76.2851 80.2459 75.6551 79.5703C75.0646 78.9339 74.303 78.9801 73.4551 79.0591V81.4988C73.4545 82.4338 73.4905 82.4718 74.4571 82.4238Z" fill="black"/>
    <path d="M67.104 80.2999C67.3083 80.0188 67.2291 79.6992 67.052 79.4217C66.7916 79.0118 66.3872 79.0083 65.9302 79.0593V80.6201C66.4043 80.6728 66.8282 80.6804 67.104 80.2999Z" fill="black"/>
    <path d="M80.3876 87.1381L78.9617 85.918C78.516 86.1961 78.4203 86.5807 78.7256 87.0427C79.0367 87.5163 79.7553 87.5784 80.3876 87.1381Z" fill="black"/>
    <path d="M79.3006 85.3196C79.9224 85.0163 80.0847 84.6586 79.8178 84.2271C79.7765 84.1604 79.7221 84.1026 79.6578 84.0571C79.5935 84.0116 79.5207 83.9793 79.4436 83.9622C79.3665 83.9451 79.2868 83.9436 79.2091 83.9576C79.1314 83.9716 79.0573 84.0009 78.9912 84.0438C78.7249 84.2019 78.6523 84.5251 78.8471 84.8015C78.9824 84.9894 79.1524 85.1521 79.3006 85.3196Z" fill="black"/>
    <path d="M62.134 90.7967C62.1276 90.6796 62.1264 90.5625 62.114 90.4454C62.0295 89.6351 61.1888 88.9302 60.557 88.9531C59.682 88.9841 59.1765 89.3412 58.974 90.2101C58.814 90.8945 59.1712 91.8587 59.7085 92.1749C59.9596 92.3317 60.2485 92.4188 60.5451 92.4273C60.8416 92.4357 61.1351 92.3651 61.3948 92.2229C61.9605 91.9331 62.1376 91.4009 62.134 90.7967Z" fill="black"/>
    <path d="M60.5976 93.9418C59.9299 94.135 59.5348 94.7075 59.4977 95.447C59.4587 96.2081 59.8732 96.9914 60.4654 97.2479C61.4266 97.6647 62.7604 97.2777 62.7386 95.7567C62.7273 95.5934 62.7297 95.4751 62.7096 95.3603C62.5573 94.4968 61.7242 93.6168 60.5976 93.9418Z" fill="black"/>
    <path d="M61.8501 82.3753C63.038 82.8437 64.0796 82.1341 64.0996 80.8432C64.1061 80.1839 63.6533 79.3561 63.1455 79.1453C62.0567 78.6921 60.9497 79.239 60.8428 80.4819C60.7749 81.2717 61.2177 82.1265 61.8501 82.3753Z" fill="black"/>
</svg>
