<svg xmlns="http://www.w3.org/2000/svg" display="none">

    <symbol id="phone" viewBox="0 0 32 32">
        <path d="M24.7598 14.3423C24.7895 10.8676 21.8299 7.68218 18.1627 7.24167C18.0897 7.23305 18.0103 7.21982 17.9262 7.20594C17.7446 7.17587 17.5569 7.1449 17.3674 7.1449C16.6158 7.1449 16.4149 7.6729 16.3621 7.98779C16.3106 8.29397 16.3597 8.55103 16.5076 8.75231C16.7565 9.0907 17.1944 9.15083 17.5462 9.19897C17.6493 9.21319 17.7467 9.22641 17.8281 9.24473C21.123 9.98099 22.2324 11.1384 22.7746 14.4053C22.7878 14.4852 22.7938 14.5835 22.8001 14.6879C22.8238 15.0783 22.8731 15.8908 23.7466 15.8908H23.7466C23.8194 15.8908 23.8976 15.8846 23.9789 15.8722C24.7923 15.7486 24.7668 15.0059 24.7546 14.6491C24.7511 14.5485 24.7478 14.4535 24.7563 14.3903C24.7586 14.3744 24.7598 14.3584 24.7598 14.3423Z"/>
        <path d="M17.1539 5.96617C17.2515 5.97324 17.3438 5.97997 17.4208 5.99172C22.8313 6.82377 25.3196 9.38728 26.0091 14.8401C26.0209 14.9328 26.0227 15.0459 26.0246 15.1656C26.0315 15.5916 26.0457 16.4778 26.9974 16.4962L27.027 16.4966C27.3254 16.4966 27.5629 16.4065 27.7328 16.2288C28.029 15.9189 28.0083 15.4585 27.9916 15.0885C27.9876 14.9978 27.9837 14.9122 27.9847 14.8374C28.0535 9.26051 23.2261 4.20341 17.6542 4.01536C17.6311 4.01462 17.6091 4.01586 17.5868 4.01898C17.5758 4.02062 17.5555 4.02259 17.5209 4.02259C17.4653 4.02259 17.3969 4.01774 17.3245 4.0129C17.2368 4.0069 17.1375 4 17.0368 4C16.1494 4 15.9807 4.63069 15.9591 5.00662C15.9094 5.87556 16.75 5.93668 17.1539 5.96617Z"/>
        <path d="M25.7481 21.8869C25.6331 21.799 25.5142 21.7081 25.4028 21.6184C24.8121 21.143 24.1836 20.7048 23.5758 20.281C23.4497 20.1931 23.3235 20.1052 23.1979 20.017C22.4193 19.4702 21.7193 19.2044 21.058 19.2044C20.1673 19.2044 19.3907 19.6966 18.7498 20.667C18.4658 21.0972 18.1213 21.3064 17.6967 21.3064C17.4457 21.3064 17.1604 21.2347 16.849 21.0934C14.3359 19.9538 12.5414 18.2066 11.5153 15.9002C11.0192 14.7854 11.1801 14.0568 12.053 13.4638C12.5488 13.1273 13.4716 12.5009 13.4062 11.3013C13.3322 9.93915 10.3266 5.84053 9.06029 5.37497C8.52416 5.1778 7.96075 5.17599 7.38288 5.37037C5.92713 5.85975 4.88239 6.71924 4.36146 7.85575C3.8581 8.95381 3.88086 10.2432 4.42726 11.5845C6.0069 15.4625 8.22775 18.8436 11.0284 21.6337C13.7698 24.3649 17.1391 26.6022 21.0428 28.2831C21.3947 28.4345 21.7638 28.5171 22.0333 28.5773C22.1251 28.598 22.2044 28.6156 22.2622 28.6315C22.2939 28.6401 22.3267 28.6448 22.3596 28.645L22.3904 28.6452C22.3905 28.6452 22.3904 28.6452 22.3905 28.6452C24.2266 28.6452 26.4312 26.9674 27.1083 25.0548C27.7014 23.3799 26.6184 22.552 25.7481 21.8869Z"/>
        <path d="M17.9668 10.3964C17.6525 10.4044 16.9983 10.4206 16.7687 11.0868C16.6614 11.3983 16.6742 11.6686 16.807 11.8904C17.0019 12.2159 17.3752 12.3156 17.7148 12.3703C18.9465 12.5679 19.5789 13.2489 19.7055 14.5134C19.7643 15.103 20.1612 15.5147 20.671 15.5147H20.6711C20.7088 15.5147 20.7472 15.5125 20.7856 15.5078C21.3987 15.4349 21.6959 14.9844 21.669 14.1691C21.6789 13.3183 21.2335 12.3522 20.4761 11.5828C19.7162 10.811 18.8001 10.3763 17.9668 10.3964Z"/>
    </symbol>

    <symbol id="whatsapp" viewBox="0 0 32 32">
        <path fill-rule="evenodd" clip-rule="evenodd"
              d="M16 4C9.36728 4 4 9.36424 4 16C4 18.5025 4.76312 20.8173 6.11872 22.8062C6.1692 22.881 6.20216 22.9662 6.21512 23.0555C6.22816 23.1448 6.2208 23.2358 6.19376 23.3218L4.97504 27.4L8.96872 26.0218C9.05408 25.9934 9.1448 25.9846 9.23408 25.9959C9.32328 26.0073 9.40888 26.0386 9.4844 26.0875C11.355 27.3013 13.5945 28 16 28C22.6359 28 28 22.6359 28 16C28 9.36408 22.6359 4 16 4ZM11.0875 9.23128L13.2718 12.8406L12.3625 13.7406C12.2699 13.8341 12.2106 13.9553 12.1937 14.0858C12.1767 14.2162 12.2031 14.3486 12.2687 14.4625C13.6565 16.8657 15.3007 18.7353 17.6031 19.75C17.7134 19.799 17.836 19.8136 17.9547 19.7918C18.0735 19.7701 18.183 19.713 18.2687 19.6282L19.2344 18.6625L22.7594 20.8657C22.369 21.7441 21.8602 22.2671 21.2782 22.5718C20.6039 22.9249 19.7804 22.9918 18.8406 22.7969C16.9611 22.4071 14.6908 20.9299 12.8406 19.0375C10.9905 17.145 9.55872 14.8439 9.19376 12.9718C9.01128 12.0358 9.09184 11.2298 9.43752 10.5906C9.73512 10.0403 10.2406 9.5692 11.0875 9.23128Z"/>
    </symbol>

    <symbol id="telegram" viewBox="0 0 32 32">
        <path d="M26.248 5.2442L4.934 14.1152C4.934 14.1152 3.92628 14.4815 4.00431 15.1571C4.08439 15.8339 4.90665 16.1435 4.90665 16.1435L10.2698 18.058C10.2698 18.058 11.8885 23.6897 12.2072 24.7612C12.5257 25.8298 12.7814 25.855 12.7814 25.855C13.0781 25.9918 13.3478 25.774 13.3478 25.774L16.8128 22.4234L22.213 26.8159C23.6737 27.4918 24.2053 26.0836 24.2053 26.0836L28 5.78026C28 4.42788 26.248 5.2442 26.248 5.2442ZM22.4746 24.4507L16.6973 19.7527L14.9045 21.4858L15.2986 17.7986L22.9996 10.4999L12.5023 16.732L7.84607 15.07L25.6111 7.67566L22.4746 24.4507Z"/>
    </symbol>

    <symbol id="vk" viewBox="0 0 33 32">
        <path d="M27.005 20.2131C26.2913 19.3542 25.4509 18.6222 24.6551 17.8454C23.9365 17.1433 23.8917 16.7374 24.4686 15.9283C25.0977 15.0444 25.7741 14.1954 26.4107 13.3165C27.005 12.4949 27.6093 11.6757 27.9226 10.6923C28.1215 10.0674 27.945 9.791 27.3034 9.68145C27.194 9.66153 27.0796 9.66153 26.9652 9.66153L23.1631 9.65904C22.6956 9.65157 22.437 9.85573 22.2704 10.2715C22.0466 10.8342 21.8153 11.3944 21.5493 11.9372C20.945 13.1671 20.2711 14.3547 19.3237 15.3606C19.1148 15.5822 18.8835 15.8635 18.5354 15.7465C18.1002 15.5872 17.9709 14.8676 17.9784 14.6236L17.9759 10.2317C17.8914 9.60427 17.7521 9.32293 17.1304 9.20093H13.1816C12.6544 9.20093 12.3908 9.40509 12.1098 9.73623C11.9482 9.92794 11.8985 10.0499 12.2317 10.1147C12.8882 10.2392 13.2562 10.6649 13.3532 11.3222C13.5098 12.3729 13.4999 13.4285 13.4079 14.4842C13.3805 14.7929 13.3283 15.0992 13.2064 15.388C13.015 15.8411 12.7066 15.9332 12.3013 15.6544C11.9333 15.4029 11.6771 15.0469 11.426 14.6908C10.4786 13.3489 9.72261 11.9048 9.1084 10.3861C8.92936 9.94786 8.6235 9.68145 8.15849 9.67398C7.01711 9.65655 5.87821 9.65406 4.73682 9.67398C4.0505 9.68643 3.8441 10.0201 4.1251 10.645C5.36844 13.4111 6.75103 16.1025 8.55636 18.5525C9.48389 19.8098 10.5482 20.9202 11.9208 21.707C13.4775 22.5983 15.156 22.8672 16.9215 22.7851C17.7496 22.7452 17.9983 22.5311 18.0356 21.7045C18.0604 21.1393 18.1251 20.5791 18.4036 20.0712C18.6771 19.5733 19.0899 19.4787 19.5674 19.7874C19.8061 19.9417 20.0075 20.1409 20.1965 20.3476C20.6615 20.858 21.1116 21.3833 21.594 21.8763C22.2008 22.4938 22.9169 22.8573 23.8196 22.7851H27.3134C27.8754 22.7477 28.1688 22.058 27.8455 21.4281C27.6192 20.985 27.3208 20.5941 27.005 20.2131Z"/>
    </symbol>

    <symbol id="fb" viewBox="0 0 33 32">
        <path d="M12.9772 28H17.8073V15.8954H21.1809L21.5408 11.8437H17.8157C17.8157 11.8437 17.8157 10.3286 17.8157 9.53331C17.8157 8.579 18.0082 8.2023 18.929 8.2023C19.6741 8.2023 21.5408 8.2023 21.5408 8.2023V4C21.5408 4 18.7867 4 18.1924 4C14.6012 4 12.9772 5.58214 12.9772 8.61249C12.9772 11.2494 12.9772 11.8437 12.9772 11.8437H10.4658V15.9456H12.9772V28Z"/>
    </symbol>

    <symbol id="instagram" viewBox="0 0 33 32">
        <path d="M16.0034 5.75C19.34 5.75 19.7342 5.75962 21.0515 5.82692C22.2726 5.88462 22.9361 6.08654 23.3688 6.25962C23.9553 6.49039 24.3688 6.75962 24.8015 7.19231C25.2438 7.63462 25.513 8.04808 25.7342 8.625C25.9073 9.06731 26.1092 9.73077 26.1669 10.9423C26.2246 12.2596 26.2438 12.6538 26.2438 15.9904C26.2438 19.3269 26.2342 19.7212 26.1669 21.0385C26.1092 22.2596 25.9073 22.9231 25.7342 23.3558C25.5034 23.9423 25.2342 24.3558 24.8015 24.7981C24.3688 25.2308 23.9457 25.5096 23.3688 25.7308C22.9265 25.9039 22.263 26.1058 21.0515 26.1635C19.7342 26.2212 19.34 26.2404 16.0034 26.2404C12.6669 26.2404 12.2726 26.2308 10.9553 26.1635C9.73419 26.1058 9.07073 25.9039 8.63803 25.7308C8.0515 25.5 7.63803 25.2308 7.19573 24.7981C6.76303 24.3558 6.48419 23.9423 6.26303 23.3558C6.08996 22.9135 5.88803 22.25 5.83034 21.0385C5.77265 19.7212 5.75342 19.3269 5.75342 15.9904C5.75342 12.6538 5.76303 12.2596 5.83034 10.9423C5.88803 9.72115 6.08996 9.05769 6.26303 8.625C6.4938 8.03846 6.76303 7.625 7.19573 7.19231C7.63803 6.75 8.0515 6.48077 8.63803 6.25962C9.08034 6.08654 9.7438 5.88462 10.9553 5.82692C12.263 5.76923 12.6573 5.75 16.0034 5.75ZM16.0034 3.5C12.6092 3.5 12.1861 3.51923 10.8496 3.57692C9.52265 3.63462 8.60919 3.84615 7.81111 4.15385C6.98419 4.47115 6.29188 4.90385 5.59957 5.59615C4.90726 6.28846 4.47457 6.99039 4.15726 7.80769C3.84957 8.60577 3.63803 9.50962 3.58034 10.8462C3.52265 12.1827 3.50342 12.6058 3.50342 16C3.50342 19.3942 3.51303 19.8173 3.58034 21.1538C3.63803 22.4808 3.84957 23.3942 4.15726 24.1923C4.47457 25.0096 4.90726 25.7115 5.59957 26.4038C6.29188 27.0962 6.9938 27.5289 7.81111 27.8462C8.60919 28.1539 9.51303 28.3654 10.8496 28.4231C12.1861 28.4808 12.6092 28.5 16.0034 28.5C19.3977 28.5 19.8207 28.4904 21.1573 28.4231C22.4842 28.3654 23.3977 28.1539 24.1957 27.8462C25.0227 27.5289 25.715 27.0962 26.4073 26.4038C27.0996 25.7115 27.5323 25.0096 27.8496 24.1923C28.1573 23.3942 28.3688 22.4904 28.4265 21.1538C28.4842 19.8173 28.5034 19.3942 28.5034 16C28.5034 12.6058 28.4938 12.1827 28.4265 10.8462C28.3688 9.51923 28.1573 8.60577 27.8496 7.80769C27.5323 6.99039 27.0996 6.28846 26.4073 5.59615C25.715 4.90385 25.013 4.47115 24.1957 4.15385C23.3977 3.84615 22.4938 3.63462 21.1573 3.57692C19.8207 3.51923 19.3977 3.5 16.0034 3.5Z"/>
        <path d="M16.0036 9.58655C12.4556 9.58655 9.58057 12.4615 9.58057 16.0096C9.58057 19.5577 12.4556 22.4327 16.0036 22.4327C19.5517 22.4327 22.4267 19.5577 22.4267 16.0096C22.4267 12.4615 19.5421 9.58655 16.0036 9.58655ZM16.0036 20.1731C13.7056 20.1731 11.8402 18.3077 11.8402 16.0096C11.8402 13.7115 13.7056 11.8462 16.0036 11.8462C18.3017 11.8462 20.1671 13.7115 20.1671 16.0096C20.1671 18.3077 18.3017 20.1731 16.0036 20.1731Z"/>
        <path d="M24.1763 9.3269C24.1763 10.1538 23.5032 10.8269 22.6763 10.8269C21.8493 10.8269 21.1763 10.1538 21.1763 9.3269C21.1763 8.49998 21.8493 7.8269 22.6763 7.8269C23.5032 7.8269 24.1763 8.49998 24.1763 9.3269Z"/>
    </symbol>

    <symbol id="twitter" viewBox="0 0 33 32">
        <path d="M3.36328 23.935C5.65328 25.405 8.38329 26.265 11.3133 26.265C20.9433 26.265 26.3733 18.135 26.0533 10.845C27.0633 10.115 27.9433 9.20499 28.6433 8.16499C27.7133 8.57499 26.7133 8.85499 25.6633 8.98499C26.7333 8.34499 27.5533 7.32499 27.9433 6.11498C26.9433 6.70498 25.8333 7.14499 24.6533 7.37499C23.7033 6.36499 22.3633 5.73499 20.8733 5.73499C17.5233 5.73499 15.0633 8.85498 15.8233 12.105C11.5133 11.885 7.69329 9.82499 5.13329 6.68499C3.77329 9.01499 4.43328 12.065 6.73328 13.605C5.88328 13.575 5.08329 13.345 4.38329 12.955C4.32329 15.355 6.05328 17.605 8.54328 18.105C7.81328 18.305 7.01329 18.345 6.20329 18.195C6.86329 20.255 8.77328 21.755 11.0433 21.795C8.86328 23.495 6.11328 24.265 3.36328 23.935Z"/>
    </symbol>

    <symbol id="youtube" viewBox="0 0 33 32">
        <path d="M27.504 10.1833C27.2258 9.14643 26.4165 8.32451 25.3796 8.04632C23.5082 7.54053 16.0034 7.54053 16.0034 7.54053C16.0034 7.54053 8.49868 7.54053 6.62724 8.04632C5.59668 8.32451 4.78108 9.14011 4.5029 10.1833C4.00342 12.0674 4.00342 16 4.00342 16C4.00342 16 4.00342 19.9325 4.5029 21.8166C4.78108 22.8535 5.59036 23.6754 6.62724 23.9536C8.49868 24.4594 16.0034 24.4594 16.0034 24.4594C16.0034 24.4594 23.5082 24.4594 25.3796 23.9536C26.4102 23.6754 27.2258 22.8598 27.504 21.8166C28.0034 19.9325 28.0034 16 28.0034 16C28.0034 16 28.0034 12.0611 27.504 10.1833Z"/>
        <path d="M13.5503 19.5595V12.4277L19.8222 15.9936L13.5503 19.5595Z" fill="white"/>
    </symbol>

    <symbol id="search" viewBox="0 0 24 24">
        <path fill-rule="evenodd" clip-rule="evenodd"
              d="M15.206 16.617L18.296 19.703C18.686 20.099 19.316 20.099 19.706 19.703C20.098 19.308 20.098 18.669 19.706 18.273L16.626 15.193C17.496 14.025 18.013 12.577 18.013 11.007C18.013 7.137 14.876 4 11.007 4C7.137 4 4 7.137 4 11.007C4 14.877 7.137 18.014 11.007 18.014C12.582 18.014 14.036 17.494 15.206 16.617ZM11.006 16.012C8.243 16.012 6.002 13.772 6.002 11.007C6.002 8.243 8.242 6.002 11.007 6.002C13.771 6.002 16.011 8.242 16.011 11.007C16.011 13.771 13.771 16.012 11.008 16.012H11.006Z"/>
    </symbol>

    <symbol id="plus" viewBox="0 0 16 16">
        <path fill-rule="evenodd" clip-rule="evenodd"
              d="M7 13C7 13.5523 7.44772 14 8 14C8.55228 14 9 13.5523 9 13V9H13C13.5523 9 14 8.55228 14 8C14 7.44772 13.5523 7 13 7H9V3C9 2.44772 8.55228 2 8 2C7.44771 2 7 2.44772 7 3V7H3C2.44772 7 2 7.44772 2 8C2 8.55228 2.44772 9 3 9H7V13Z"/>
    </symbol>

    <symbol id="minus" viewBox="0 0 17 16">
        <g>
            <rect x="2.07495" y="7" width="12" height="2" rx="1"/>
        </g>
    </symbol>


    <symbol id="burger" viewBox="0 0 22 14">
        <rect width="22" height="2" rx="1"/>
        <rect y="6" width="22" height="2" rx="1"/>
        <rect y="12" width="22" height="2" rx="1"/>
    </symbol>

    <symbol id="star" viewBox="0 0 16 17">
        <path d="M7.54597 2.48433C7.72468 2.0969 8.27532 2.0969 8.45403 2.48433L9.85773 5.52756C9.93057 5.68546 10.0802 5.79418 10.2529 5.81466L13.5809 6.20925C14.0046 6.25949 14.1748 6.78318 13.8615 7.07286L11.401 9.34827C11.2734 9.46634 11.2162 9.64225 11.2501 9.81281L11.9032 13.0999C11.9864 13.5184 11.5409 13.842 11.1686 13.6336L8.24422 11.9967C8.09248 11.9118 7.90752 11.9118 7.75578 11.9967L4.8314 13.6336C4.45909 13.842 4.01361 13.5184 4.09676 13.0999L4.74991 9.81281C4.78379 9.64225 4.72664 9.46634 4.59897 9.34827L2.13846 7.07286C1.82521 6.78318 1.99537 6.25949 2.41906 6.20925L5.74711 5.81466C5.91979 5.79418 6.06943 5.68546 6.14227 5.52756L7.54597 2.48433Z"/>
    </symbol>

    <symbol id="map" viewBox="0 0 14 14">
        <g>
            <path fill-rule="evenodd" clip-rule="evenodd"
                  d="M13.8399 1.53634C13.89 1.57741 13.9303 1.62909 13.958 1.68765C13.9857 1.74621 14 1.81019 14 1.87497V13.25C13.9999 13.3511 13.9649 13.449 13.9007 13.5272C13.8366 13.6054 13.7474 13.6589 13.6482 13.6787L9.27325 14.5537C9.21664 14.565 9.15836 14.565 9.10175 14.5537L4.8125 13.6962L0.52325 14.5537C0.459803 14.5664 0.394332 14.5649 0.331556 14.5492C0.268779 14.5335 0.210259 14.5041 0.160212 14.4631C0.110165 14.4221 0.0698367 14.3705 0.0421328 14.312C0.0144289 14.2536 3.90711e-05 14.1897 0 14.125L0 2.74997C6.10593e-05 2.64886 0.0351366 2.5509 0.099263 2.47274C0.163389 2.39458 0.252608 2.34103 0.35175 2.32122L4.72675 1.44622C4.78336 1.4349 4.84164 1.4349 4.89825 1.44622L9.1875 2.30372L13.4768 1.44622C13.5402 1.43346 13.6056 1.43492 13.6684 1.4505C13.7312 1.46609 13.7898 1.49541 13.8399 1.53634ZM8.75 3.10872L5.25 2.40872V12.8912L8.75 13.5912V3.10872ZM9.625 13.5912L13.125 12.8912V2.40872L9.625 3.10872V13.5912ZM4.375 12.8912V2.40872L0.875 3.10872V13.5912L4.375 12.8912Z"/>
        </g>
    </symbol>

    <symbol id="pay-icon" viewBox="0 0 50 54">
        <path d="M26.889 25.0724C26.889 24.0031 25.8885 23.1027 24.7004 23.1027C23.5122 23.1027 22.5117 24.0031 22.5117 25.0724C22.5117 25.8041 22.9494 26.4231 23.5122 26.7608L22.8869 30.9255H26.4513L25.8259 26.7608C26.4513 26.4231 26.889 25.8041 26.889 25.0724Z"/>
        <path d="M24.7006 11.7904C22.1993 11.7904 20.1982 13.6476 20.1982 15.8425V19.163H29.2655V15.8425C29.2029 13.6476 27.2019 11.7904 24.7006 11.7904Z"/>
        <path d="M47.3372 5.99373L27.7645 0.422095C25.7634 -0.140698 23.5748 -0.140698 21.5737 0.422095L2.00105 5.99373C0.812931 6.3314 0 7.34444 0 8.47003V15.111C0 30.3064 8.25429 44.5451 22.074 53.2683C22.8244 53.7749 23.7624 54 24.6378 54C25.5133 54 26.4513 53.7749 27.2017 53.2683C34.1428 48.9348 39.6456 43.1944 43.4601 36.6097C47.2746 30.0813 49.3382 22.7087 49.3382 15.111V8.47003C49.4007 7.34444 48.5253 6.3314 47.3372 5.99373ZM35.2684 34.6399H14.0698V19.1631H16.9463V15.8426C16.9463 12.0156 20.3856 8.86399 24.7004 8.86399C29.0151 8.86399 32.4544 11.9593 32.4544 15.8426V19.1631H35.3309V34.6399H35.2684Z"/>
    </symbol>

    <symbol id="arrow-right" viewBox="0 0 24 24">
        <path d="M16.5061 12.0295C16.5073 12.2259 16.4694 12.4207 16.3948 12.6026C16.3201 12.7845 16.2102 12.9499 16.0711 13.0894L10.0711 19.061C9.93128 19.2001 9.76524 19.3106 9.58251 19.3859C9.39978 19.4612 9.20393 19.5 9.00614 19.5C8.80835 19.5 8.6125 19.4612 8.42976 19.3859C8.24703 19.3106 8.08099 19.2001 7.94114 19.061C7.80128 18.9218 7.69034 18.7565 7.61465 18.5746C7.53896 18.3928 7.5 18.1979 7.5 18.001C7.5 17.8042 7.53896 17.6092 7.61465 17.4274C7.69034 17.2455 7.80128 17.0802 7.94114 16.9411L12.9061 12.0295L8.13614 7.10292C7.9827 6.96558 7.85939 6.79822 7.77391 6.61129C7.68843 6.42436 7.64263 6.22189 7.63936 6.01654C7.63609 5.81119 7.67543 5.60737 7.75491 5.41784C7.8344 5.22831 7.95233 5.05715 8.10131 4.91504C8.2503 4.77294 8.42714 4.66296 8.62078 4.59198C8.81442 4.52101 9.0207 4.49056 9.2267 4.50255C9.43271 4.51453 9.63401 4.56869 9.81802 4.66164C10.002 4.75459 10.1648 4.88432 10.2961 5.04273L16.0861 11.0143C16.3506 11.2873 16.5008 11.6503 16.5061 12.0295Z"/>
    </symbol>

    <symbol id="arrow-left" viewBox="0 0 24 24">
        <path d="M7.49386 11.9706C7.49272 11.7741 7.53056 11.5793 7.60521 11.3974C7.67985 11.2155 7.78984 11.0501 7.92886 10.9106L13.9289 4.93905C14.0687 4.79985 14.2348 4.68944 14.4175 4.6141C14.6002 4.53877 14.7961 4.5 14.9939 4.5C15.1917 4.5 15.3875 4.53877 15.5702 4.6141C15.753 4.68944 15.919 4.79985 16.0589 4.93905C16.1987 5.07824 16.3097 5.24349 16.3854 5.42536C16.461 5.60722 16.5 5.80215 16.5 5.999C16.5 6.19585 16.461 6.39077 16.3854 6.57264C16.3097 6.75451 16.1987 6.91975 16.0589 7.05895L11.0939 11.9706L15.8639 16.8971C16.0173 17.0344 16.1406 17.2018 16.2261 17.3887C16.3116 17.5756 16.3574 17.7781 16.3606 17.9835C16.3639 18.1888 16.3246 18.3926 16.2451 18.5822C16.1656 18.7717 16.0477 18.9429 15.8987 19.085C15.7497 19.2271 15.5729 19.337 15.3792 19.408C15.1856 19.479 14.9793 19.5094 14.7733 19.4975C14.5673 19.4855 14.366 19.4313 14.182 19.3384C13.998 19.2454 13.8352 19.1157 13.7039 18.9573L7.91386 12.9857C7.64939 12.7127 7.49923 12.3497 7.49386 11.9706Z"/>
    </symbol>

    <symbol id="user" viewBox="0 0 16 16">
        <path d="M6.00201 4.00001C6.00201 3.47011 6.21252 2.96191 6.58721 2.58721C6.96191 2.21252 7.47011 2.00201 8.00001 2.00201C8.52992 2.00201 9.03812 2.21252 9.41281 2.58721C9.78751 2.96191 9.99801 3.47011 9.99801 4.00001C9.99801 4.52992 9.78751 5.03812 9.41281 5.41281C9.03812 5.78751 8.52992 5.99801 8.00001 5.99801C7.47011 5.99801 6.96191 5.78751 6.58721 5.41281C6.21252 5.03812 6.00201 4.52992 6.00201 4.00001ZM8.00001 3.00201C7.86896 3.00201 7.73918 3.02783 7.6181 3.07798C7.49701 3.12814 7.38699 3.20165 7.29432 3.29432C7.20165 3.38699 7.12814 3.49701 7.07798 3.6181C7.02783 3.73918 7.00201 3.86895 7.00201 4.00001C7.00201 4.13107 7.02783 4.26085 7.07798 4.38193C7.12814 4.50302 7.20165 4.61303 7.29432 4.70571C7.38699 4.79838 7.49701 4.87189 7.6181 4.92205C7.73918 4.9722 7.86896 4.99801 8.00001 4.99801C8.2647 4.99801 8.51855 4.89287 8.70571 4.70571C8.89287 4.51855 8.99801 4.2647 8.99801 4.00001C8.99801 3.73533 8.89287 3.48148 8.70571 3.29432C8.51855 3.10716 8.2647 3.00201 8.00001 3.00201Z"
              fill="#6B6B6B"/>
        <path d="M11 4.5C11 4.30302 11.0388 4.10796 11.1142 3.92597C11.1896 3.74399 11.3001 3.57863 11.4393 3.43934C11.5786 3.30005 11.744 3.18956 11.926 3.11418C12.108 3.0388 12.303 3 12.5 3C12.697 3 12.892 3.0388 13.074 3.11418C13.256 3.18956 13.4214 3.30005 13.5607 3.43934C13.6999 3.57863 13.8104 3.74399 13.8858 3.92597C13.9612 4.10796 14 4.30302 14 4.5C14 4.89782 13.842 5.27936 13.5607 5.56066C13.2794 5.84196 12.8978 6 12.5 6C12.1022 6 11.7206 5.84196 11.4393 5.56066C11.158 5.27936 11 4.89782 11 4.5ZM12.5 4C12.3674 4 12.2402 4.05268 12.1464 4.14645C12.0527 4.24021 12 4.36739 12 4.5C12 4.63261 12.0527 4.75979 12.1464 4.85355C12.2402 4.94732 12.3674 5 12.5 5C12.6326 5 12.7598 4.94732 12.8536 4.85355C12.9473 4.75979 13 4.63261 13 4.5C13 4.36739 12.9473 4.24021 12.8536 4.14645C12.7598 4.05268 12.6326 4 12.5 4Z"
              fill="#6B6B6B"/>
        <path d="M3.5 3C3.10218 3 2.72064 3.15804 2.43934 3.43934C2.15804 3.72064 2 4.10218 2 4.5C2 4.89782 2.15804 5.27936 2.43934 5.56066C2.72064 5.84196 3.10218 6 3.5 6C3.89782 6 4.27936 5.84196 4.56066 5.56066C4.84196 5.27936 5 4.89782 5 4.5C5 4.10218 4.84196 3.72064 4.56066 3.43934C4.27936 3.15804 3.89782 3 3.5 3ZM3 4.5C3 4.36739 3.05268 4.24021 3.14645 4.14645C3.24021 4.05268 3.36739 4 3.5 4C3.63261 4 3.75979 4.05268 3.85355 4.14645C3.94732 4.24021 4 4.36739 4 4.5C4 4.63261 3.94732 4.75979 3.85355 4.85355C3.75979 4.94732 3.63261 5 3.5 5C3.36739 5 3.24021 4.94732 3.14645 4.85355C3.05268 4.75979 3 4.63261 3 4.5Z"
              fill="#6B6B6B"/>
        <path d="M4.268 7C4.09201 7.30385 3.99954 7.64886 4 8H2V10.5C1.99992 10.7487 2.0617 10.9936 2.17977 11.2125C2.29784 11.4314 2.4685 11.6176 2.67639 11.7541C2.88428 11.8907 3.12286 11.9735 3.37068 11.9949C3.61849 12.0163 3.86774 11.9758 4.096 11.877C4.17 12.208 4.286 12.524 4.436 12.819C4.05646 12.9722 3.64511 13.03 3.23806 12.9871C2.831 12.9442 2.44071 12.802 2.10144 12.573C1.76218 12.3441 1.48432 12.0353 1.29227 11.6738C1.10023 11.3124 0.999864 10.9093 1 10.5V8C1 7.73478 1.10536 7.48043 1.29289 7.29289C1.48043 7.10536 1.73478 7 2 7H4.268Z"
              fill="#6B6B6B"/>
        <path d="M11.564 12.819C11.9436 12.9722 12.3549 13.03 12.762 12.9871C13.169 12.9442 13.5593 12.802 13.8986 12.573C14.2378 12.3441 14.5157 12.0353 14.7078 11.6738C14.8998 11.3124 15.0002 10.9093 15 10.5V8C15 7.73478 14.8947 7.48043 14.7071 7.29289C14.5196 7.10536 14.2652 7 14 7H11.732C11.902 7.294 12 7.635 12 8H14V10.5C14.0001 10.7487 13.9383 10.9936 13.8203 11.2125C13.7022 11.4314 13.5315 11.6176 13.3236 11.7541C13.1158 11.8907 12.8772 11.9735 12.6294 11.9949C12.3815 12.0163 12.1323 11.9758 11.904 11.877C11.829 12.208 11.714 12.524 11.564 12.819Z"
              fill="#6B6B6B"/>
        <path d="M6 7C5.73478 7 5.48043 7.10536 5.29289 7.29289C5.10536 7.48043 5 7.73478 5 8V11C5 11.7956 5.31607 12.5587 5.87868 13.1213C6.44129 13.6839 7.20435 14 8 14C8.79565 14 9.55871 13.6839 10.1213 13.1213C10.6839 12.5587 11 11.7956 11 11V8C11 7.73478 10.8946 7.48043 10.7071 7.29289C10.5196 7.10536 10.2652 7 10 7H6ZM6 8H10V11C10 11.5304 9.78929 12.0391 9.41421 12.4142C9.03914 12.7893 8.53043 13 8 13C7.46957 13 6.96086 12.7893 6.58579 12.4142C6.21071 12.0391 6 11.5304 6 11V8Z"
              fill="#6B6B6B"/>
    </symbol>

    <symbol id="location" viewBox="0 0 16 16">
        <path d="M8.00002 5.33334C6.52669 5.33334 5.33335 6.52667 5.33335 8.00001C5.33335 9.47334 6.52669 10.6667 8.00002 10.6667C9.47335 10.6667 10.6667 9.47334 10.6667 8.00001C10.6667 6.52667 9.47335 5.33334 8.00002 5.33334ZM13.96 7.33334C13.809 5.98142 13.2028 4.72103 12.2409 3.75913C11.279 2.79724 10.0186 2.19101 8.66669 2.04001V0.666672H7.33335V2.04001C5.98143 2.19101 4.72105 2.79724 3.75915 3.75913C2.79725 4.72103 2.19103 5.98142 2.04002 7.33334H0.666687V8.66667H2.04002C2.19103 10.0186 2.79725 11.279 3.75915 12.2409C4.72105 13.2028 5.98143 13.809 7.33335 13.96V15.3333H8.66669V13.96C10.0186 13.809 11.279 13.2028 12.2409 12.2409C13.2028 11.279 13.809 10.0186 13.96 8.66667H15.3334V7.33334H13.96ZM8.00002 12.6667C5.42002 12.6667 3.33335 10.58 3.33335 8.00001C3.33335 5.42001 5.42002 3.33334 8.00002 3.33334C10.58 3.33334 12.6667 5.42001 12.6667 8.00001C12.6667 10.58 10.58 12.6667 8.00002 12.6667Z"
              fill="#6B6B6B"/>
    </symbol>

    <symbol id="arrow-bottom" viewBox="0 0 16 16">
        <path d="M7.98037 11.0041C7.84938 11.0049 7.71954 10.9796 7.59828 10.9299C7.47702 10.8801 7.36673 10.8068 7.27373 10.7141L3.2927 6.71409C3.1999 6.62085 3.12629 6.51016 3.07607 6.38834C3.02585 6.26652 3 6.13595 3 6.00409C3 5.87223 3.02585 5.74166 3.07607 5.61984C3.12629 5.49802 3.1999 5.38733 3.2927 5.29409C3.38549 5.20085 3.49566 5.12689 3.6169 5.07643C3.73815 5.02597 3.8681 5 3.99933 5C4.13057 5 4.26051 5.02597 4.38176 5.07643C4.503 5.12689 4.61317 5.20085 4.70597 5.29409L7.98037 8.60409L11.2647 5.42409C11.3563 5.3218 11.4679 5.23959 11.5925 5.18261C11.7171 5.12562 11.8521 5.09508 11.989 5.0929C12.1259 5.09072 12.2618 5.11695 12.3881 5.16994C12.5145 5.22293 12.6286 5.30155 12.7233 5.40087C12.818 5.5002 12.8914 5.61809 12.9387 5.74719C12.986 5.87628 13.0063 6.0138 12.9983 6.15113C12.9903 6.28847 12.9542 6.42267 12.8922 6.54535C12.8303 6.66802 12.7438 6.77653 12.6382 6.86409L8.65714 10.7241C8.47514 10.9004 8.23317 11.0005 7.98037 11.0041Z"
              fill="#6B6B6B"/>
    </symbol>


    <symbol id="close" viewBox="0 0 24 24">
        <path fill-rule="evenodd" clip-rule="evenodd"
              d="M6.33502 16.0462C5.88808 16.4931 5.88808 17.2178 6.33502 17.6647C6.78196 18.1116 7.50658 18.1116 7.95352 17.6647L11.9999 13.6184L16.0464 17.6648C16.4933 18.1118 17.2179 18.1118 17.6649 17.6648C18.1118 17.2179 18.1118 16.4933 17.6649 16.0463L13.6184 11.9999L17.6645 7.9537C18.1115 7.50676 18.1115 6.78214 17.6645 6.3352C17.2176 5.88827 16.493 5.88827 16.046 6.3352L11.9999 10.3814L7.95385 6.33536C7.50691 5.88842 6.78229 5.88842 6.33535 6.33536C5.88841 6.78229 5.88841 7.50692 6.33535 7.95385L10.3814 11.9999L6.33502 16.0462Z"/>
    </symbol>

    <symbol id="info" viewBox="0 0 24 24">
        <path d="M11 9H13V7H11V9ZM12 20C7.59 20 4 16.41 4 12C4 7.59 7.59 4 12 4C16.41 4 20 7.59 20 12C20 16.41 16.41 20 12 20ZM12 2C10.6868 2 9.38642 2.25866 8.17317 2.7612C6.95991 3.26375 5.85752 4.00035 4.92893 4.92893C3.05357 6.8043 2 9.34784 2 12C2 14.6522 3.05357 17.1957 4.92893 19.0711C5.85752 19.9997 6.95991 20.7362 8.17317 21.2388C9.38642 21.7413 10.6868 22 12 22C14.6522 22 17.1957 20.9464 19.0711 19.0711C20.9464 17.1957 22 14.6522 22 12C22 10.6868 21.7413 9.38642 21.2388 8.17317C20.7362 6.95991 19.9997 5.85752 19.0711 4.92893C18.1425 4.00035 17.0401 3.26375 15.8268 2.7612C14.6136 2.25866 13.3132 2 12 2ZM11 17H13V11H11V17Z"/>
    </symbol>


    <symbol id="info-icon1" viewBox="0 0 22 22">
        <path fill-rule="evenodd" clip-rule="evenodd"
              d="M11.2256 1.00253C8.59172 0.943456 5.93894 1.9189 3.92893 3.92891C0.0236893 7.83415 0.0236895 14.1658 3.92893 18.071C7.83418 21.9763 14.1658 21.9763 18.0711 18.071C20.0811 16.061 21.0565 13.4082 20.9975 10.7743C20.9796 9.97719 20.8669 9.18178 20.6595 8.40643C20.0933 8.9488 19.5078 9.42758 18.9163 9.84252C17.5649 10.7906 16.1826 11.4053 14.9301 11.6837C13.0241 12.1072 11.7156 11.7156 11 11C10.2844 10.2844 9.8928 8.97588 10.3163 7.0699C10.5947 5.81738 11.2094 4.43511 12.1575 3.08368C12.5724 2.49221 13.0512 1.90664 13.5935 1.34046C12.8182 1.13305 12.0228 1.02041 11.2256 1.00253ZM16.6569 16.6568C17.9081 15.4056 18.6582 13.8431 18.9072 12.2186C15.3611 14.2643 11.638 14.4664 9.5858 12.4142C7.53361 10.362 7.73568 6.63895 9.78139 3.09281C8.1569 3.34184 6.59434 4.09193 5.34315 5.34313C2.21895 8.46732 2.21895 13.5326 5.34315 16.6568C8.46734 19.781 13.5327 19.781 16.6569 16.6568Z"/>
    </symbol>

    <symbol id="info-icon2" viewBox="0 0 22 22">
        <path d="M5.54545 2C5.04338 2 4.63636 2.40701 4.63636 2.90909V4.72727C4.63636 5.22935 5.04338 5.63636 5.54545 5.63636C6.04753 5.63636 6.45455 5.22935 6.45455 4.72727V2.90909C6.45455 2.40701 6.04753 2 5.54545 2Z"/>
        <path fill-rule="evenodd" clip-rule="evenodd"
              d="M11.9091 19.2727C14.6118 19.2727 16.8554 17.307 17.2882 14.7273H17.3636C19.3719 14.7273 21 13.0992 21 11.0909C21 9.0826 19.3719 7.45455 17.3636 7.45455V6.54545H1V13.8182C1 16.8306 3.44208 19.2727 6.45455 19.2727H11.9091ZM2.81818 8.36364V13.8182C2.81818 15.8265 4.44624 17.4545 6.45455 17.4545H11.9091C13.9174 17.4545 15.5455 15.8265 15.5455 13.8182V8.36364H2.81818ZM19.1818 11.0909C19.1818 12.0951 18.3678 12.9091 17.3636 12.9091V9.27273C18.3678 9.27273 19.1818 10.0868 19.1818 11.0909Z"/>
        <path d="M8.27273 2.90909C8.27273 2.40701 8.67974 2 9.18182 2C9.6839 2 10.0909 2.40701 10.0909 2.90909V4.72727C10.0909 5.22935 9.6839 5.63636 9.18182 5.63636C8.67974 5.63636 8.27273 5.22935 8.27273 4.72727V2.90909Z"/>
        <path d="M12.8182 2C12.3161 2 11.9091 2.40701 11.9091 2.90909V4.72727C11.9091 5.22935 12.3161 5.63636 12.8182 5.63636C13.3203 5.63636 13.7273 5.22935 13.7273 4.72727V2.90909C13.7273 2.40701 13.3203 2 12.8182 2Z"/>
    </symbol>

    <symbol id="info-icon3" viewBox="0 0 22 22">
        <path d="M13 11H9V13H13V11Z"/>
        <path fill-rule="evenodd" clip-rule="evenodd"
              d="M6 5V4C6 2.89545 6.89539 2 8 2H14C15.1046 2 16 2.89545 16 4V5H19C20.6569 5 22 6.34314 22 8V18C22 19.6569 20.6569 21 19 21H3C1.34314 21 0 19.6569 0 18V8C0 6.34314 1.34314 5 3 5H6ZM8 4H14V5H8V4ZM3 7C2.44775 7 2 7.44769 2 8V14H20V8C20 7.44769 19.5522 7 19 7H3ZM2 18V16H20V18C20 18.5523 19.5522 19 19 19H3C2.44775 19 2 18.5523 2 18Z"/>
    </symbol>

    <symbol id="info-icon4" viewBox="0 0 22 22">
        <path fill-rule="evenodd" clip-rule="evenodd"
              d="M5 7C3.34315 7 2 8.34315 2 10V12C2 13.6569 3.34315 15 5 15C6.65685 15 8 13.6569 8 12H14V14H16V12H17V14H19V10H8C8 8.34315 6.65685 7 5 7ZM6 12V10C6 9.44772 5.55228 9 5 9C4.44772 9 4 9.44772 4 10V12C4 12.5523 4.44772 13 5 13C5.55228 13 6 12.5523 6 12Z"/>
    </symbol>

    <symbol id="info-icon5" viewBox="0 0 22 22">
        <path fill-rule="evenodd" clip-rule="evenodd"
              d="M1 5.06055L5.71997 9.78052L10.5005 5L15.2811 9.78052L20 5.06157V13.9382C20 15.5951 18.6569 16.9382 17 16.9382H4C2.34314 16.9382 1 15.5951 1 13.9382V5.06055ZM18 9.87781V13.9382C18 14.4905 17.5523 14.9382 17 14.9382H4C3.44771 14.9382 3 14.4905 3 13.9382V9.87683L5.71997 12.5968L10.5005 7.81628L15.2811 12.5968L18 9.87781Z"/>
    </symbol>

    <symbol id="info-icon6" viewBox="0 0 22 22">
        <path fill-rule="evenodd" clip-rule="evenodd"
              d="M5.34326 2.34315C5.83159 1.85482 6.36734 1.44282 6.93569 1.10715C9.43515 -0.369049 12.5651 -0.369049 15.0645 1.10715C15.6329 1.44282 16.1686 1.85482 16.657 2.34315L11.0001 8L5.34326 2.34315ZM11.0001 5.17157L8.4131 2.58456C10.0447 1.80515 11.9556 1.80515 13.5871 2.58456L11.0001 5.17157Z"/>
        <path d="M1 11.3151C1 8.184 2.43899 5.38903 4.69172 3.55543L6.11528 4.97899C4.22043 6.44196 3 8.73599 3 11.3151C3 15.7333 6.58172 19.3151 11 19.3151C15.4183 19.3151 19 15.7333 19 11.3151C19 8.736 17.7796 6.44198 15.8847 4.97901L17.3083 3.55545C19.561 5.38905 21 8.18401 21 11.3151C21 16.8379 16.5228 21.3151 11 21.3151C5.47715 21.3151 1 16.8379 1 11.3151Z"/>
    </symbol>

    <symbol id="info-icon7" viewBox="0 0 23 22">
        <path d="M8.01932 4H10.0193C11.1239 4 12.4777 4.76922 13.0431 5.7181L15.5186 9.87239H20.0193C20.5716 9.87239 21.0193 10.3201 21.0193 10.8724C21.0193 11.4247 20.5716 11.8724 20.0193 11.8724H15.4234L12.948 16.0267C12.3825 16.9756 11.0287 17.7448 9.92418 17.7448H7.92418L11.4234 11.8724H4.43449L3 14.3253H1L3.01932 10.8724L3.01932 10.8394L1.01932 7.41952H3.01932L4.45381 9.87239H11.5186L8.01932 4Z"/>
    </symbol>

    <symbol id="info-icon8" viewBox="0 0 23 22">
        <path d="M7.5 17V19H15.5V17H7.5Z"/>
        <path fill-rule="evenodd" clip-rule="evenodd"
              d="M13.488 2.2203C13.4959 2.14796 13.5 2.07446 13.5 2C13.5 0.895431 12.6046 0 11.5 0C10.3954 0 9.5 0.895431 9.5 2C9.5 2.07446 9.50407 2.14796 9.512 2.2203C5.49799 3.12533 2.5 6.71255 2.5 11C2.5 11.3883 2.52459 11.7709 2.5723 12.1462C1.36949 12.5369 0.5 13.6669 0.5 15V19C0.5 20.6569 1.84315 22 3.5 22H19.5C21.1569 22 22.5 20.6569 22.5 19V15C22.5 13.6669 21.6305 12.5369 20.4277 12.1462C20.4754 11.7709 20.5 11.3883 20.5 11C20.5 6.71255 17.502 3.12533 13.488 2.2203ZM11.5 4C7.63401 4 4.5 7.13401 4.5 11C4.5 11.3402 4.52412 11.674 4.57063 12H18.4294C18.4759 11.674 18.5 11.3402 18.5 11C18.5 7.13401 15.366 4 11.5 4ZM2.5 15C2.5 14.4477 2.94772 14 3.5 14H19.5C20.0523 14 20.5 14.4477 20.5 15V19C20.5 19.5523 20.0523 20 19.5 20H3.5C2.94772 20 2.5 19.5523 2.5 19V15Z"/>
    </symbol>

    <symbol id="info-icon9" viewBox="0 0 22 22">
        <path fill-rule="evenodd" clip-rule="evenodd"
              d="M13.364 12.1214C14.2876 13.045 14.4831 14.4211 13.9504 15.5362L15.4853 17.0711C15.8758 17.4616 15.8758 18.0948 15.4853 18.4853C15.0948 18.8758 14.4616 18.8758 14.0711 18.4853L12.5361 16.9504C11.421 17.4831 10.045 17.2876 9.12132 16.364C7.94975 15.1924 7.94975 13.2929 9.12132 12.1214C10.2929 10.9498 12.1924 10.9498 13.364 12.1214ZM11.9497 14.9498C12.3403 14.5593 12.3403 13.9261 11.9497 13.5356C11.5592 13.145 10.9261 13.145 10.5355 13.5356C10.145 13.9261 10.145 14.5593 10.5355 14.9498C10.9261 15.3403 11.5592 15.3403 11.9497 14.9498Z"/>
        <path d="M7 4H15V6H7V4Z"/>
        <path d="M15 8H7V10H15V8Z"/>
        <path fill-rule="evenodd" clip-rule="evenodd"
              d="M3 3C3 1.34315 4.34315 0 6 0H16C17.6569 0 19 1.34315 19 3V19C19 20.6569 17.6569 22 16 22H6C4.34315 22 3 20.6569 3 19V3ZM6 2H16C16.5523 2 17 2.44772 17 3V19C17 19.5523 16.5523 20 16 20H6C5.44772 20 5 19.5523 5 19V3C5 2.44772 5.44771 2 6 2Z"/>
    </symbol>

    <symbol id="marker-icon" viewBox="0 0 32 33">
        <path d="M15.9949 26.4534C15.8471 26.4534 15.7043 26.3896 15.6075 26.2746C15.3041 25.9221 8.20264 17.6041 8.20264 13.4324C8.20264 9.12779 11.6973 5.62537 15.9923 5.62537C20.2874 5.62537 23.7821 9.12779 23.7821 13.4324C23.7821 17.6041 16.6806 25.9221 16.3772 26.2746C16.2855 26.3896 16.1453 26.4534 15.9949 26.4534ZM15.9949 6.64978C12.2606 6.64978 9.22478 9.69493 9.22478 13.4349C9.22478 16.7126 14.5063 23.3444 15.9949 25.148C17.4835 23.3419 22.765 16.71 22.765 13.4349C22.7676 9.69237 19.7292 6.64978 15.9949 6.64978Z"/>
        <path d="M15.3424 32.066C14.7281 32.0404 14.1137 31.9817 13.5096 31.8872L13.6677 30.8781C14.231 30.9675 14.8096 31.0237 15.3831 31.0467L15.3424 32.066ZM17.1827 32.0353L17.1088 31.016C17.6823 30.9751 18.2559 30.8985 18.8192 30.7912L19.0104 31.7952C18.4088 31.9101 17.7945 31.9919 17.1827 32.0353ZM11.7101 31.4989C11.1187 31.3354 10.5324 31.1335 9.96655 30.9036L10.3514 29.9558C10.8816 30.173 11.4322 30.3595 11.9828 30.5128L11.7101 31.4989ZM20.7946 31.3456L20.4888 30.3697C21.0368 30.1985 21.5772 29.9916 22.0997 29.7566L22.5152 30.689C21.957 30.9419 21.3784 31.1616 20.7946 31.3456ZM8.30206 30.1091C7.76422 29.8128 7.23913 29.4832 6.74207 29.1281L7.33344 28.2953C7.79991 28.6274 8.29186 28.9365 8.79401 29.2124L8.30206 30.1091ZM24.1517 29.8434L23.6317 28.9646C24.1236 28.6709 24.6054 28.3464 25.0617 27.999L25.6785 28.8114C25.1917 29.1843 24.6768 29.5318 24.1517 29.8434ZM5.3019 27.9734C4.84563 27.5647 4.40975 27.1227 4.00446 26.6629L4.76916 25.9859C5.14896 26.4151 5.5568 26.829 5.98503 27.2121L5.3019 27.9734ZM27.0779 27.6132L26.3718 26.8749C26.7848 26.4764 27.1799 26.0498 27.5469 25.6078L28.332 26.2593C27.9395 26.7344 27.5189 27.1892 27.0779 27.6132ZM2.86761 25.2144C2.51585 24.7111 2.19213 24.1823 1.90155 23.6433L2.79879 23.1579C3.07153 23.6637 3.37486 24.1568 3.70368 24.6294L2.86761 25.2144ZM29.4204 24.775L28.5665 24.2181C28.88 23.7353 29.1681 23.232 29.423 22.716L30.3355 23.1707C30.0628 23.7199 29.7543 24.259 29.4204 24.775ZM1.12156 21.9726C0.894697 21.4029 0.698425 20.8127 0.540388 20.2201L1.5243 19.9544C1.67214 20.5087 1.85566 21.0605 2.06723 21.5945L1.12156 21.9726ZM31.0569 21.4718L30.0985 21.127C30.2922 20.5854 30.4579 20.0285 30.5879 19.469L31.582 19.7015C31.4418 20.2993 31.2659 20.8945 31.0569 21.4718ZM0.165687 18.4139C0.076472 17.8085 0.0203919 17.1902 0 16.5771L1.0196 16.5439C1.03744 17.1187 1.09097 17.6986 1.17508 18.2658L0.165687 18.4139ZM31.8955 17.8826L30.8835 17.7676C30.9473 17.1979 30.9804 16.618 30.9804 16.0407C30.9804 15.706 30.9702 15.3688 30.9473 15.0392L31.9643 14.9728C31.9873 15.3254 32 15.6856 32 16.0432C32 16.6563 31.9643 17.2746 31.8955 17.8826ZM1.06038 14.8144L0.0433323 14.7327C0.0917631 14.1196 0.17843 13.5039 0.295684 12.9061L1.29489 13.1054C1.18783 13.6648 1.10626 14.2422 1.06038 14.8144ZM30.7357 13.3225C30.6337 12.7579 30.4961 12.1934 30.3279 11.6441L31.3041 11.3452C31.4826 11.9302 31.6304 12.5357 31.74 13.1386L30.7357 13.3225ZM1.73077 11.4295L0.759601 11.1153C0.948227 10.5303 1.17254 9.95292 1.42489 9.39345L2.35272 9.81753C2.11566 10.3412 1.90665 10.8828 1.73077 11.4295ZM29.7288 10.0245C29.4994 9.49819 29.2369 8.98216 28.9489 8.484L29.8308 7.96796C30.1392 8.49932 30.4196 9.05113 30.6643 9.61315L29.7288 10.0245ZM3.1582 8.28985L2.28644 7.76103C2.60252 7.23477 2.95428 6.72385 3.32643 6.23846L4.13191 6.86435C3.7827 7.31908 3.45643 7.7968 3.1582 8.28985ZM27.9955 7.04573C27.6514 6.58589 27.2793 6.14138 26.8842 5.72497L27.6259 5.02245C28.0465 5.46951 28.4467 5.94212 28.8112 6.43261L27.9955 7.04573ZM5.26621 5.55892L4.5372 4.84617C4.96543 4.40677 5.4217 3.98781 5.89581 3.59951L6.54071 4.39145C6.09463 4.75421 5.6664 5.14762 5.26621 5.55892ZM25.6301 4.53962C25.1917 4.16919 24.7252 3.82176 24.2485 3.50498L24.8119 2.65173C25.3217 2.98894 25.8187 3.36192 26.2877 3.75534L25.6301 4.53962ZM7.935 3.37981L7.38442 2.51889C7.89932 2.18934 8.4397 1.88533 8.99028 1.61709L9.43636 2.53677C8.92401 2.78713 8.41676 3.07069 7.935 3.37981ZM22.7574 2.6364C22.245 2.37583 21.7148 2.14335 21.177 1.94665L21.5288 0.988653C22.1023 1.20069 22.6707 1.44849 23.2187 1.72695L22.7574 2.6364ZM11.0269 1.86745L10.6879 0.904349C11.264 0.699977 11.8604 0.528815 12.4595 0.393418L12.6838 1.38973C12.1255 1.51746 11.5673 1.67841 11.0269 1.86745ZM19.5252 1.44338C18.9696 1.30798 18.3986 1.2058 17.8302 1.13682L17.9525 0.122626C18.5592 0.196711 19.1709 0.306559 19.7649 0.452174L19.5252 1.44338ZM14.3865 1.10872L14.2794 0.0919676C14.8479 0.030656 15.4239 0 15.9975 0H16.1173L16.1096 1.02186H15.9975C15.4596 1.02442 14.9167 1.05252 14.3865 1.10872Z"/>
        <path d="M15.9947 16.5516C14.4576 16.5516 13.2061 15.2973 13.2061 13.7568C13.2061 12.2164 14.4576 10.962 15.9947 10.962C17.5317 10.962 18.7833 12.2164 18.7833 13.7568C18.7833 15.2973 17.5317 16.5516 15.9947 16.5516ZM15.9947 11.9865C15.0184 11.9865 14.2257 12.7809 14.2257 13.7594C14.2257 14.7378 15.0184 15.5323 15.9947 15.5323C16.9709 15.5323 17.7637 14.7378 17.7637 13.7594C17.7637 12.7809 16.9709 11.9865 15.9947 11.9865Z"/>
    </symbol>

    <symbol id="rating" viewBox="0 0 16 16">
        <path d="M4.91708 11.914V14.609C4.91708 14.8249 4.74208 14.9999 4.52624 14.9999H1.49874C1.28291 14.9999 1.10791 14.8249 1.10791 14.609V11.914C1.10791 11.6982 1.28291 11.5232 1.49874 11.5232H4.52624C4.74208 11.5232 4.91708 11.6982 4.91708 11.914Z"/>
        <path d="M9.88729 9.86666V14.6092C9.88729 14.825 9.71229 15 9.49646 15H6.46896C6.25312 15 6.07812 14.825 6.07812 14.6092V9.86666C6.07812 9.65083 6.25312 9.47583 6.46896 9.47583H9.49646C9.71812 9.47583 9.88729 9.65083 9.88729 9.86666Z"/>
        <path d="M14.8922 11.2666V14.6091C14.8922 14.8249 14.7172 14.9999 14.5013 14.9999H11.4738C11.258 14.9999 11.083 14.8249 11.083 14.6091V11.2666C11.083 11.0507 11.258 10.8757 11.4738 10.8757H14.5013C14.7172 10.8757 14.8922 11.0507 14.8922 11.2666Z"/>
        <path d="M11.4098 4.40083L10.2607 5.52083L10.529 7.10167C10.5815 7.39333 10.459 7.67917 10.2257 7.84833C10.0973 7.9475 9.934 7.99417 9.78233 7.99417C9.65983 7.99417 9.53733 7.97083 9.4265 7.9125L8.00316 7.16583L6.57983 7.9125C6.32316 8.04667 6.00816 8.02917 5.78066 7.85417C5.54733 7.685 5.42483 7.39917 5.47733 7.1075L5.74566 5.52667L4.59066 4.40083C4.3865 4.19667 4.31066 3.89333 4.39816 3.61917C4.4915 3.345 4.72483 3.14667 5.01066 3.1L6.609 2.8725L7.31483 1.42583C7.44316 1.16917 7.7115 1 7.99733 1C8.28316 1 8.5515 1.16917 8.67983 1.42583L9.38566 2.8725L10.984 3.1C11.264 3.14667 11.5032 3.345 11.5907 3.61917C11.6898 3.89333 11.614 4.19667 11.4098 4.40083Z"/>
    </symbol>

</svg>