<svg width="60" height="60" viewBox="0 0 60 60" fill="none" xmlns="http://www.w3.org/2000/svg">
    <rect width="60" height="60" fill="white"/>
    <path d="M44.3389 15.333L15.2737 27.4301C15.2737 27.4301 13.8995 27.9296 14.0059 28.8509C14.1151 29.7738 15.2364 30.196 15.2364 30.196L22.5499 32.8068C22.5499 32.8068 24.7574 40.4865 25.1919 41.9478C25.6263 43.405 25.9749 43.4393 25.9749 43.4393C26.3795 43.6259 26.7473 43.3289 26.7473 43.3289L31.4724 38.7597L38.8366 44.7497C40.8285 45.6714 41.5534 43.7511 41.5534 43.7511L46.7281 16.064C46.7281 14.2198 44.3389 15.333 44.3389 15.333ZM39.1933 41.5243L31.3149 35.1178L28.8701 37.4812L29.4076 32.453L39.9092 22.5L25.5944 30.9986L19.2448 28.7322L43.4704 18.6487L39.1933 41.5243Z" fill="#4997DB"/>
</svg>
