<svg width="22" height="22" viewBox="0 0 22 22" fill="none" xmlns="http://www.w3.org/2000/svg">
    <path d="M13.5209 13.75C14.4064 13.75 15.125 14.4687 15.125 15.3542L15.1241 16.236C15.2314 18.2435 13.739 19.2583 11.0615 19.2583C8.39396 19.2583 6.87504 18.2591 6.87504 16.2708V15.3542C6.87504 14.4687 7.59371 13.75 8.47921 13.75H13.5209ZM13.5209 15.125H8.47921C8.41843 15.125 8.36014 15.1491 8.31716 15.1921C8.27418 15.2351 8.25004 15.2934 8.25004 15.3542V16.2708C8.25004 17.3488 9.06312 17.8833 11.0615 17.8833C13.0488 17.8833 13.8069 17.3663 13.75 16.2727V15.3542C13.75 15.2934 13.7259 15.2351 13.6829 15.1921C13.6399 15.1491 13.5817 15.125 13.5209 15.125ZM3.43754 9.16667H7.44887C7.33338 9.6154 7.30383 10.0819 7.36179 10.5417H3.43754C3.37676 10.5417 3.31847 10.5658 3.2755 10.6088C3.23252 10.6518 3.20837 10.7101 3.20837 10.7708V11.6875C3.20837 12.7655 4.02146 13.2999 6.01979 13.2999C6.44329 13.2999 6.81087 13.2761 7.12621 13.2293C6.60172 13.5616 6.21871 14.0762 6.05096 14.674L6.01979 14.6749C3.35229 14.6749 1.83337 13.6757 1.83337 11.6875V10.7708C1.83337 9.88533 2.55204 9.16667 3.43754 9.16667ZM18.5625 9.16667C19.448 9.16667 20.1667 9.88533 20.1667 10.7708L20.1658 11.6527C20.273 13.6602 18.7807 14.6749 16.1031 14.6749L15.9482 14.6731C15.7754 14.0589 15.3765 13.533 14.8317 13.2009C15.1865 13.2669 15.6081 13.2999 16.1031 13.2999C18.0905 13.2999 18.8485 12.7829 18.7917 11.6893V10.7708C18.7917 10.7101 18.7676 10.6518 18.7246 10.6088C18.6816 10.5658 18.6233 10.5417 18.5625 10.5417H14.6392C14.6959 10.0819 14.6661 9.61549 14.5512 9.16667H18.5625ZM11 7.33333C11.3612 7.33333 11.7188 7.40446 12.0524 7.54266C12.3861 7.68086 12.6892 7.88343 12.9446 8.13879C13.1999 8.39415 13.4025 8.69731 13.5407 9.03095C13.6789 9.3646 13.75 9.7222 13.75 10.0833C13.75 10.4445 13.6789 10.8021 13.5407 11.1357C13.4025 11.4694 13.1999 11.7725 12.9446 12.0279C12.6892 12.2832 12.3861 12.4858 12.0524 12.624C11.7188 12.7622 11.3612 12.8333 11 12.8333C10.2707 12.8333 9.57122 12.5436 9.0555 12.0279C8.53977 11.5122 8.25004 10.8127 8.25004 10.0833C8.25004 9.35399 8.53977 8.65451 9.0555 8.13879C9.57122 7.62306 10.2707 7.33333 11 7.33333ZM11 8.70833C10.8195 8.70833 10.6407 8.7439 10.4739 8.813C10.307 8.8821 10.1554 8.98338 10.0278 9.11106C9.90009 9.23874 9.79881 9.39032 9.72971 9.55714C9.66061 9.72397 9.62504 9.90277 9.62504 10.0833C9.62504 10.2639 9.66061 10.4427 9.72971 10.6095C9.79881 10.7763 9.90009 10.9279 10.0278 11.0556C10.1554 11.1833 10.307 11.2846 10.4739 11.3537C10.6407 11.4228 10.8195 11.4583 11 11.4583C11.3647 11.4583 11.7145 11.3135 11.9723 11.0556C12.2302 10.7977 12.375 10.448 12.375 10.0833C12.375 9.71866 12.2302 9.36892 11.9723 9.11106C11.7145 8.8532 11.3647 8.70833 11 8.70833ZM5.95837 2.75C6.68772 2.75 7.38719 3.03973 7.90292 3.55546C8.41864 4.07118 8.70837 4.77065 8.70837 5.5C8.70837 6.22935 8.41864 6.92882 7.90292 7.44454C7.38719 7.96027 6.68772 8.25 5.95837 8.25C5.22903 8.25 4.52956 7.96027 4.01383 7.44454C3.49811 6.92882 3.20837 6.22935 3.20837 5.5C3.20837 4.77065 3.49811 4.07118 4.01383 3.55546C4.52956 3.03973 5.22903 2.75 5.95837 2.75ZM16.0417 2.75C16.7711 2.75 17.4705 3.03973 17.9863 3.55546C18.502 4.07118 18.7917 4.77065 18.7917 5.5C18.7917 6.22935 18.502 6.92882 17.9863 7.44454C17.4705 7.96027 16.7711 8.25 16.0417 8.25C15.3124 8.25 14.6129 7.96027 14.0972 7.44454C13.5814 6.92882 13.2917 6.22935 13.2917 5.5C13.2917 4.77065 13.5814 4.07118 14.0972 3.55546C14.6129 3.03973 15.3124 2.75 16.0417 2.75ZM5.95837 4.125C5.5937 4.125 5.24396 4.26987 4.9861 4.52773C4.72824 4.78559 4.58337 5.13533 4.58337 5.5C4.58337 5.86467 4.72824 6.21441 4.9861 6.47227C5.24396 6.73013 5.5937 6.875 5.95837 6.875C6.32305 6.875 6.67278 6.73013 6.93065 6.47227C7.18851 6.21441 7.33337 5.86467 7.33337 5.5C7.33337 5.13533 7.18851 4.78559 6.93065 4.52773C6.67278 4.26987 6.32305 4.125 5.95837 4.125ZM16.0417 4.125C15.677 4.125 15.3273 4.26987 15.0694 4.52773C14.8116 4.78559 14.6667 5.13533 14.6667 5.5C14.6667 5.86467 14.8116 6.21441 15.0694 6.47227C15.3273 6.73013 15.677 6.875 16.0417 6.875C16.4064 6.875 16.7561 6.73013 17.014 6.47227C17.2718 6.21441 17.4167 5.86467 17.4167 5.5C17.4167 5.13533 17.2718 4.78559 17.014 4.52773C16.7561 4.26987 16.4064 4.125 16.0417 4.125Z" fill="#F65362"/>
</svg>
