<svg width="60" height="60" viewBox="0 0 60 60" fill="none" xmlns="http://www.w3.org/2000/svg">
    <rect width="60" height="60" fill="white"/>
    <path d="M40.2696 27.5891C40.3057 23.3595 36.7032 19.4821 32.2393 18.9459C32.1505 18.9354 32.0538 18.9193 31.9514 18.9024C31.7304 18.8658 31.5019 18.8281 31.2713 18.8281C30.3564 18.8281 30.1118 19.4708 30.0475 19.8541C29.9849 20.2268 30.0446 20.5397 30.2247 20.7847C30.5276 21.1966 31.0607 21.2698 31.4889 21.3284C31.6144 21.3457 31.7329 21.3618 31.832 21.3841C35.8427 22.2803 37.1931 23.6892 37.8531 27.6658C37.8692 27.763 37.8765 27.8827 37.8842 28.0097C37.913 28.485 37.973 29.474 39.0362 29.474H39.0363C39.1249 29.474 39.22 29.4664 39.319 29.4513C40.3091 29.3008 40.2781 28.3968 40.2632 27.9625C40.259 27.8401 40.255 27.7244 40.2653 27.6475C40.2681 27.6281 40.2695 27.6086 40.2696 27.5891Z" fill="#7B5D9B"/>
    <path d="M31.0116 17.3933C31.1304 17.4019 31.2428 17.4101 31.3365 17.4244C37.9224 18.4372 40.9512 21.5576 41.7905 28.195C41.8048 28.3078 41.807 28.4455 41.8093 28.5912C41.8177 29.1097 41.835 30.1885 42.9935 30.2109L43.0295 30.2113C43.3928 30.2113 43.6818 30.1017 43.8886 29.8854C44.2492 29.5081 44.224 28.9477 44.2037 28.4973C44.1988 28.3869 44.194 28.2828 44.1953 28.1917C44.279 21.4033 38.4029 15.2476 31.6206 15.0187C31.5925 15.0178 31.5657 15.0193 31.5386 15.0231C31.5252 15.0251 31.5005 15.0275 31.4583 15.0275C31.3906 15.0275 31.3074 15.0216 31.2192 15.0157C31.1125 15.0084 30.9916 15 30.869 15C29.7889 15 29.5835 15.7677 29.5573 16.2253C29.4967 17.283 30.5199 17.3574 31.0116 17.3933Z" fill="#7B5D9B"/>
    <path d="M41.4727 36.7726C41.3327 36.6657 41.1879 36.555 41.0523 36.4458C40.3333 35.8671 39.5683 35.3338 38.8284 34.8179C38.6749 34.7109 38.5213 34.6039 38.3684 34.4966C37.4207 33.8309 36.5686 33.5074 35.7637 33.5074C34.6795 33.5074 33.7342 34.1065 32.954 35.2877C32.6084 35.8114 32.189 36.0661 31.6722 36.0661C31.3666 36.0661 31.0194 35.9788 30.6403 35.8068C27.5813 34.4196 25.397 32.2928 24.1479 29.4854C23.5441 28.1285 23.7399 27.2415 24.8025 26.5197C25.406 26.1101 26.5292 25.3476 26.4496 23.8875C26.3595 22.2294 22.701 17.2404 21.1596 16.6737C20.507 16.4337 19.8212 16.4315 19.1178 16.6681C17.3458 17.2638 16.0741 18.31 15.44 19.6934C14.8273 21.03 14.855 22.5995 15.5201 24.2322C17.4429 28.9526 20.1462 33.0682 23.5553 36.4644C26.8922 39.789 30.9935 42.5123 35.7452 44.5584C36.1735 44.7426 36.6228 44.8432 36.9508 44.9165C37.0626 44.9417 37.1591 44.9631 37.2295 44.9824C37.2681 44.9929 37.308 44.9986 37.348 44.9989L37.3855 44.9991C37.3853 44.9991 37.3856 44.9991 37.3855 44.9991C39.6204 44.9991 42.3041 42.9569 43.1283 40.6287C43.8503 38.59 42.532 37.5823 41.4727 36.7726Z" fill="#7B5D9B"/>
    <path d="M32.001 22.786C31.6184 22.7957 30.8221 22.8154 30.5427 23.6264C30.412 24.0055 30.4276 24.3345 30.5893 24.6045C30.8265 25.0007 31.2809 25.1221 31.6943 25.1887C33.1935 25.4292 33.9634 26.2582 34.1174 27.7974C34.189 28.515 34.6722 29.0162 35.2927 29.0162H35.2928C35.3387 29.0162 35.3855 29.0135 35.4322 29.0078C36.1785 28.919 36.5402 28.3707 36.5075 27.3783C36.5195 26.3426 35.9774 25.1667 35.0555 24.2301C34.1305 23.2906 33.0153 22.7615 32.001 22.786Z" fill="#7B5D9B"/>
</svg>
