<svg width="60" height="60" viewBox="0 0 60 60" fill="none" xmlns="http://www.w3.org/2000/svg">
    <rect width="60" height="60" fill="white"/>
    <path fill-rule="evenodd" clip-rule="evenodd" d="M30 15C21.7091 15 15 21.7053 15 30C15 33.1281 15.9539 36.0216 17.6484 38.5078C17.7115 38.6013 17.7527 38.7078 17.7689 38.8194C17.7852 38.931 17.776 39.0448 17.7422 39.1523L16.2188 44.25L21.2109 42.5273C21.3176 42.4918 21.431 42.4807 21.5426 42.4949C21.6541 42.5091 21.7611 42.5482 21.8555 42.6094C24.1938 44.1266 26.9931 45 30 45C38.2949 45 45 38.2949 45 30C45 21.7051 38.2949 15 30 15ZM23.8594 21.5391L26.5898 26.0508L25.4531 27.1758C25.3374 27.2926 25.2632 27.4441 25.2421 27.6072C25.2209 27.7702 25.2539 27.9357 25.3359 28.0781C27.0706 31.0821 29.1259 33.4191 32.0039 34.6875C32.1418 34.7488 32.295 34.767 32.4434 34.7398C32.5919 34.7126 32.7287 34.6413 32.8359 34.5352L34.043 33.3281L38.4492 36.0821C37.9613 37.1801 37.3253 37.8339 36.5977 38.2148C35.7549 38.6561 34.7255 38.7397 33.5508 38.4961C31.2014 38.0089 28.3635 36.1624 26.0508 33.7969C23.7381 31.4313 21.9484 28.5549 21.4922 26.2148C21.2641 25.0448 21.3648 24.0372 21.7969 23.2383C22.1689 22.5504 22.8007 21.9615 23.8594 21.5391Z" fill="#5AC549"/>
</svg>
